<svg xmlns="http://www.w3.org/2000/svg" width="300" height="122" fill="none" viewBox="0 0 300 122"><path fill="#E2002E" d="M277.819 83.3849C277.208 83.4499 276.642 83.7369 276.228 84.1909C275.814 84.6459 275.581 85.2359 275.573 85.8509C275.33 89.5549 275.573 93.2829 275.469 96.9759C275.383 98.7629 275.472 100.554 275.736 102.324C275.988 102.938 276.45 103.441 277.04 103.745C277.629 104.048 278.308 104.131 278.954 103.979C284.302 103.308 289.627 102.66 294.987 102.012C295.767 102.002 296.514 101.701 297.082 101.166C298.009 100.356 297.846 98.9669 297.916 97.8669C297.916 94.1739 297.916 90.4809 297.916 86.7999C297.986 85.4649 297.881 84.1259 297.603 82.8179C297.372 82.2959 296.979 81.8629 296.483 81.5819C295.987 81.3009 295.414 81.1859 294.848 81.2549C289.175 81.9839 283.491 82.6439 277.796 83.3849"/><path fill="#E2002E" d="M82.698 64.4921C81.946 64.5181 81.225 64.7962 80.649 65.2802C80.369 65.5922 80.157 65.9591 80.026 66.3571C79.895 66.7561 79.846 67.1771 79.885 67.5951C79.885 72.0291 79.885 76.4621 79.885 80.8851C78.241 81.1741 76.562 81.3711 74.8838 81.5101C74.8838 77.8521 74.8838 74.1932 74.8838 70.5582C75.02 69.2942 74.8206 68.0161 74.305 66.8541C73.9149 66.4121 73.408 66.0902 72.8427 65.9242C72.2774 65.7582 71.6764 65.7551 71.1096 65.9161C65.9118 66.5531 60.6911 67.2362 55.4701 67.8382C54.4647 67.8022 53.4796 68.1272 52.6919 68.7522C51.7773 69.5632 51.8816 70.9291 51.8468 72.0291C51.8468 87.0391 51.8468 102.05 51.8468 117.061C51.7128 118.361 51.9326 119.673 52.4833 120.858C52.9192 121.302 53.4737 121.612 54.0807 121.749C55.4695 121.73 56.855 121.606 58.2252 121.379C62.7052 120.835 67.162 120.221 71.6421 119.746C72.1301 119.764 72.6161 119.674 73.066 119.484C73.5158 119.294 73.9187 119.009 74.2468 118.647C74.7925 117.727 75.017 116.652 74.8838 115.591C74.8838 111.145 74.8838 106.712 74.8838 102.301C76.551 102.081 78.218 101.884 79.897 101.676C79.897 106.086 79.897 110.462 79.897 114.838C79.781 115.719 80 116.611 80.51 117.338C80.861 117.761 81.325 118.073 81.848 118.239C82.372 118.406 82.931 118.418 83.462 118.276L99.379 116.32C100.307 116.312 101.212 116.035 101.984 115.521C102.289 115.2 102.519 114.816 102.657 114.396C102.795 113.975 102.838 113.529 102.783 113.09C102.783 97.3232 102.783 81.5711 102.783 65.8351C102.878 65.3101 102.838 64.7691 102.668 64.2631C102.498 63.7571 102.203 63.3031 101.81 62.9411C100.919 62.2001 99.681 62.5012 98.592 62.5362C93.313 63.2072 88 63.8441 82.709 64.4921"/><path fill="#E2002E" d="M138.855 57.6272C137.837 57.8012 137.35 58.7852 136.853 59.6182C133.935 64.9202 131.007 70.2112 128.066 75.4892C127.927 71.0442 128.066 66.5872 127.985 62.1422C128.025 61.5472 127.866 60.9552 127.533 60.4602C127.199 59.9662 126.711 59.5962 126.144 59.4102C124.543 59.3472 122.94 59.4602 121.364 59.7452C117.046 60.2892 112.75 60.7992 108.444 61.3432C107.996 61.3522 107.556 61.4602 107.156 61.6602C106.755 61.8612 106.404 62.1482 106.129 62.5012C105.754 63.1142 105.595 63.8362 105.678 64.5502C105.678 78.8122 105.678 93.0902 105.678 107.383C105.678 109.328 105.585 111.295 105.77 113.229C105.858 113.7 106.079 114.136 106.407 114.485C106.736 114.834 107.157 115.081 107.622 115.197C109.601 115.162 111.575 114.976 113.526 114.641C117.555 114.155 121.63 113.669 125.624 113.159C126.136 113.149 126.636 113.004 127.075 112.74C127.514 112.476 127.875 112.102 128.124 111.654C131.099 106.237 134.074 100.807 137.096 95.3892C137.165 99.4762 137.096 103.586 137.096 107.672C136.977 108.599 137.19 109.538 137.698 110.323C137.955 110.73 138.333 111.048 138.779 111.23C139.225 111.413 139.717 111.452 140.187 111.342C142.838 111.11 145.466 110.705 148.105 110.392C151.196 109.987 154.322 109.686 157.366 109.235C157.927 109.126 158.432 108.825 158.794 108.383C159.155 107.941 159.351 107.386 159.346 106.815C159.346 90.8092 159.346 74.8142 159.346 58.8312C159.346 57.8472 159.288 56.5732 158.315 56.0292C157.344 55.4952 156.203 55.3582 155.132 55.6472C149.668 56.3882 144.18 56.9562 138.739 57.7082"/><path fill="#E2002E" d="M193.658 50.8553C192.269 50.8553 190.602 51.5733 190.475 53.1703C190.417 63.5893 190.532 74.0083 190.417 84.4272C188.703 84.6932 186.943 84.8433 185.311 85.0633C185.311 75.3393 185.311 65.5923 185.311 55.8443C185.408 55.2663 185.347 54.6712 185.133 54.1252C184.919 53.5792 184.56 53.1003 184.096 52.7423C183.238 52.2953 182.246 52.1753 181.306 52.4063C176.583 53.0433 171.836 53.5632 167.102 54.1772C165.8 54.1882 164.516 54.4693 163.328 54.9993C162.982 55.3343 162.718 55.7443 162.557 56.1983C162.397 56.6523 162.344 57.1373 162.402 57.6153C162.402 73.3753 162.402 89.1233 162.402 104.859C162.314 105.661 162.479 106.471 162.876 107.174C163.308 107.727 163.932 108.099 164.625 108.216C166.106 108.169 167.583 108.03 169.047 107.799C173.793 107.209 178.516 106.642 183.24 106.04C185.647 105.808 188.044 105.391 190.452 105.252C190.452 107.637 190.359 110.034 190.544 112.453C190.694 113.127 191.101 113.717 191.678 114.097C192.254 114.477 192.956 114.618 193.635 114.49C195.638 114.293 197.652 113.981 199.655 113.75C201.877 113.437 204.135 113.298 206.346 112.882C207.504 112.604 207.943 111.388 208.291 110.415C211.08 102.242 213.859 94.0703 216.695 85.8973C216.945 85.3983 217.066 84.8443 217.048 84.2863C217.03 83.7283 216.872 83.1833 216.591 82.7013C215.942 81.5443 214.473 81.5443 213.338 81.4283C213.338 71.9823 213.338 62.4893 213.338 53.0083C213.338 51.7463 213.338 50.2413 212.25 49.3853C211.26 48.8503 210.102 48.7212 209.02 49.0262C203.891 49.6282 198.764 50.2763 193.635 50.8893"/><path fill="#E2002E" d="M234.534 45.8536C233.931 45.8836 233.355 46.1116 232.893 46.5006C232.431 46.8886 232.109 47.4186 231.976 48.0066C226.28 64.7006 220.577 81.3856 214.866 98.0636C214.688 98.5626 214.653 99.1016 214.766 99.6186C214.878 100.137 215.133 100.613 215.502 100.993C215.906 101.344 216.387 101.594 216.907 101.721C217.427 101.848 217.969 101.848 218.489 101.722C224.625 100.912 230.783 100.24 236.896 99.4066C237.373 99.2836 237.807 99.0326 238.151 98.6786C238.494 98.3256 238.732 97.8846 238.841 97.4036C239.211 95.9566 239.524 94.5096 239.848 93.0626C242.765 92.5876 245.636 92.2526 248.646 91.9046C248.978 93.4166 249.419 94.9016 249.966 96.3496C250.339 96.8266 250.845 97.1816 251.419 97.3706C251.994 97.5606 252.612 97.5756 253.195 97.4146C257.976 96.7786 262.746 96.2576 267.516 95.6436C268.997 95.4476 270.491 95.3656 271.961 95.0536C272.585 94.8156 273.099 94.3556 273.405 93.7616C273.711 93.1676 273.786 92.4816 273.616 91.8356C273.292 90.5736 272.771 89.3576 272.332 88.1306C267.168 73.9846 261.994 59.8266 256.807 45.6566C256.652 44.9806 256.262 44.3816 255.707 43.9666C255.257 43.6936 254.754 43.5186 254.231 43.4546C253.708 43.3916 253.178 43.4396 252.675 43.5966C246.632 44.3486 240.565 45.0776 234.534 45.8186"/><path fill="#E2002E" d="M276.58 40.6441C276.042 40.6351 275.51 40.7551 275.028 40.9951C274.547 41.2351 274.13 41.5871 273.813 42.0221C273.13 43.6771 273.651 45.4951 273.744 47.1971C274.67 57.0141 275.619 66.8771 276.465 76.6241C276.512 77.5261 276.744 78.4091 277.147 79.2171C277.598 79.6571 278.154 79.9731 278.762 80.1381C279.37 80.3021 280.009 80.3081 280.62 80.1551C284.649 79.6231 288.724 79.1481 292.718 78.6731C293.814 78.6061 294.884 78.3191 295.866 77.8281C296.552 76.9841 296.902 75.9161 296.85 74.8301C297.487 67.6181 298.194 60.3821 298.842 53.1821C299.201 49.3041 299.479 45.4141 300 41.6051V40.3781C299.583 39.5681 299.12 38.5841 298.147 38.3751C296.178 38.3001 294.206 38.4401 292.266 38.7931C287.045 39.4181 281.848 40.0891 276.604 40.7031"/><path fill="#E2002E" d="M2.73961 17.4911C2.30281 17.5051 1.87492 17.617 1.48642 17.817C1.09802 18.017 0.758616 18.301 0.493916 18.649C0.105616 19.309 -0.0603847 20.076 0.0196153 20.837C0.0196153 36.349 0.0196153 51.839 0.0196153 67.339C0.112215 68.335 -0.142585 69.447 0.482615 70.292C0.652915 70.552 0.874016 70.775 1.13262 70.949C1.39122 71.122 1.68162 71.24 1.98732 71.298C3.96622 71.277 5.94051 71.099 7.89141 70.766C11.8389 70.303 15.8096 69.77 19.7572 69.342C20.5195 69.343 21.262 69.099 21.8758 68.647C23.0334 67.953 22.9057 66.4481 22.952 65.2671C22.9057 55.4581 22.9057 45.634 22.952 35.794L27.9647 35.18C27.9647 45.101 27.9647 55.0571 27.9647 64.9781C27.8904 65.6551 28.0786 66.3341 28.4898 66.8771C28.9011 67.4201 29.5043 67.784 30.176 67.895C31.4759 67.883 32.7729 67.767 34.0542 67.548C38.5227 67.027 42.9913 66.448 47.4598 65.915C48.0962 65.886 48.7243 65.7621 49.3235 65.5451C49.7644 65.3781 50.1436 65.08 50.4105 64.691C50.6773 64.302 50.8193 63.841 50.8169 63.369C50.8169 47.162 50.8169 30.916 50.8169 14.632C50.8387 14.256 50.775 13.8801 50.6303 13.5321C50.4857 13.1841 50.264 12.874 49.982 12.624C49.7 12.375 49.3651 12.192 49.0024 12.091C48.6397 11.989 48.2583 11.972 47.8877 12.039C45.4567 12.212 43.0606 12.629 40.6411 12.872C28.0151 14.416 15.3852 15.96 2.75151 17.503"/><path fill="#E2002E" d="M78.485 8.19599C72.5111 8.79799 66.4334 10.708 61.9186 14.806C59.9837 16.669 58.4554 18.912 57.4294 21.394C56.4033 23.877 55.902 26.545 55.9569 29.23C55.7415 32.549 56.5711 35.853 58.3298 38.677C59.5807 40.587 61.3924 42.063 63.516 42.902C59.9736 48.76 56.412 54.617 52.831 60.475C52.4904 60.983 52.3144 61.582 52.3268 62.193C52.3392 62.804 52.5396 63.397 52.9005 63.89C53.2321 64.308 53.6763 64.623 54.1808 64.798C54.6853 64.972 55.2292 64.998 55.7483 64.874C61.9224 64.102 68.0965 63.33 74.2706 62.559C74.7895 62.58 75.305 62.465 75.765 62.223C76.224 61.981 76.612 61.621 76.887 61.181C78.045 59.12 79.005 56.933 80.151 54.814C80.151 56.238 80.152 57.65 80.267 59.051C80.311 59.656 80.567 60.227 80.991 60.661C81.415 61.095 81.979 61.366 82.583 61.424C83.292 61.432 84 61.382 84.701 61.274C89.633 60.626 94.576 60.116 99.531 59.456C100.449 59.425 101.337 59.127 102.089 58.6C102.356 58.263 102.553 57.877 102.67 57.463C102.787 57.05 102.822 56.618 102.772 56.192C102.772 41.929 102.772 27.652 102.772 13.359C102.772 11.425 102.876 9.457 102.679 7.501C102.579 6.94 102.281 6.434 101.839 6.075C101.397 5.716 100.841 5.52801 100.271 5.54501C98.573 5.63901 96.881 5.821 95.201 6.089L78.485 8.126"/><path fill="#E2002E" d="M144.632 0H145.685C146.298 0.133 146.851 0.461995 147.258 0.938995C147.666 1.416 147.906 2.013 147.943 2.639C148.001 6.564 147.885 10.511 147.943 14.47C148.014 16.139 147.952 17.811 147.757 19.471C147.584 20.733 146.218 21.231 145.129 21.393C142.814 21.763 140.499 21.937 138.184 22.273V46.502C138.184 48.713 138.311 50.901 138.103 53.089C137.936 53.695 137.57 54.227 137.064 54.599C136.557 54.971 135.94 55.16 135.313 55.138C131.631 55.566 127.938 56.052 124.269 56.492C121.933 56.921 119.558 57.104 117.184 57.037C116.87 56.958 116.576 56.814 116.321 56.615C116.065 56.416 115.854 56.165 115.702 55.879C115.357 54.756 115.216 53.579 115.286 52.406C115.286 43.307 115.286 34.197 115.286 25.074C113.318 25.283 111.35 25.584 109.37 25.792C108.351 25.792 107.055 25.931 106.395 24.982C105.561 24.218 105.677 22.991 105.677 21.983C105.677 17.353 105.677 12.618 105.677 7.964C105.735 7.13 105.596 6.089 106.279 5.464C107.193 4.387 108.699 4.468 109.949 4.306C121.525 2.905 133.032 1.54 144.574 0.034996"/></svg>