<svg width="300" height="139" viewBox="0 0 300 139" fill="none" xmlns="http://www.w3.org/2000/svg">
<mask id="mask0_404_155" style="mask-type:alpha" maskUnits="userSpaceOnUse" x="0" y="0" width="300" height="139">
<path d="M124.041 0.000126673H14.6381C12.7186 -0.00787333 10.8165 0.36313 9.0409 1.09213C7.2653 1.82113 5.6511 2.89413 4.291 4.24813C2.931 5.60313 1.8518 7.21313 1.1154 8.98513C0.379 10.7581 0 12.6581 0 14.5781V123.96C0 127.826 1.5359 131.534 4.2697 134.268C7.0035 137.002 10.7114 138.538 14.5776 138.538H124.041C127.907 138.538 131.615 137.002 134.349 134.268C137.082 131.534 138.618 127.826 138.618 123.96V14.5781C138.618 10.7111 137.082 7.00412 134.349 4.27012C131.615 1.53612 127.907 0.000126673 124.041 0.000126673ZM93.272 113.939L85.53 91.9821H59.1774C59.1774 91.9821 59.6814 90.4301 60.1653 89.1791C60.6492 87.9291 60.6492 86.8001 59.6008 86.5991C58.5523 86.3971 58.8346 85.4901 59.4596 85.0661C60.0847 84.6431 61.6372 84.0781 65.5084 82.2031C69.3797 80.3281 66.8997 79.0381 65.6294 78.1711C65.3113 77.8811 65.0763 77.5111 64.9487 77.1001C64.8211 76.6891 64.8055 76.2511 64.9036 75.8321H79.723L69.6418 47.2411L60.1653 74.1381C60.1653 74.1381 58.9153 76.9211 60.4476 78.1711C61.98 79.4211 64.2382 80.4091 60.3266 82.2031C56.4151 83.9981 54.8626 84.6431 54.2778 85.0661C53.6931 85.4901 53.3705 86.3971 54.419 86.5991C55.4674 86.8001 55.4674 87.9291 54.9835 89.1791C54.4996 90.4301 54.2375 91.0751 54.2375 91.0751L46.1725 113.98H28.8124L36.8775 91.1151C36.8775 91.1151 37.1396 90.4301 37.6437 89.0991C38.1477 87.7681 38.1276 86.7201 37.0791 86.5181C36.0306 86.3161 36.3129 85.4091 36.938 84.9861C37.563 84.5621 39.0954 83.9981 42.9868 82.1231C46.8782 80.2471 44.3982 78.9571 43.1481 78.0901C41.5955 76.9001 42.8456 74.0581 42.8456 74.0581V73.7351L60.992 22.5221H78.332L96.579 74.1381C96.618 74.2691 96.665 74.3971 96.72 74.5211C97.329 75.9021 98.323 77.0781 99.583 77.9091C101.922 79.5621 107.043 80.3081 103.132 82.1831C101.511 82.8721 99.947 83.6881 98.454 84.6231C97.829 85.0461 97.829 86.0141 99.099 86.6391C100.067 87.0831 101.378 87.5261 101.801 88.7961C102.225 90.0671 102.426 90.8131 102.426 90.8131V90.9741L110.491 114L93.272 113.939Z" fill="#A71C37"/>
<path d="M181.665 32.7232H169.366V41.8772H167.35V22.1182H169.366V30.7682H181.746V22.1182H183.762V41.8772H181.746L181.665 32.7232Z" fill="#A71C37"/>
<path d="M198.504 21.8557C200.497 21.8557 202.447 22.4467 204.104 23.5547C205.762 24.6627 207.054 26.2367 207.818 28.0797C208.581 29.9217 208.78 31.9488 208.391 33.9038C208.002 35.8598 207.042 37.6557 205.632 39.0657C204.222 40.4757 202.426 41.4357 200.47 41.8247C198.515 42.2137 196.488 42.0147 194.646 41.2507C192.804 40.4877 191.229 39.1957 190.121 37.5377C189.014 35.8807 188.422 33.9307 188.422 31.9377C188.383 30.6027 188.617 29.2747 189.11 28.0337C189.603 26.7927 190.344 25.6657 191.288 24.7217C192.232 23.7777 193.359 23.0367 194.6 22.5437C195.841 22.0507 197.169 21.8167 198.504 21.8557ZM198.504 40.1437C199.572 40.1767 200.636 39.9917 201.629 39.5977C202.623 39.2047 203.525 38.6117 204.281 37.8557C205.037 37.1007 205.63 36.1977 206.023 35.2037C206.417 34.2107 206.602 33.1467 206.569 32.0787C206.569 30.4837 206.096 28.9238 205.209 27.5978C204.323 26.2718 203.064 25.2377 201.59 24.6277C200.116 24.0167 198.495 23.8567 196.93 24.1687C195.366 24.4797 193.929 25.2478 192.801 26.3758C191.673 27.5038 190.905 28.9407 190.593 30.5047C190.282 32.0697 190.442 33.6907 191.052 35.1647C191.663 36.6387 192.697 37.8977 194.023 38.7847C195.349 39.6707 196.908 40.1437 198.504 40.1437Z" fill="#A71C37"/>
<path d="M213.342 22.1182H215.359L223.424 32.4612L231.106 22.1182H233.021V41.8772H231.005V25.2232L223.383 35.3042H223.101L215.338 25.2232V41.8772H213.322L213.342 22.1182Z" fill="#A71C37"/>
<path d="M239.338 22.1182H250.971V24.1342H241.314V30.9092H250.024V32.9252H241.233V39.8612H251.173V41.8772H239.338V22.1182Z" fill="#A71C37"/>
<path d="M273.492 21.8561C275.486 21.8561 277.435 22.4471 279.093 23.5551C280.75 24.6621 282.043 26.2371 282.806 28.0791C283.569 29.9211 283.768 31.9481 283.379 33.9041C282.99 35.8591 282.03 37.6561 280.62 39.0661C279.21 40.4751 277.414 41.4361 275.458 41.8251C273.503 42.2141 271.476 42.0141 269.634 41.2511C267.792 40.4881 266.217 39.1961 265.109 37.5381C264.002 35.8801 263.41 33.9311 263.41 31.9371C263.374 30.6031 263.61 29.2761 264.104 28.0371C264.598 26.7971 265.339 25.6711 266.283 24.7281C267.226 23.7851 268.352 23.0431 269.591 22.5491C270.831 22.0561 272.158 21.8201 273.492 21.8561ZM273.492 40.1431C274.56 40.1771 275.624 39.9911 276.617 39.5981C277.611 39.2041 278.514 38.6111 279.269 37.8561C280.025 37.1001 280.618 36.1971 281.011 35.2041C281.405 34.2101 281.59 33.1461 281.557 32.0781C281.557 30.4831 281.084 28.9241 280.198 27.5971C279.311 26.2711 278.052 25.2371 276.578 24.6271C275.104 24.0171 273.483 23.8571 271.918 24.1681C270.354 24.4791 268.917 25.2471 267.789 26.3751C266.661 27.5031 265.893 28.9401 265.582 30.5051C265.27 32.0691 265.43 33.6911 266.041 35.1641C266.651 36.6381 267.685 37.8981 269.011 38.7841C270.337 39.6701 271.897 40.1431 273.492 40.1431Z" fill="#A71C37"/>
<path d="M288.326 22.1182H300V24.1342H290.342V31.5142H299.173V33.5302H290.342V41.8772H288.326V22.1182Z" fill="#A71C37"/>
<path d="M293.609 63.1101C293.605 62.4871 293.787 61.8771 294.13 61.3571C294.473 60.8371 294.963 60.4311 295.537 60.1901C296.111 59.9491 296.745 59.8831 297.356 60.0021C297.967 60.1221 298.53 60.4201 298.972 60.8591C299.414 61.2981 299.715 61.8581 299.838 62.4691C299.961 63.0791 299.9 63.7131 299.663 64.2891C299.425 64.8651 299.022 65.3571 298.504 65.7041C297.987 66.0501 297.378 66.2351 296.755 66.2351C296.342 66.2411 295.932 66.1641 295.55 66.0091C295.167 65.8541 294.819 65.6241 294.526 65.3331C294.233 65.0421 294.001 64.6961 293.844 64.3141C293.686 63.9321 293.607 63.5231 293.609 63.1101ZM296.755 65.7111C297.272 65.7271 297.783 65.5881 298.221 65.3121C298.659 65.0371 299.005 64.6361 299.215 64.1631C299.424 63.6891 299.487 63.1641 299.396 62.6541C299.305 62.1441 299.064 61.6731 298.703 61.3011C298.343 60.9291 297.88 60.6741 297.373 60.5661C296.867 60.4591 296.34 60.5061 295.86 60.7001C295.38 60.8951 294.969 61.2281 294.679 61.6571C294.39 62.0861 294.235 62.5921 294.234 63.1101C294.221 63.4481 294.276 63.7861 294.397 64.1021C294.518 64.4191 294.701 64.7081 294.937 64.9511C295.173 65.1941 295.455 65.3871 295.768 65.5171C296.08 65.6481 296.416 65.7141 296.755 65.7111ZM296.11 64.9251H295.565V61.3361H296.936C297.783 61.3361 298.186 61.6381 298.186 62.3641C298.192 62.4891 298.172 62.6141 298.128 62.7311C298.084 62.8491 298.016 62.9561 297.929 63.0461C297.843 63.1361 297.739 63.2081 297.623 63.2581C297.508 63.3071 297.384 63.3321 297.259 63.3321L298.287 64.9251H297.682L296.735 63.3721H296.11V64.9251ZM296.755 62.9081C297.219 62.9081 297.622 62.9081 297.622 62.3241C297.622 61.7391 297.219 61.7991 296.835 61.7991H296.11V62.9081H296.755Z" fill="#A71C37"/>
<path d="M206.264 113.838H191.726V93.0898H182.29V113.838H167.35V60.3458H182.331V80.1858H191.767V60.3458H206.304L206.264 113.838ZM272.8 114.1C280.033 114.031 286.945 111.109 292.035 105.97C297.125 100.832 299.98 93.8908 299.98 86.6578C299.985 80.4928 297.895 74.5088 294.051 69.6878C290.207 64.8678 284.838 61.4978 278.827 60.1308C272.815 58.7638 266.517 59.4808 260.966 62.1658C255.416 64.8498 250.943 69.3418 248.283 74.9038C248.283 68.2298 241.73 60.3458 234.028 60.3258H209.288V113.817H232.394C236.456 113.787 240.356 112.225 243.317 109.444C246.277 106.663 248.079 102.868 248.363 98.8158C250.612 103.398 254.098 107.258 258.428 109.959C262.758 112.66 267.758 114.095 272.861 114.1H272.8ZM230.459 92.2838C231.522 92.4718 232.485 93.0288 233.179 93.8568C233.873 94.6848 234.253 95.7298 234.253 96.8098C234.253 97.8898 233.873 98.9358 233.179 99.7638C232.485 100.591 231.522 101.148 230.459 101.337H223.12V92.2838H230.459ZM230.459 72.1208C231.53 72.2968 232.503 72.8478 233.206 73.6748C233.908 74.5018 234.294 75.5518 234.294 76.6378C234.294 77.7228 233.908 78.7728 233.206 79.5998C232.503 80.4268 231.53 80.9778 230.459 81.1538H223.099V72.2418L230.459 72.1208ZM240.238 86.5368C242.35 85.9608 244.253 84.7928 245.722 83.1698C245.349 85.6428 245.349 88.1578 245.722 90.6298C244.402 88.7358 242.485 87.3378 240.278 86.6578L240.238 86.5368ZM259.211 86.5368C259.25 83.8558 260.081 81.2468 261.599 79.0358C263.117 76.8258 265.253 75.1128 267.741 74.1118C270.229 73.1118 272.957 72.8678 275.582 73.4128C278.208 73.9568 280.614 75.2648 282.499 77.1718C284.384 79.0788 285.663 81.5008 286.177 84.1328C286.69 86.7638 286.415 89.4888 285.386 91.9648C284.356 94.4408 282.618 96.5568 280.39 98.0488C278.161 99.5398 275.542 100.341 272.861 100.349C271.067 100.349 269.29 99.9938 267.634 99.3048C265.977 98.6158 264.473 97.6058 263.209 96.3338C261.944 95.0618 260.943 93.5518 260.264 91.8908C259.585 90.2308 259.24 88.4518 259.251 86.6578L259.211 86.5368ZM272.82 97.2438C274.943 97.2438 277.018 96.6128 278.781 95.4308C280.544 94.2488 281.916 92.5698 282.723 90.6058C283.53 88.6428 283.734 86.4838 283.311 84.4038C282.888 82.3238 281.857 80.4158 280.347 78.9238C278.838 77.4318 276.919 76.4218 274.834 76.0218C272.749 75.6228 270.593 75.8518 268.639 76.6808C266.685 77.5098 265.021 78.9008 263.859 80.6778C262.698 82.4538 262.09 84.5358 262.114 86.6578C262.114 88.0678 262.392 89.4628 262.933 90.7648C263.474 92.0658 264.266 93.2488 265.264 94.2428C266.263 95.2378 267.448 96.0258 268.751 96.5608C270.055 97.0968 271.451 97.3698 272.861 97.3648L272.82 97.2438Z" fill="#A71C37"/>
</mask>
<g mask="url(#mask0_404_155)">
<path d="M319 -0.411133H-2V138.589H319V-0.411133Z" fill="url(#paint0_linear_404_155)"/>
</g>
<defs>
<linearGradient id="paint0_linear_404_155" x1="134.978" y1="138.589" x2="134.978" y2="-0.411133" gradientUnits="userSpaceOnUse">
<stop stop-color="#585857"/>
<stop offset="1" stop-color="#C4C4C4"/>
</linearGradient>
</defs>
</svg>
