<svg width="219" height="270" viewBox="0 0 219 270" fill="none" xmlns="http://www.w3.org/2000/svg">
<path fill-rule="evenodd" clip-rule="evenodd" d="M205.721 170.062C208.692 170.062 211.571 169.033 213.869 167.148C216.166 165.263 217.738 162.641 218.318 159.727C218.898 156.812 218.45 153.787 217.05 151.168C215.65 148.547 213.384 146.493 210.64 145.355C207.895 144.218 204.84 144.067 201.997 144.93C199.153 145.792 196.697 147.613 195.045 150.083C193.395 152.554 192.651 155.52 192.942 158.476C193.233 161.434 194.54 164.198 196.641 166.299C197.832 167.494 199.247 168.44 200.805 169.087C202.364 169.732 204.035 170.064 205.721 170.062ZM157.593 170.062C160.565 170.064 163.445 169.036 165.743 167.152C168.041 165.269 169.615 162.646 170.196 159.732C170.778 156.818 170.33 153.793 168.931 151.171C167.532 148.549 165.267 146.495 162.522 145.356C159.777 144.219 156.722 144.067 153.878 144.929C151.034 145.79 148.577 147.612 146.926 150.081C145.274 152.552 144.531 155.518 144.822 158.476C145.112 161.433 146.419 164.198 148.52 166.299C149.71 167.494 151.124 168.441 152.681 169.087C154.238 169.733 155.907 170.064 157.593 170.062ZM109.472 170.062C112.443 170.062 115.322 169.033 117.62 167.148C119.917 165.263 121.489 162.641 122.07 159.727C122.649 156.812 122.201 153.787 120.801 151.168C119.401 148.547 117.135 146.493 114.39 145.355C111.646 144.218 108.591 144.067 105.748 144.93C102.904 145.792 100.448 147.613 98.7967 150.083C97.1461 152.554 96.4027 155.52 96.6934 158.476C96.9841 161.434 98.2918 164.198 100.392 166.299C101.583 167.494 102.999 168.44 104.557 169.087C106.115 169.732 107.785 170.064 109.472 170.062ZM61.3513 170.062C64.3222 170.062 67.2022 169.033 69.499 167.148C71.7958 165.263 73.369 162.641 73.9486 159.727C74.5291 156.812 74.0809 153.787 72.6805 151.168C71.2801 148.547 69.0148 146.493 66.2698 145.355C63.5248 144.218 60.4702 144.067 57.6271 144.93C54.784 145.792 52.327 147.613 50.6764 150.083C49.0249 152.554 48.2815 155.52 48.5722 158.476C48.8638 161.434 50.1706 164.198 52.2712 166.299C53.4619 167.494 54.8767 168.443 56.4355 169.088C57.9934 169.735 59.6647 170.065 61.3513 170.062ZM13.2231 170.062C16.1924 170.061 19.0697 169.032 21.365 167.148C23.6602 165.264 25.2313 162.643 25.8107 159.731C26.39 156.819 25.9419 153.796 24.5424 151.177C23.1429 148.558 20.8788 146.506 18.1357 145.369C15.3927 144.233 12.3403 144.082 9.49876 144.943C6.65719 145.805 4.20217 147.625 2.55202 150.093C0.901782 152.562 0.158382 155.526 0.448542 158.481C0.738702 161.436 2.04442 164.199 4.14322 166.299C5.33122 167.492 6.74287 168.438 8.29726 169.083C9.85156 169.729 11.5181 170.061 13.2012 170.062H13.2231ZM205.721 121.941C208.692 121.942 211.571 120.912 213.869 119.028C216.166 117.143 217.738 114.52 218.318 111.606C218.898 108.692 218.45 105.667 217.05 103.046C215.65 100.426 213.384 98.3718 210.64 97.2342C207.895 96.0975 204.84 95.9463 201.997 96.8085C199.153 97.6707 196.697 99.4923 195.045 101.963C193.395 104.432 192.651 107.399 192.942 110.356C193.233 113.313 194.54 116.077 196.641 118.179C197.832 119.372 199.247 120.32 200.805 120.965C202.364 121.612 204.035 121.943 205.721 121.941ZM157.593 121.941C160.565 121.944 163.445 120.915 165.743 119.031C168.041 117.148 169.615 114.526 170.196 111.612C170.778 108.697 170.33 105.672 168.931 103.051C167.532 100.429 165.267 98.3745 162.522 97.236C159.777 96.0975 156.722 95.9463 153.878 96.8076C151.034 97.6698 148.577 99.4905 146.926 101.961C145.274 104.431 144.531 107.398 144.822 110.355C145.112 113.312 146.419 116.077 148.52 118.179C149.71 119.373 151.124 120.321 152.681 120.966C154.238 121.612 155.907 121.944 157.593 121.941ZM109.472 121.941C112.442 121.941 115.319 120.911 117.614 119.028C119.909 117.144 121.48 114.522 122.06 111.611C122.639 108.698 122.19 105.675 120.791 103.056C119.391 100.438 117.128 98.3853 114.385 97.2486C111.641 96.1119 108.59 95.9616 105.747 96.8229C102.906 97.6842 100.451 99.504 98.8012 101.973C97.1506 104.441 96.4072 107.405 96.697 110.36C96.9877 113.315 98.2936 116.078 100.392 118.179C101.583 119.372 102.999 120.32 104.557 120.965C106.115 121.612 107.785 121.943 109.472 121.941ZM61.3513 121.941C64.3222 121.942 67.2022 120.912 69.499 119.028C71.7958 117.143 73.369 114.52 73.9486 111.606C74.5291 108.692 74.0809 105.667 72.6805 103.046C71.2801 100.426 69.0148 98.3718 66.2698 97.2342C63.5248 96.0975 60.4702 95.9463 57.6271 96.8085C54.784 97.6707 52.327 99.4923 50.6764 101.963C49.0249 104.432 48.2815 107.399 48.5722 110.356C48.8638 113.313 50.1706 116.077 52.2712 118.179C53.4619 119.374 54.8767 120.322 56.4355 120.968C57.9934 121.613 59.6647 121.945 61.3513 121.941ZM13.2231 121.941C16.1924 121.941 19.0697 120.911 21.365 119.028C23.6602 117.144 25.2313 114.522 25.8107 111.611C26.39 108.698 25.9419 105.675 24.5424 103.056C23.1429 100.438 20.8788 98.3853 18.1357 97.2486C15.3927 96.1119 12.3403 95.9616 9.49876 96.8229C6.65719 97.6842 4.20217 99.504 2.55202 101.973C0.901782 104.441 0.158382 107.405 0.448542 110.36C0.738702 113.315 2.04442 116.078 4.14322 118.179C5.33122 119.371 6.74287 120.316 8.29726 120.963C9.85156 121.608 11.5181 121.941 13.2012 121.941H13.2231ZM205.721 73.8126C208.69 73.8108 211.568 72.7794 213.862 70.8948C216.156 69.0093 217.725 66.3871 218.302 63.4744C218.88 60.5617 218.43 57.5389 217.029 54.921C215.627 52.303 213.362 50.2519 210.618 49.117C207.874 47.9822 204.821 47.8339 201.981 48.6974C199.139 49.5608 196.685 51.3827 195.037 53.8524C193.388 56.3222 192.648 59.2871 192.94 62.2421C193.233 65.197 194.54 67.959 196.641 70.0578C197.834 71.2494 199.249 72.1953 200.807 72.8397C202.365 73.4832 204.035 73.8144 205.721 73.8126ZM157.6 73.8126C160.57 73.8108 163.446 72.7794 165.74 70.8948C168.035 69.0093 169.604 66.3871 170.182 63.4744C170.76 60.5617 170.309 57.5389 168.908 54.921C167.507 52.303 165.241 50.2519 162.497 49.117C159.754 47.9822 156.701 47.8339 153.86 48.6974C151.018 49.5608 148.565 51.3827 146.916 53.8524C145.268 56.3222 144.527 59.2871 144.819 62.2421C145.112 65.197 146.419 67.959 148.52 70.0578C149.711 71.2512 151.127 72.1971 152.685 72.8415C154.244 73.4859 155.914 73.8162 157.6 73.8126ZM61.3513 73.8126C64.3204 73.8108 67.1977 72.7794 69.4918 70.8948C71.7859 69.0093 73.3555 66.3871 73.9333 63.4744C74.5102 60.5617 74.0602 57.5389 72.6589 54.921C71.2576 52.303 68.9923 50.2519 66.2482 49.117C63.5041 47.9822 60.4522 47.8339 57.6109 48.6974C54.7696 49.5608 52.3162 51.3827 50.6674 53.8524C49.0186 56.3222 48.2779 59.2871 48.5704 62.2421C48.8629 65.197 50.1706 67.959 52.2712 70.0578C53.4637 71.2494 54.8794 72.1953 56.4373 72.8397C57.9952 73.4832 59.6656 73.8144 61.3513 73.8126ZM13.2231 73.8126C16.1886 73.8099 19.0613 72.7785 21.3518 70.8948C23.6423 69.0111 25.209 66.3922 25.7851 63.4832C26.3612 60.5743 25.9111 57.5555 24.5113 54.9412C23.1116 52.3269 20.8488 50.2787 18.1085 49.1453C15.3682 48.0119 12.3197 47.8637 9.48229 48.7256C6.64486 49.5877 4.19398 51.4065 2.54716 53.8727C0.900254 56.3388 0.159285 59.2996 0.450255 62.2507C0.741315 65.2019 2.0464 67.9608 4.14322 70.0578C6.54523 72.4608 9.80341 73.8117 13.2012 73.8126H13.2231ZM205.721 25.6849C208.69 25.6847 211.568 24.655 213.863 22.7713C216.158 20.8876 217.729 18.2664 218.309 15.3543C218.888 12.442 218.44 9.41913 217.04 6.80031C215.641 4.18158 213.377 2.12904 210.633 0.992337C207.89 -0.144273 204.838 -0.294752 201.997 0.566637C199.155 1.42794 196.7 3.24792 195.05 5.71635C193.399 8.18478 192.656 11.149 192.947 14.104C193.236 17.059 194.542 19.822 196.641 21.9224C197.832 23.1166 199.247 24.0637 200.805 24.7095C202.364 25.3552 204.035 25.6866 205.721 25.6849ZM13.2012 25.6849C16.1738 25.6905 19.0562 24.6648 21.357 22.7825C23.6578 20.9003 25.2344 18.2783 25.8179 15.3635C26.4015 12.4487 25.9558 9.42183 24.5569 6.79896C23.1581 4.17609 20.8926 2.11968 18.147 0.980456C15.4013 -0.158674 12.3456 -0.310143 9.50074 0.551967C6.65584 1.41408 4.19821 3.2364 2.5468 5.70807C0.895483 8.17974 0.152712 11.1478 0.445122 14.106C0.737622 17.0641 2.04721 19.8292 4.1506 21.9298C5.33779 23.1205 6.74845 24.0651 8.30158 24.7095C9.85471 25.3539 11.5197 25.6854 13.2012 25.6849Z" fill="url(#paint0_linear_404_195)"/>
<path d="M61.6086 269.846C60.3324 269.846 59.1093 269.339 58.2066 268.436C57.3039 267.535 56.7972 266.311 56.7972 265.034V232.763L42.3189 244.615L26.0884 257.605C25.0881 258.311 23.8558 258.61 22.6428 258.44C21.4299 258.269 20.3275 257.643 19.5605 256.688C18.7935 255.733 18.4197 254.521 18.5151 253.3C18.6106 252.079 19.1681 250.94 20.0742 250.116L25.3842 245.863L9.63001 232.88V265.064C9.5815 266.308 9.05293 267.485 8.15527 268.349C7.25752 269.212 6.06052 269.695 4.81501 269.695C3.56959 269.695 2.3725 269.212 1.47484 268.349C0.57718 267.485 0.0486113 266.308 1.12983e-05 265.064V222.649C-0.0019687 221.735 0.256332 220.84 0.744671 220.068C1.23292 219.295 1.93114 218.678 2.75743 218.287C3.58372 217.898 4.50406 217.751 5.41072 217.864C6.31738 217.979 7.17292 218.349 7.87717 218.93L33.0707 239.687L36.2685 237.12L58.5945 218.916C59.301 218.341 60.156 217.977 61.0605 217.867C61.965 217.758 62.8821 217.908 63.7047 218.298C64.5282 218.69 65.223 219.305 65.7108 220.076C66.1977 220.845 66.456 221.738 66.4569 222.649V265.034C66.456 265.669 66.3291 266.297 66.0852 266.883C65.8404 267.469 65.4831 268 65.0322 268.447C64.5822 268.894 64.0476 269.248 63.4599 269.488C62.8722 269.728 62.2431 269.849 61.6086 269.846Z" fill="black"/>
<path d="M212.756 247.997L206.499 243.846L207.181 243.383C207.181 243.383 208.59 242.43 213.629 239.079C215.686 237.72 217.25 235.732 218.082 233.411C218.916 231.091 218.974 228.563 218.25 226.207C216.687 221.072 211.971 217.838 205.935 217.838H156.956C156.308 217.812 155.661 217.919 155.055 218.149C154.449 218.379 153.895 218.73 153.428 219.18C152.96 219.63 152.588 220.169 152.334 220.765C152.081 221.362 151.949 222.004 151.949 222.653C151.949 223.302 152.081 223.943 152.334 224.54C152.588 225.137 152.96 225.677 153.428 226.126C153.895 226.576 154.449 226.926 155.055 227.157C155.661 227.388 156.308 227.493 156.956 227.468H205.956C206.939 227.468 208.648 227.666 209.052 228.986C209.169 229.364 209.161 229.769 209.029 230.142C208.897 230.515 208.647 230.835 208.318 231.054C203.236 234.435 201.82 235.404 201.82 235.404L197.816 238.066L191.009 233.548C190.483 233.198 189.892 232.956 189.271 232.834C188.651 232.713 188.012 232.716 187.393 232.841C186.141 233.094 185.041 233.833 184.335 234.897C183.629 235.962 183.375 237.262 183.627 238.514C183.88 239.766 184.621 240.866 185.685 241.572L207.688 256.16C208.583 256.688 209.587 257.546 209.286 258.646C209.134 259.118 208.832 259.527 208.425 259.811C208.018 260.094 207.531 260.237 207.035 260.216H156.956C156.308 260.191 155.661 260.296 155.055 260.526C154.449 260.758 153.895 261.108 153.428 261.558C152.96 262.007 152.588 262.547 152.334 263.144C152.081 263.74 151.949 264.382 151.949 265.031C151.949 265.679 152.081 266.322 152.334 266.918C152.588 267.515 152.96 268.054 153.428 268.504C153.895 268.953 154.449 269.304 155.055 269.535C155.661 269.765 156.308 269.871 156.956 269.846H207.027C209.636 269.863 212.177 269.023 214.262 267.456C216.346 265.889 217.858 263.68 218.565 261.169C219.943 256.043 217.582 250.85 212.756 247.997Z" fill="black"/>
<path d="M102.284 270C101.652 270 101.027 269.875 100.442 269.633C99.8593 269.391 99.3283 269.037 98.8819 268.59C98.4355 268.144 98.0809 267.613 97.8388 267.03C97.5967 266.445 97.4725 265.82 97.4725 265.188V256.534C97.4707 255.744 97.6633 254.966 98.035 254.268C98.4058 253.571 98.9431 252.976 99.5992 252.536L133.374 229.844C133.675 229.637 133.883 229.321 133.954 228.964C133.989 228.788 133.989 228.606 133.954 228.429C133.919 228.253 133.849 228.086 133.749 227.937C133.545 227.633 133.23 227.421 132.871 227.349C132.513 227.276 132.14 227.348 131.834 227.548L107.931 243.603C107.12 244.147 106.161 244.431 105.185 244.419C104.207 244.405 103.257 244.096 102.46 243.53L78.667 226.661C78.1513 226.296 77.713 225.832 77.3764 225.297C77.0398 224.762 76.8112 224.165 76.705 223.542C76.5988 222.919 76.6168 222.281 76.7572 221.665C76.8976 221.049 77.1577 220.465 77.5231 219.95C77.8885 219.434 78.352 218.996 78.8875 218.659C79.4221 218.322 80.0188 218.094 80.6416 217.988C81.2644 217.881 81.9025 217.899 82.519 218.04C83.1355 218.179 83.7187 218.44 84.2344 218.806L105.32 233.739L126.458 219.539C128.265 218.32 130.394 217.665 132.573 217.658C134.753 217.651 136.886 218.292 138.701 219.499C140.517 220.706 141.932 222.425 142.769 224.438C143.606 226.45 143.825 228.667 143.4 230.805C143.129 232.225 142.577 233.577 141.778 234.783C140.978 235.988 139.946 237.021 138.743 237.824L107.102 259.093V265.174C107.103 265.806 106.98 266.433 106.739 267.018C106.498 267.603 106.143 268.135 105.697 268.583C105.249 269.031 104.719 269.387 104.135 269.63C103.55 269.873 102.924 269.999 102.291 270H102.284Z" fill="black"/>
<defs>
<linearGradient id="paint0_linear_404_195" x1="17.199" y1="180.299" x2="203.758" y2="-6.26077" gradientUnits="userSpaceOnUse">
<stop stop-color="#653695"/>
<stop offset="0.99" stop-color="#F04A23"/>
</linearGradient>
</defs>
</svg>
