<svg width="300" height="122" viewBox="0 0 300 122" fill="none" xmlns="http://www.w3.org/2000/svg"><path d="M277.8 83.4a2.5 2.5 0 0 0-2.2 2.5c-.3 3.7 0 7.4-.1 11-.1 1.9 0 3.7.2 5.4a2.8 2.8 0 0 0 3.3 1.7l16-2c.8 0 1.5-.3 2-.8 1-.8.8-2.2 1-3.3V86.8c0-1.3-.1-2.7-.4-4a2.7 2.7 0 0 0-2.8-1.5l-17 2M82.7 64.5c-.8 0-1.5.3-2 .8a3 3 0 0 0-.8 2.3v13.3c-1.7.3-3.3.5-5 .6v-11c.1-1.2 0-2.5-.6-3.6a3.1 3.1 0 0 0-3.2-1l-15.6 2c-1-.1-2 .2-2.8.9-1 .8-.8 2.1-.9 3.2v45c0 1.4.1 2.7.7 3.9.4.4 1 .7 1.6.8 1.4 0 2.8 0 4.1-.3l13.4-1.7a3.3 3.3 0 0 0 2.6-1c.6-1 .8-2 .7-3.1v-13.3l5-.6v13.1c-.1 1 .1 1.8.6 2.5a2.9 2.9 0 0 0 3 1l15.9-2c1 0 1.8-.3 2.6-.8a3 3 0 0 0 .8-2.4V65.8a3.2 3.2 0 0 0-1-2.9c-.9-.7-2.1-.4-3.2-.4l-15.9 2M138.9 57.6c-1 .2-1.6 1.2-2 2L128 75.5c-.2-4.5 0-9-.1-13.4a2.7 2.7 0 0 0-1.9-2.7 22 22 0 0 0-4.7.3l-13 1.6a3 3 0 0 0-2.3 1.2c-.3.6-.5 1.3-.4 2V113.3a2.5 2.5 0 0 0 2 2c1.9 0 3.9-.2 5.8-.6l12.1-1.4a3 3 0 0 0 2.5-1.5l9-16.3v12.3a4 4 0 0 0 .6 2.6 2.3 2.3 0 0 0 2.5 1c2.6-.2 5.3-.6 8-1l9.2-1a2.4 2.4 0 0 0 2-2.5v-48c0-1-.1-2.2-1-2.8-1-.5-2.2-.6-3.3-.4-5.4.8-11 1.4-16.4 2.1M193.7 50.9c-1.4 0-3.1.7-3.2 2.3v31.2l-5.2.7V55.8a3.2 3.2 0 0 0-1.2-3 4 4 0 0 0-2.8-.4l-14.2 1.8c-1.3 0-2.6.3-3.8.8a3.1 3.1 0 0 0-.9 2.6V105c0 .8 0 1.6.5 2.3.4.5 1 .9 1.7 1 1.5 0 3-.2 4.4-.4l14.2-1.8c2.4-.2 4.8-.6 7.3-.7v7.2a2.7 2.7 0 0 0 3.1 2l6-.8c2.3-.3 4.5-.4 6.7-.8 1.2-.3 1.6-1.5 2-2.5l8.4-24.5a3.4 3.4 0 0 0-.1-3.2c-.7-1.2-2.1-1.2-3.3-1.3V53c0-1.3 0-2.8-1-3.6-1-.5-2.2-.7-3.3-.4L193.6 51M234.5 45.9A2.8 2.8 0 0 0 232 48a48161 48161 0 0 1-17.1 50 2.8 2.8 0 0 0 .6 3 3.4 3.4 0 0 0 3 .7l18.4-2.3a2.7 2.7 0 0 0 2-2l1-4.3 8.7-1.2c.4 1.5.8 3 1.4 4.4a3 3 0 0 0 3.2 1.1l14.3-1.8c1.5-.2 3-.2 4.5-.5a2.7 2.7 0 0 0 1.6-3.3c-.3-1.2-.8-2.4-1.3-3.7l-15.5-42.4a3 3 0 0 0-1-1.7 3.7 3.7 0 0 0-3.1-.4l-18.2 2.2M276.6 40.6a3.4 3.4 0 0 0-2.8 1.4c-.7 1.7-.1 3.5 0 5.2l2.7 29.4c0 1 .2 1.8.6 2.6a3.7 3.7 0 0 0 3.5 1c4-.6 8.1-1 12.1-1.5 1.1 0 2.2-.4 3.2-.9.7-.8 1-1.9 1-3l2-21.6c.3-3.9.6-7.8 1.1-11.6v-1.2c-.4-.8-.9-1.8-1.9-2-2-.1-3.9 0-5.8.4l-15.7 1.9M2.7 17.5a3 3 0 0 0-2.2 1.1c-.4.7-.6 1.5-.5 2.2v46.5c.1 1-.1 2.1.5 3a2.3 2.3 0 0 0 1.5 1c2 0 4-.2 5.9-.5l11.9-1.5c.7 0 1.5-.2 2-.7C23 68 23 66.4 23 65.3V35.8l5-.6V65a2.7 2.7 0 0 0 2.2 2.9c1.3 0 2.6-.1 3.9-.4L47.5 66c.6 0 1.2-.1 1.8-.4a2.3 2.3 0 0 0 1.5-2.1V14.6a2.5 2.5 0 0 0-3-2.6l-7.2.9-37.8 4.6M78.5 8.2c-6 .6-12 2.5-16.6 6.6a19.5 19.5 0 0 0-6 14.4 16 16 0 0 0 2.4 9.5c1.3 1.9 3 3.4 5.2 4.2L52.8 60.5a3 3 0 0 0 .1 3.4 2.8 2.8 0 0 0 2.8 1l18.6-2.3a3 3 0 0 0 2.6-1.4c1.1-2 2.1-4.3 3.3-6.4v4.3a2.6 2.6 0 0 0 2.4 2.3l2.1-.1 14.8-1.8c1 0 1.8-.4 2.6-.9a3.3 3.3 0 0 0 .7-2.4V13.4l-.1-5.9a2.4 2.4 0 0 0-2.4-2l-5.1.6-16.7 2M144.6 0h1a2.9 2.9 0 0 1 2.3 2.6v11.9c.1 1.6 0 3.3-.1 5-.2 1.2-1.6 1.7-2.7 1.9-2.3.4-4.6.5-7 .9v24.2c0 2.2.2 4.4 0 6.6a2.8 2.8 0 0 1-2.8 2l-11 1.4a34 34 0 0 1-7.1.5 2.3 2.3 0 0 1-1.5-1.1 9.8 9.8 0 0 1-.4-3.5V25.1l-6 .7c-1 0-2.2.1-3-.8-.7-.8-.6-2-.6-3V8c0-.9-.1-2 .6-2.5.9-1.1 2.4-1 3.6-1.2L144.6 0" fill="#E2002E"/></svg>