<svg width="259" height="300" viewBox="0 0 259 300" fill="none" xmlns="http://www.w3.org/2000/svg">
<path d="M101.159 2.1904C120.481 1.457 139.805 0.7624 159.127 0C159.048 5.7253 158.849 11.4477 158.72 17.1731C158.17 30.0645 157.458 42.9482 156.776 55.8347C157.992 55.3864 159.145 54.7552 160.393 54.4013C171.35 53.7647 182.297 52.8839 193.271 52.5908C192.658 63.3179 191.455 74.0004 190.629 84.712C200.712 90.105 209.797 97.279 217.616 105.608C223.812 112.172 229.221 119.451 233.992 127.105C235.422 124.862 237.584 122.881 240.304 122.48C243.82 121.922 247.248 123.77 249.648 126.22C251.922 128.538 253.568 131.533 254.081 134.756C254.356 136.244 254.165 137.756 254.115 139.255C253.948 143.086 253.707 146.914 253.51 150.745C255.252 151.439 256.872 152.611 257.763 154.3C259.408 157.316 259.065 160.971 258.229 164.181C257.388 167.019 256.258 169.938 254.105 172.047C255.902 172.571 257.251 174.138 257.637 175.954C258.373 179.164 257.671 182.47 257.037 185.638C255.75 190.978 255.184 196.452 254.238 201.857C253.68 205.389 252.967 208.896 252.315 212.411C252.837 218.758 252.693 225.135 252.745 231.5C252.9 234.461 252.745 237.566 251.443 240.283C250.407 242.442 248.385 244.036 246.1 244.704C242.673 245.696 239.143 246.276 235.7 247.209C224.407 263.517 209.152 277.076 191.557 286.255C176.842 293.97 160.515 298.599 143.937 299.713C137.895 300.145 131.832 300.03 125.784 299.757C113.729 299.186 101.66 297.371 90.204 293.49C79.118 289.798 68.731 284.138 59.414 277.11C56.461 277.239 53.508 277.045 50.5576 276.938C46.6299 276.713 42.6447 276.621 38.835 275.549C36.3979 274.811 33.9454 273.99 31.81 272.565C27.4945 269.776 24.494 265.304 22.8384 260.501C21.8375 257.915 21.6252 255.127 21.0879 252.428C19.039 240.707 16.9769 228.99 14.9934 217.256C11.0815 216.099 7.46012 213.84 4.90832 210.635C1.56512 206.516 -0.156776 201.15 0.0112243 195.863C0.0501243 192.994 0.687224 190.056 2.25382 187.619C3.24192 186.089 4.74562 184.852 6.53542 184.412C3.49852 182.261 2.30102 178.469 1.52292 175C-0.523576 164.267 2.28532 152.801 8.66292 143.982C13.615 137.072 20.7655 131.942 28.5873 128.737C30.209 124.891 32.1192 121.141 34.5928 117.764C37.328 114.025 40.559 110.684 43.7975 107.385C41.1406 103.683 38.0436 100.321 35.0907 96.857C28.168 88.925 21.114 81.109 14.0687 73.2905C20.5904 64.0936 27.1406 54.9146 33.6491 45.7098C52.7456 42.605 71.852 39.5731 90.915 36.2667C87.975 31.351 85.258 26.2966 82.952 21.0482C89.057 14.7988 95.039 8.4216 101.159 2.1904Z" fill="#DE001C"/>
<path d="M102.599 8.0738C120.157 7.3507 137.715 6.6251 155.274 5.9541C154.298 19.2517 153.932 32.5811 153.256 45.8944C152.986 51.722 152.675 57.5437 152.412 63.3713C155.169 61.925 157.875 60.3604 160.666 58.9875C170.332 58.5342 179.985 57.8036 189.659 57.5019C188.768 67.1181 187.416 76.6874 186.457 86.2984C195.643 91.2614 204.152 97.4764 211.674 104.718C221.458 114.196 229.347 125.583 235.08 137.927C235.389 137.733 235.701 137.544 236.018 137.356C236.354 134.896 235.966 132.218 237.282 129.988C238.141 128.392 239.82 127.305 241.623 127.147C243.745 126.907 245.896 127.782 247.416 129.249C249.628 131.309 250.44 134.489 250.309 137.427C249.88 142.921 249.379 148.413 248.771 153.89C249.636 153.358 250.752 152.962 251.708 153.52C253.341 154.474 253.935 156.387 254.774 157.964C255.343 159.518 255.102 161.237 254.844 162.83C254.248 165.621 253.267 168.4 251.533 170.696C251.053 171.38 250.335 171.828 249.618 172.226C250.744 172.747 251.968 173.232 252.769 174.233C253.943 175.632 254.155 177.571 253.957 179.324C251.897 190.675 250.113 202.081 248.032 213.429C248.231 219.623 248.491 225.823 248.462 232.022C248.318 233.846 248.562 235.719 248.137 237.515C247.22 240.095 244.704 241.827 242.134 242.5C232.667 245.152 223.127 247.555 213.579 249.889C208.92 257.072 203.346 263.709 196.83 269.29C189.575 275.508 181.437 280.649 172.879 284.878C170.178 286.149 167.332 287.399 164.287 287.385C163.616 287.367 162.791 287.382 162.367 286.767C162.118 285.79 162.969 285.076 163.634 284.529C166.706 282.087 168.697 278.568 170.107 274.963C171.094 272.36 172.038 269.675 172.156 266.866C172.214 264.154 170.324 261.628 167.811 260.703C166.045 259.954 164.083 260.048 162.23 260.334C126.954 266.384 91.329 270.595 55.556 272.033C52.4139 272.138 49.2723 272.276 46.1306 272.31C40.9608 272.398 35.9222 270.154 32.1857 266.652C29.8512 264.366 28.1612 261.492 27.0267 258.445C25.9915 255.648 25.1553 252.771 24.6396 249.832C23.3217 242.868 22.1085 235.882 21.0025 228.878C20.3841 224.801 19.6949 220.7 19.7736 216.568C19.7947 215.512 20.3924 214.619 21.0679 213.859C18.055 214.155 14.9158 213.49 12.4034 211.765C8.96001 209.426 6.70911 205.71 5.28651 201.872C4.22271 198.824 3.60431 195.483 4.33031 192.289C4.74421 190.413 5.83911 188.597 7.59741 187.714C9.43971 186.763 11.5962 186.836 13.5818 187.195C10.359 185.922 8.06141 183.011 6.85071 179.84C5.01411 175.051 4.83821 169.782 5.44381 164.735C6.02781 160.058 7.38541 155.449 9.70131 151.33C12.2515 146.521 15.6203 142.096 19.8969 138.7C26.3449 133.525 34.5596 131.065 42.6955 130.331C44.8756 130.181 47.1104 129.797 49.2565 130.394C50.0136 127.708 50.538 124.923 51.8584 122.434C53.3493 119.583 55.074 116.857 56.847 114.174C50.6614 106.916 44.2415 99.8584 37.945 92.6944C32.1336 86.0884 26.2245 79.5644 20.5911 72.8041C23.9401 68.1007 27.1368 63.2901 30.4382 58.5529C32.2172 56.006 33.9387 53.4145 35.875 50.9831C49.0496 48.9053 62.255 47.0103 75.448 45.0454C82.785 43.9237 90.14 42.8943 97.445 41.576C94.555 35.0568 91.659 28.5404 88.754 22.0266C90.578 20.3655 92.427 18.7306 94.28 17.1005C97.456 14.4883 99.89 11.1368 102.599 8.0738Z" fill="black"/>
<path d="M37.6463 209.704C39.9444 209.665 42.3364 209.122 44.5554 209.969C48.2923 211.324 50.5771 215.076 51.4683 218.785C51.8925 221.545 52.2382 224.317 52.6467 227.082C52.8512 228.171 52.2936 229.592 51.0883 229.783C49.0911 230.003 47.0919 230.202 45.0927 230.396C44.1705 230.587 43.5235 229.668 43.3898 228.868C42.9105 226.175 42.5012 223.47 42.0508 220.774C41.8782 219.8 41.0686 219.006 40.0934 218.836C39.4096 218.747 38.7072 218.747 38.0234 218.838C36.5772 219.053 35.6367 220.649 35.8855 222.037C37.5544 232.531 39.4489 242.988 41.5947 253.394C41.7809 254.458 42.3757 255.477 43.3215 256.033C44.1813 256.554 45.2318 256.336 46.1854 256.425C47.5013 256.42 48.4574 255.023 48.135 253.774C47.6135 251.337 46.9872 248.924 46.5025 246.479C46.3374 245.551 46.678 244.299 47.7157 244.065C49.6309 243.9 51.5548 243.807 53.4725 243.676C54.193 243.579 54.966 243.95 55.228 244.653C56.475 247.758 57.175 251.046 57.754 254.331C58.194 257.08 57.502 260.089 55.55 262.135C54.109 263.733 51.9708 264.689 49.8143 264.645C47.2575 264.663 44.5794 265.039 42.1531 264.019C38.5867 262.582 36.0031 259.404 34.4546 255.972C33.2965 253.533 32.909 250.839 32.3064 248.232C30.4458 239.572 28.8973 230.834 27.9801 222.019C27.6212 218.503 28.8344 214.772 31.4467 212.34C33.1081 210.75 35.3561 209.819 37.6463 209.704ZM68.203 213.995C66.728 214.352 65.549 215.804 65.688 217.345C67.412 228.63 69.338 239.882 71.439 251.101C71.614 252.366 72.191 253.672 73.341 254.337C74.382 255.007 75.666 254.688 76.827 254.677C77.927 254.665 79.101 254.096 79.515 253.024C79.947 252.018 79.685 250.907 79.486 249.88C77.447 238.97 75.566 228.03 73.855 217.061C73.74 215.977 73.208 214.882 72.228 214.334C71.028 213.558 69.529 213.71 68.203 213.995ZM70.127 203.657C73.873 203.177 77.864 204.071 80.875 206.408C83.409 208.352 85.104 211.32 85.581 214.47C87.37 226.096 89.299 237.696 91.39 249.269C91.848 252.553 91.293 256.054 89.466 258.86C88.044 261.089 85.759 262.745 83.196 263.408C81.627 263.846 79.984 263.815 78.37 263.869C76.19 263.937 73.965 264.157 71.835 263.566C66.06 262.114 61.786 256.865 60.608 251.156C58.632 240.921 56.876 230.645 55.264 220.345C54.607 216.412 55.506 212.188 57.887 208.968C59.685 206.515 62.455 204.762 65.473 204.306C67.022 204.078 68.576 203.871 70.127 203.657ZM130.748 195.355C132.886 195.078 135.022 194.776 137.157 194.467C140.034 215.107 142.869 235.751 145.843 256.379C141.538 256.981 137.233 257.57 132.92 258.091C131.493 249.199 130.056 240.305 128.668 231.408C126.239 237.258 123.838 243.123 121.355 248.95C120.524 249.034 119.696 249.138 118.873 249.285C114.657 244.176 110.486 239.027 106.38 233.829C107.811 242.753 109.375 251.659 110.963 260.557C106.831 260.935 102.689 261.233 98.551 261.535C96.114 248.952 93.821 236.344 91.822 223.685C90.635 216.267 89.579 208.823 88.848 201.348L88.95 201.227C90.926 200.914 92.912 200.675 94.888 200.363C102.056 209.822 109.336 219.203 116.722 228.494C121.384 217.442 126.071 206.4 130.748 195.355ZM143.584 193.54C155.122 192.064 166.648 190.532 178.166 188.939C178.764 192.395 179.275 195.864 179.854 199.325C172.709 200.297 165.556 201.191 158.402 202.105C159.164 207.269 159.956 212.431 160.671 217.601C167.253 216.642 173.827 215.628 180.394 214.586C180.816 218.046 181.203 221.513 181.612 224.98C175.159 225.989 168.699 226.966 162.241 227.93C162.888 233.291 163.506 238.655 164.13 244.018C171.556 242.836 178.974 241.59 186.378 240.271C186.782 243.502 187.183 246.733 187.55 249.969C175.834 251.994 164.088 253.855 152.305 255.448C149.404 234.811 146.475 214.177 143.584 193.54ZM197.111 196.93C198.927 210.414 200.517 223.926 201.945 237.455C203.572 237.227 205.181 236.897 206.805 236.632C207.634 236.506 208.482 236.253 209.103 235.66C210.075 234.748 210.351 233.317 210.248 232.039C209.03 221.175 207.686 210.322 206.198 199.493C205.967 197.745 204.458 196.183 202.639 196.221C200.79 196.409 198.955 196.708 197.111 196.93ZM183.357 188.315C189.824 187.645 196.288 186.97 202.749 186.274C205.75 185.899 208.88 186.633 211.375 188.349C214.477 190.468 216.592 193.857 217.509 197.467C218.783 207.228 219.883 217.014 220.882 226.806C221.078 229.159 221.568 231.541 221.072 233.893C220.315 238.43 217.022 242.257 212.937 244.225C210.694 245.42 208.166 245.834 205.718 246.403C200.816 247.506 195.903 248.568 190.985 249.604C188.731 229.138 186.192 208.706 183.357 188.315ZM237.145 182.899C240.321 182.752 243.496 182.614 246.672 182.43C244.972 192.533 243.119 202.614 241.052 212.652C240.926 213.322 240.698 213.993 240.767 214.69C241.277 222.402 241.654 230.12 241.94 237.843C238.951 238.597 235.961 239.346 232.968 240.088C232.588 232.846 232.148 225.606 231.614 218.371C231.538 217.774 231.609 217.138 231.336 216.59C226.093 205.962 220.777 195.372 215.282 184.875C219.1 184.521 222.93 184.288 226.748 183.921C229.465 189.615 232.153 195.324 234.745 201.078C235.628 195.031 236.377 188.963 237.145 182.899ZM134.87 137.443C137.029 137.344 139.188 137.233 141.347 137.092C141.609 138.897 141.834 140.708 142.101 142.513C140.029 142.778 137.956 143.048 135.881 143.313C135.554 141.355 135.179 139.403 134.87 137.443ZM144.667 136.916C146.687 136.84 148.705 136.691 150.727 136.615C150.911 138.221 151.113 139.822 151.327 141.426C149.331 141.614 147.347 141.95 145.348 142.06C145.152 140.341 144.89 138.63 144.667 136.916ZM162.406 136.987C167.07 136.586 171.742 136.238 176.405 135.848C176.274 136.998 176.139 138.145 176.012 139.298C171.448 139.644 166.889 140.05 162.335 140.511C162.325 139.335 162.443 138.164 162.406 136.987ZM39.5379 134.938C44.8203 134.215 50.5274 134.008 55.427 136.445C58.734 138.114 61.836 140.572 63.411 144.007C65.143 147.489 65.274 151.548 64.42 155.289C63.303 160.996 60.44 166.507 55.888 170.212C52.4584 173.034 48.342 174.871 44.1444 176.23C43.4999 182.074 42.2396 187.862 40.2453 193.396C38.7337 197.276 36.7841 201.044 34.0171 204.186C31.2687 207.173 27.6266 209.492 23.5628 210.102C19.6161 210.684 15.5286 208.975 12.9193 206.015C11.1477 203.871 10.1237 201.204 9.54169 198.51C9.14849 196.687 8.86869 194.753 9.42869 192.934C9.77759 191.895 10.6001 190.817 11.7897 190.778C12.9793 190.686 14.0352 191.506 14.5961 192.497C15.3428 194.04 15.2616 195.851 14.8005 197.467C14.2372 199.401 14.1374 201.571 14.9918 203.436C15.8643 205.124 17.8085 205.955 19.6347 206.006C21.6575 205.999 23.7329 205.451 25.3182 204.149C28.3183 201.825 29.8013 198.178 31.0224 194.703C33.0005 188.459 34.0804 181.985 35.33 175.567C36.4464 169.855 37.3057 164.028 39.4907 158.599C41.2702 154.16 44.1258 149.934 48.3291 147.484C46.6652 151.946 45.4259 156.571 44.8597 161.306C44.4222 164.56 44.2914 167.846 44.1601 171.123C47.6631 169.934 50.5796 167.317 52.3644 164.099C54.282 160.682 55.178 156.783 55.516 152.908C55.823 149.701 55.393 146.297 53.7005 143.503C52.7597 141.824 51.0564 140.747 49.33 140.016C45.8949 138.651 42.0951 138.981 38.5267 139.544C33.3912 140.391 28.6403 143.022 24.9564 146.664C19.5771 152.541 16.7025 160.284 15.4421 168.053C14.8792 170.977 14.8688 174.111 16.0448 176.893C16.8337 178.877 18.8222 180.404 20.9998 180.389C22.2627 180.269 23.5441 179.98 24.6394 179.312C25.5251 178.774 26.2089 177.826 26.2743 176.778C25.7553 174.771 25.2371 172.473 26.3559 170.574C27.3356 169.035 29.851 169.088 30.8233 170.61C32.1963 172.447 31.6093 174.907 31.1089 176.954C30.2889 180.18 27.6055 182.568 24.6261 183.829C23.2192 184.387 21.7337 185.089 20.1827 184.77C17.3213 184.392 14.8163 182.564 13.2728 180.171C11.3994 177.37 10.6498 173.99 10.2284 170.694C9.6675 165.94 10.9643 161.188 12.8299 156.851C14.9289 152.182 17.7087 147.722 21.5474 144.279C26.4896 139.568 32.6574 135.785 39.5379 134.938ZM64.593 176.844C63.01 179.773 61.291 183.064 62.051 186.497C63.209 187.23 64.732 186.67 65.557 185.687C67.113 183.881 67.834 181.563 68.644 179.367C69.27 177.509 70.512 175.958 71.321 174.186C72.018 172.761 72.639 171.001 71.79 169.502C68.313 170.558 66.249 173.836 64.593 176.844ZM110.392 165.231C108.298 167.408 107.206 170.277 105.654 172.821C104.344 175.124 103 177.821 103.844 180.525C105.384 181.078 107.135 180.522 108.149 179.262C110.549 176.429 110.932 172.57 112.661 169.381C113.575 167.46 114.705 165.267 113.913 163.113C112.566 163.468 111.353 164.233 110.392 165.231ZM179.021 152.908C177.635 153.974 176.916 155.635 176.214 157.187C175.289 159.467 174.527 161.809 173.764 164.148C172.779 167.303 172.079 170.791 173.262 173.996C174.658 174.527 176.133 173.777 177.003 172.677C178.814 170.458 179.671 167.667 180.598 165.005C181.455 162.385 182.652 159.826 182.867 157.04C182.985 155.57 182.634 153.974 181.573 152.897C180.936 152.127 179.726 152.35 179.021 152.908ZM240.761 134.862C240.801 133.746 241.731 132.559 242.933 132.703C244.049 132.737 244.788 133.788 244.995 134.8C245.543 137.084 244.484 139.361 244.77 141.657C244.841 142.66 246.088 142.76 246.452 143.59C246.806 144.361 246.79 145.561 245.902 145.956C245.292 146.192 244.629 146.202 243.992 146.295C242.632 151.988 241.927 157.808 240.937 163.572C240.879 164.673 240.698 165.883 241.207 166.907C241.788 167.864 243.143 167.629 243.885 167C245.184 165.951 245.609 164.266 246.222 162.788C246.436 162.223 246.937 161.497 247.647 161.772C248.388 162.404 248.305 163.514 248.069 164.369C247.401 166.481 246.785 168.737 245.226 170.39C244.094 171.619 242.375 172.525 240.672 172.109C238.314 171.575 236.597 169.62 235.473 167.584C233.561 168.955 231.609 170.408 229.292 171.003C228.325 171.299 227.248 170.961 226.562 170.241C225.443 169.09 224.966 167.413 225.137 165.839C225.328 163.504 226.384 161.374 226.897 159.11C227.563 156.368 228.962 153.67 228.504 150.775C228.493 150.141 227.775 149.651 227.194 149.934C226.088 150.437 225.26 151.406 224.618 152.412C221.599 158.114 220.57 164.557 218.701 170.667C218.319 171.803 217.732 173.209 216.398 173.422C214.737 173.597 213.694 171.989 212.2 171.603C211.242 171.286 210.45 172.124 209.813 172.719C208.978 173.508 208.008 174.621 206.724 174.309C205.032 174.03 204.044 172.462 202.613 171.687C201.634 172.313 201.081 173.372 200.218 174.127C198.703 175.529 196.791 176.587 194.716 176.794C193.259 176.789 192.048 175.822 191.024 174.891C189.546 173.34 189.525 171.005 189.921 169.03C190.534 166.234 191.54 163.543 192.237 160.768C192.468 159.807 192.583 158.392 191.488 157.92C190.128 157.975 189.52 159.406 189.247 160.54C188.126 165.304 186.307 170.015 183.198 173.849C181.528 175.85 179.558 177.638 177.262 178.895C175.214 179.962 172.873 180.656 170.55 180.321C169.58 180.163 168.547 179.948 167.83 179.228C166.947 178.466 166.103 177.365 164.827 177.378C162.34 177.876 160.708 179.998 158.609 181.235C156.843 182.137 154.676 182.441 152.808 181.678C151.351 181.141 150.554 179.53 150.544 178.044C150.52 175.814 151.147 173.644 151.679 171.498C152.444 168.875 153.004 166.202 153.497 163.52C153.672 162.514 154.209 161.308 153.345 160.462C152.299 159.427 150.761 160.619 150.387 161.735C148.605 167.629 147.056 173.6 144.939 179.386C144.067 181.597 142.162 183.594 139.722 183.918C137.564 183.69 135.983 181.411 136.298 179.309C136.468 177.968 137.034 176.728 137.429 175.444C138.779 171.134 139.77 166.724 140.789 162.325C140.962 161.872 140.794 161.185 140.212 161.196C138.695 161.319 137.391 162.453 136.662 163.73C134.463 169.428 132.546 175.23 130.667 181.039C130.392 182.399 129.891 183.85 128.673 184.641C126.983 185.862 124.509 185.069 123.367 183.463C120.511 183.923 119.007 187.044 116.13 187.417C113.845 187.73 111.717 185.944 111.188 183.784C109.461 185.973 107.324 188.124 104.512 188.768C102.756 189.156 100.815 189.674 99.13 188.756C97.296 188.048 96.106 186.237 95.862 184.335C95.443 180.383 96.473 176.443 97.962 172.811C97.081 172.955 96.104 173.08 95.302 172.597C94.256 172.017 93.758 170.854 93.35 169.795C92.758 170.285 91.911 170.581 91.631 171.354C89.283 176.665 87.339 182.142 85.319 187.584C84.983 188.663 84.658 189.803 83.843 190.634C83.026 191.564 81.512 191.936 80.456 191.192C79.594 190.548 79.337 189.408 79.316 188.388C78.195 189.284 77.029 190.128 75.952 191.08C74.764 192.047 73.24 192.89 71.66 192.591C70.059 192.064 70.069 189.869 68.526 189.256C67.541 190.078 67.331 191.431 66.44 192.326C65.096 193.807 63.015 194.384 61.066 194.292C59.523 194.295 57.963 193.5 57.172 192.156C55.437 188.925 55.074 184.99 56.184 181.497C57.518 177.679 59.813 174.299 62.232 171.095C64.755 167.604 68.392 165.026 72.359 163.418C74.096 162.699 75.972 161.759 77.898 162.27C78.802 162.679 79.277 163.716 79.389 164.663C79.628 167.296 78.6 169.803 77.731 172.232C76.606 174.989 76.125 177.944 75.42 180.824C75.165 181.77 75.215 182.868 75.985 183.572C78.579 182.608 80.463 180.394 81.666 177.97C83.786 173.752 84.42 169.001 86.11 164.623C86.904 162.749 88.377 160.569 90.672 160.682C92.221 160.926 92.972 162.556 93.166 163.955C94.56 162.747 95.637 161.235 96.986 159.985C97.807 159.225 98.905 158.593 100.063 158.8C101.126 158.926 101.737 160.071 101.703 161.057C101.747 162.349 101.176 163.533 100.789 164.733C100.61 165.16 100.744 165.608 100.898 166.019C102.002 166.082 102.874 165.288 103.542 164.505C106.838 160.577 111.196 157.386 116.211 156.102C118.032 155.601 120.139 155.3 121.834 156.34C123.158 157.121 123.393 158.832 123.438 160.229C123.432 164.204 121.336 167.717 120.128 171.399C119.523 173.403 118.855 175.432 118.771 177.541C118.69 178.153 119.052 178.895 119.754 178.895C121.629 178.172 123.519 176.909 124.19 174.915C126.367 168.972 128.249 162.927 130.373 156.967C131.031 155.179 132.491 153.676 134.306 153.07C134.904 152.892 135.582 152.753 136.174 153.044C137.618 153.71 138.289 155.517 139.927 155.842C141.376 155.746 141.74 154.105 142.709 153.314C144.022 152.329 145.652 151.611 147.324 151.779C148.259 151.846 149.095 152.407 149.645 153.149C150.363 154.063 151.518 154.913 152.74 154.587C154.016 154.121 154.509 152.685 155.622 151.996C156.875 151.192 158.344 150.579 159.864 150.728C161.609 150.798 163.124 152.163 163.58 153.814C164.015 155.4 163.716 157.063 163.341 158.631C162.105 163.63 160.637 168.569 159.505 173.592C160.991 174.124 162.125 172.706 162.83 171.606C163.941 170.131 164.258 168.286 164.869 166.586C166.082 162.611 167.368 158.593 169.635 155.075C171.482 152.002 174.202 149.42 177.501 147.971C179.026 147.337 180.671 146.75 182.351 147.007C184.662 147.232 186.978 148.629 187.843 150.856C188.249 151.799 188.705 152.929 189.751 153.311C190.731 153.495 191.697 153.036 192.47 152.468C194.503 150.904 194.797 147.919 197.032 146.551C198.093 145.833 199.7 146.074 200.412 147.167C201.081 148.236 201.337 149.585 201.038 150.817C200.624 152.895 200.237 154.975 199.807 157.05C199.17 160.027 198.229 162.951 197.949 165.991C197.889 166.748 198.227 167.815 199.141 167.817C200.189 167.691 200.97 166.821 201.536 165.995C204.717 160.74 205.655 154.577 207.047 148.694C207.4 147.036 208.904 145.652 210.631 145.626C212.161 145.726 213.479 147.209 213.228 148.765C212.279 153.68 210.6 158.426 209.643 163.339C209.483 164.224 209.269 165.173 209.599 166.045C209.811 166.656 210.579 167.015 211.171 166.696C212.26 166.223 212.638 164.992 213.128 164.01C215.68 158.895 217.129 153.338 218.688 147.864C218.945 147.015 219.084 146.09 219.65 145.374C220.381 144.381 221.875 143.871 222.983 144.533C223.635 144.908 223.968 145.618 224.167 146.318C224.765 146.52 225.469 146.575 225.991 146.145C227.023 145.288 227.812 144.062 229.151 143.64C230.621 143.26 232.4 143.627 233.351 144.89C234.258 146.226 234.189 147.924 234.095 149.47C233.763 153.081 233.223 156.676 232.437 160.218C232.085 161.682 231.292 163.147 231.711 164.688C232.607 164.72 233.141 163.899 233.726 163.35C234.407 162.681 234.866 161.838 235.314 161.004C237.937 156.655 237.963 151.411 238.615 146.522C237.73 146.066 236.699 145.359 236.747 144.237C236.671 143.614 237.198 143.152 237.719 142.933C238.322 142.817 238.964 142.917 239.543 142.663C240.638 140.213 240.622 137.488 240.761 134.862ZM132.865 126.037C135.184 125.964 137.498 125.754 139.817 125.707C140.116 127.885 140.435 130.059 140.744 132.237C138.507 132.331 136.277 132.517 134.042 132.601C133.698 130.405 133.251 128.225 132.865 126.037ZM143.142 125.516C145.272 125.367 147.405 125.282 149.538 125.157C149.753 127.387 150.028 129.611 150.242 131.841C148.188 131.98 146.137 132.103 144.08 132.203C143.752 129.975 143.456 127.743 143.142 125.516ZM162.772 123.64C167.861 123.257 172.95 122.849 178.035 122.411C177.797 124.837 177.464 127.256 177.233 129.684C172.365 130.188 167.481 130.547 162.61 131.026C162.605 128.563 162.699 126.1 162.772 123.64ZM130.688 113.398C133.174 113.298 135.658 113.145 138.145 113.007C138.467 115.485 138.797 117.962 139.109 120.443C136.73 120.59 134.351 120.723 131.972 120.868C131.542 118.378 131.094 115.892 130.688 113.398ZM141.502 112.813C143.859 112.734 146.215 112.569 148.576 112.454C148.78 114.919 148.898 117.393 149.116 119.859C146.894 119.992 144.672 120.103 142.455 120.262C142.135 117.778 141.798 115.299 141.502 112.813ZM163.058 109.388C168.598 108.93 174.139 108.479 179.683 108.052C179.408 110.47 179.136 112.891 178.856 115.31C173.547 115.797 168.238 116.245 162.93 116.741C162.925 114.288 163.087 111.841 163.058 109.388ZM128.39 100.032C131.073 99.8507 133.761 99.7507 136.444 99.5777C136.77 102.321 137.152 105.057 137.469 107.801C134.907 107.905 132.347 108.133 129.782 108.214C129.323 105.487 128.838 102.761 128.39 100.032ZM139.812 99.4257C142.51 99.2237 145.217 99.1477 147.919 98.9597C148.066 101.693 148.157 104.431 148.285 107.166C145.793 107.263 143.307 107.486 140.812 107.567C140.5 104.85 140.163 102.138 139.812 99.4257ZM163.391 95.1207C169.367 94.5917 175.352 94.1537 181.332 93.6537C181.056 96.0697 180.758 98.4797 180.517 100.896C174.765 101.449 169.006 101.923 163.252 102.455C163.284 100.011 163.404 97.5657 163.391 95.1207ZM125.733 85.1977C128.702 85.0297 131.676 84.8857 134.647 84.7137C134.956 87.5197 135.352 90.3177 135.619 93.1297C132.839 93.2527 130.059 93.4277 127.284 93.6147C126.766 90.8077 126.26 88.0017 125.733 85.1977ZM138.09 84.5067C141.26 84.4017 144.423 84.1707 147.591 84.0267C147.712 86.8197 147.677 89.6187 147.73 92.4137C144.829 92.5317 141.937 92.7707 139.038 92.8917C138.727 90.0957 138.399 87.3017 138.09 84.5067ZM163.771 80.8297C170.172 80.2767 176.581 79.8107 182.985 79.2577C182.665 81.6707 182.44 84.0977 182.136 86.5137C175.95 87.0767 169.761 87.6087 163.577 88.1747C163.666 85.7267 163.671 83.2767 163.771 80.8297ZM122.911 70.3621C126.262 70.2181 129.611 70.0215 132.962 69.8331C133.261 72.6312 133.57 75.4297 133.895 78.2257C130.769 78.4217 127.641 78.5947 124.512 78.7837C123.998 75.9727 123.461 73.166 122.911 70.3621ZM136.529 69.6365C140.265 69.461 144.001 69.2565 147.735 69.0392C147.651 71.8294 147.709 74.6226 147.591 77.4137C144.198 77.6467 140.802 77.8037 137.409 78.0337C137.065 75.2407 136.824 72.435 136.529 69.6365ZM164.109 65.8396C170.974 65.2212 177.847 64.7026 184.717 64.1471C184.376 66.7908 184.083 69.4424 183.802 72.0939C177.176 72.7438 170.536 73.2604 163.91 73.9048C163.996 71.2164 164.038 68.528 164.109 65.8396ZM40.5545 54.9581C42.8397 54.6121 45.1242 54.2768 47.4094 53.9465C60.11 70.0479 71.749 87.0187 81.771 104.923C89.626 118.971 96.452 133.625 101.643 148.87C100.223 149.134 98.805 149.415 97.39 149.706C93.793 139.196 89.459 128.935 84.376 119.057C79.719 109.857 74.167 101.151 68.371 92.6347C59.588 79.7237 50.2733 67.1786 40.5545 54.9581ZM119.578 52.8095C123.432 52.6522 127.284 52.4345 131.133 52.1985C131.435 55.2069 131.736 58.2173 132.032 61.2278C128.453 61.4902 124.866 61.6475 121.284 61.8859C120.734 58.8568 120.034 55.8542 119.578 52.8095ZM51.7667 53.2938C54.138 52.956 56.504 52.5893 58.875 52.2511C70.912 69.4974 81.726 87.6117 90.997 106.493C97.537 119.838 103.33 133.565 108.007 147.675C106.98 147.845 105.963 148.055 104.939 148.228C97.959 128.592 88.733 109.802 78.1 91.8957C70.132 78.5007 61.322 65.6091 51.7667 53.2938ZM135.006 52.0259C139.439 51.7403 143.883 51.5673 148.32 51.2788C148.167 54.2896 148.133 57.3055 147.984 60.3163C143.902 60.5493 139.819 60.7774 135.739 61.0419C135.472 58.0393 135.218 55.0339 135.006 52.0259ZM63.401 51.5673C66.207 51.1898 69.003 50.7237 71.812 50.357C82.004 67.8678 91.552 85.7797 99.67 104.355C105.646 118.038 110.853 132.079 114.77 146.496C113.68 146.672 112.592 146.874 111.503 147.041C104.805 126.789 95.931 107.305 85.811 88.5437C78.941 75.8677 71.453 63.5287 63.401 51.5673ZM75.86 49.7568C78.752 49.2953 81.653 48.8843 84.551 48.4625C94.508 68.1746 103.653 88.3347 111.002 109.173C115.176 121.043 118.795 133.12 121.535 145.403C120.409 145.574 119.282 145.752 118.158 145.938C112.011 124.248 103.629 103.228 93.798 82.9547C88.277 71.6515 82.324 60.5522 75.86 49.7568ZM88.214 47.9095C91.285 47.4691 94.353 47.0055 97.424 46.5548C105.646 67.2416 112.438 88.4627 118.779 109.792C122.146 121.274 125.435 132.782 128.414 144.369C127.402 144.505 126.396 144.665 125.387 144.801C120.411 124.939 113.976 105.447 106.262 86.4847C100.901 73.3336 94.906 60.4368 88.214 47.9095ZM115.907 34.3971C120.44 34.1401 124.976 33.9199 129.509 33.6554C129.779 36.975 130.059 40.2926 130.339 43.6122C126.186 43.8875 122.031 44.1101 117.878 44.3564C117.199 41.0418 116.565 37.7168 115.907 34.3971ZM133.84 33.417C138.842 33.1786 143.844 32.8983 148.846 32.6177C148.809 35.9348 148.676 39.2495 148.573 42.5642C143.841 42.808 139.115 43.1379 134.382 43.3738C134.186 40.0567 134.013 36.737 133.84 33.417ZM112.035 14.8788C117.438 14.6404 122.843 14.4413 128.246 14.2029C128.385 17.5618 128.647 20.9133 128.815 24.2723C123.899 24.5318 118.986 24.8567 114.073 25.1159C113.386 21.7048 112.724 18.2903 112.035 14.8788ZM133.387 14.0195C138.667 13.7546 143.954 13.587 149.236 13.3486C149.236 16.5924 149.247 19.8388 149.068 23.0802C143.883 23.3579 138.703 23.6907 133.52 23.9788C133.46 20.6592 133.381 17.3391 133.387 14.0195Z" fill="white"/>
</svg>
