<svg xmlns="http://www.w3.org/2000/svg" width="363" height="161" fill="none" viewBox="0 0 363 161"><path stroke="url(#paint0_linear_404_233)" stroke-width="2.916" d="M344.71 55.6377C330.794 50.6048 320.445 53.8008 312.763 60.8122L312.752 60.7701L312.558 60.3389C305.843 54.8753 300.277 54.8753 300.277 54.8753C285.718 54.1923 265.207 60.8835 265.207 60.8835C265.207 60.8835 257.581 47.8165 249.044 48.8412C240.507 49.8658 242.1 63.8666 242.1 63.8666C222.408 47.0206 172.274 59.2912 172.272 59.2912C172.623 59.163 172.964 59.0098 173.293 58.8299C183.878 53.025 186.952 46.7928 186.952 46.7928C189.171 47.4757 203.172 45.5121 204.111 33.5606C205.05 21.6087 195.062 15.8891 188.83 15.377C182.597 14.8649 177.561 18.1944 177.561 18.1944C174.573 3.5964 160.316 5.81564 160.316 5.81564C140.596 9.74297 148.279 26.9872 148.279 26.9872C139.401 35.0974 139.913 42.6951 139.913 42.6951C88.3773 -4.88475 30.0416 2.4004 30.0416 2.4004C13.9068 2.8273 1.18679 11.6205 2.0406 21.3522C2.89441 31.0844 13.7365 31.0844 13.7365 31.0844C24.6709 31.0844 25.3749 23.5724 25.3749 23.5724C48.7092 22.4338 62.8238 27.6701 62.8238 27.6701C58.4983 36.2068 57.1324 57.1519 57.1324 57.1519C57.1324 57.1519 21.8462 63.5258 23.2121 80.5987C24.578 97.6725 56.6777 113.837 56.6777 113.837C56.7916 117.024 60.3409 127.382 69.3121 127.382C78.2833 127.382 80.3001 121.918 80.3001 121.918C86.3117 123.944 98.0483 123.284 98.0483 123.284V130.314C99.0055 147.021 116.094 147.518 116.094 147.518H294.687C296.053 149.911 302.185 158.628 309.385 158.628C316.586 158.628 318.334 149.533 318.448 146.686C318.561 143.84 326.673 117 326.673 117L326.668 116.942C326.904 116.876 327.14 116.795 327.377 116.725C345.837 111.282 361.275 98.4803 361.275 80.6523C361.275 62.8242 344.71 55.6377 344.71 55.6377V55.6377Z"/><path fill="url(#paint1_linear_404_233)" d="M344.71 55.6377C330.794 50.6048 320.445 53.8008 312.763 60.8122L312.752 60.7701L312.558 60.3389C305.843 54.8753 300.277 54.8753 300.277 54.8753C285.718 54.1923 265.207 60.8835 265.207 60.8835C265.207 60.8835 257.581 47.8165 249.044 48.8412C240.507 49.8658 242.1 63.8666 242.1 63.8666C222.408 47.0206 172.274 59.2912 172.272 59.2912C172.623 59.163 172.964 59.0098 173.293 58.8299C183.878 53.025 186.952 46.7928 186.952 46.7928C189.171 47.4757 203.172 45.5121 204.111 33.5606C205.05 21.6087 195.062 15.8891 188.83 15.377C182.597 14.8649 177.561 18.1944 177.561 18.1944C174.573 3.5964 160.316 5.81564 160.316 5.81564C140.596 9.74297 148.279 26.9872 148.279 26.9872C139.401 35.0974 139.913 42.6951 139.913 42.6951C88.3773 -4.88475 30.0416 2.4004 30.0416 2.4004C13.9068 2.8273 1.18679 11.6205 2.0406 21.3522C2.89441 31.0844 13.7365 31.0844 13.7365 31.0844C24.6709 31.0844 25.3749 23.5724 25.3749 23.5724C48.7092 22.4338 62.8238 27.6701 62.8238 27.6701C58.4983 36.2068 57.1324 57.1519 57.1324 57.1519C57.1324 57.1519 21.8462 63.5258 23.2121 80.5987C24.578 97.6725 56.6777 113.837 56.6777 113.837C56.7916 117.024 60.3409 127.382 69.3121 127.382C78.2833 127.382 80.3001 121.918 80.3001 121.918C86.3117 123.944 98.0483 123.284 98.0483 123.284V130.314C99.0055 147.021 116.094 147.518 116.094 147.518H294.687C296.053 149.911 302.185 158.628 309.385 158.628C316.586 158.628 318.334 149.533 318.448 146.686C318.561 143.84 326.673 117 326.673 117L326.668 116.942C326.904 116.876 327.14 116.795 327.377 116.725C345.837 111.282 361.275 98.4803 361.275 80.6523C361.275 62.8242 344.71 55.6377 344.71 55.6377V55.6377Z"/><path fill="#175773" d="M210.105 119.845C208.836 119.85 207.87 120.725 207.783 121.972C207.715 122.953 207.662 123.936 207.615 124.918C207.397 129.282 207.086 133.643 207.09 138.017C207.09 138.171 207.062 138.326 207.022 138.743C206.733 138.457 206.581 138.34 206.472 138.197C206.185 137.815 205.926 137.412 205.633 137.035C204.174 135.139 202.711 133.244 201.238 131.357C199.915 129.661 198.599 127.954 197.234 126.285C196.71 125.64 196.107 125.038 195.468 124.499C194.008 123.272 191.568 124.392 191.53 125.985C191.521 126.257 191.426 126.53 191.417 126.802C191.347 128.572 191.23 130.342 191.241 132.113C191.27 136.366 191.36 140.616 191.431 144.868C191.439 145.298 191.458 145.736 191.537 146.16C191.678 146.917 192.157 147.426 192.906 147.694C193.768 148.002 194.522 147.772 195.168 147.21C195.797 146.661 196.133 145.972 196.106 145.119C196.037 142.756 195.995 140.396 195.944 138.032C195.906 136.419 195.868 134.807 195.842 133.193C195.84 133.015 195.768 132.795 196.037 132.645C196.42 132.795 196.598 133.165 196.832 133.465C198.856 136.034 200.859 138.619 202.889 141.185C203.632 142.123 204.411 143.035 205.216 143.922C205.615 144.361 206.073 144.78 206.579 145.095C207.917 145.921 209.553 145.592 210.486 144.357C211.027 143.65 211.422 142.872 211.504 141.984C211.606 140.888 211.701 139.791 211.741 138.69C211.857 135.266 211.925 131.844 212.063 128.421C212.136 126.652 212.318 124.888 212.444 123.122C212.473 122.729 212.518 122.331 212.485 121.943C212.383 120.743 211.34 119.84 210.105 119.845Z"/><path fill="#175773" d="M41.3096 12.5943C27.5056 12.9939 16.406 14.6929 13.9159 17.3529C11.7445 19.7631 8.95865 21.6919 8.90361 24.9161C8.82416 28.0418 12.5079 28.3319 14.7252 28.3055C16.9081 28.3055 18.9536 28.1127 18.9234 26.7793C18.9234 24.9922 15.9466 25.3684 15.9466 23.5067C15.9466 21.4057 27.3644 20.9304 33.0544 20.9304C81.8847 20.7596 138.115 54.6234 138.203 83.3595C138.276 105.656 109.252 110.676 93.2523 110.676C87.5503 110.704 82.046 110.115 76.8145 109.091C76.5465 101.992 76.1397 87.1041 75.9607 77.6633C77.8047 77.636 79.5349 77.5887 80.9974 77.5887C92.868 77.5671 108.439 81.7677 108.452 84.5278C108.452 86.9021 104.302 88.5618 104.302 90.8242C104.337 92.516 108.143 92.1738 111.41 92.4471C112.017 92.5155 118.712 88.7495 118.702 82.8187C118.663 74.9861 108.926 65.7425 77.1184 65.8703H75.7262C75.4352 57.0585 74.165 43.2295 69.125 43.2381C65.0067 43.2616 63.8021 58.5273 63.4522 66.8768C45.6031 69.6254 29.7506 76.8708 29.7784 84.0339C29.7784 89.8899 42.5559 104.615 63.1765 113.577C63.5451 120.223 64.7913 124.767 70.6905 124.735C74.9681 124.735 76.3948 121.596 76.8428 118.294C83.5167 120.001 90.7598 121.011 98.4355 120.984C128.365 120.906 152.421 104.879 152.33 82.9307C152.261 53.4685 92.9527 11.1666 41.3096 12.5943V12.5943ZM33.2659 85.8669C33.2659 80.755 48.8058 78.7612 63.2062 78.0309C63.1191 86.0875 63.0114 97.6149 63.0349 105.367C45.3217 99.1148 33.2659 89.1797 33.2659 85.8669"/><path fill="#175773" d="M260.333 138.663C259.816 138.674 259.298 138.766 258.783 138.85C256.724 139.179 254.676 139.568 252.609 139.841C251.183 140.03 249.735 140.078 248.296 140.164C247.989 140.182 247.675 140.103 247.353 140.068C247.053 138.869 246.689 137.751 246.785 136.404C247.977 136.335 249.053 136.267 250.133 136.212C252.457 136.09 254.768 135.865 257.067 135.489C257.809 135.368 258.435 135.078 258.987 134.584C259.548 134.084 259.711 133.461 259.565 132.764C259.305 131.545 258.042 130.844 257.201 130.976C256.728 131.05 256.253 131.134 255.774 131.172C252.937 131.397 250.1 131.615 247.261 131.829C247.06 131.845 246.856 131.844 246.659 131.831C246.39 131.817 246.206 131.672 246.151 131.414C246.042 130.916 245.912 130.419 245.86 129.915C245.805 129.381 245.689 128.835 245.85 128.233C246.136 128.199 246.404 128.146 246.675 128.138C249.282 128.061 251.888 128.01 254.494 127.915C255.817 127.868 257.136 127.741 258.457 127.664C259.301 127.617 260.007 127.287 260.591 126.706C261.137 126.162 261.339 125.516 261.12 124.762C260.799 123.657 259.85 122.933 258.611 122.939C257.891 122.946 257.174 123.086 256.452 123.112C253.528 123.22 250.6 123.315 247.674 123.403C246.915 123.426 246.148 123.376 245.39 123.42C244.752 123.458 244.112 123.541 243.487 123.68C242.675 123.86 242.056 124.323 241.599 125.031C241.079 125.834 240.929 126.684 241.008 127.616C241.332 131.336 241.639 135.057 242.248 138.746C242.447 139.944 242.748 141.13 243.02 142.315C243.306 143.564 244.133 144.245 245.4 144.511C246.598 144.762 247.793 144.703 248.994 144.627C250.114 144.558 251.236 144.489 252.356 144.425C253.879 144.344 255.406 144.311 256.924 144.182C257.878 144.102 258.825 143.914 259.767 143.732C260.528 143.583 261.195 143.212 261.799 142.74C262.605 142.111 262.85 141.099 262.466 140.074C262.124 139.162 261.375 138.641 260.333 138.663V138.663Z"/><path fill="#F5F5F5" d="M41.3096 9.10015C27.5056 9.49977 16.406 11.1988 13.9159 13.8588C11.7445 16.269 8.95865 18.1977 8.90361 21.422C8.82416 24.5477 12.5079 24.8377 14.7252 24.8114C16.9081 24.8114 18.9536 24.6185 18.9234 23.2852C18.9234 21.4981 15.9466 21.8743 15.9466 20.0125C15.9466 17.9115 27.3644 17.4363 33.0544 17.4363C81.8847 17.2654 138.115 51.1292 138.203 79.8654C138.276 102.162 109.252 107.182 93.2523 107.182C87.5503 107.21 82.046 106.621 76.8145 105.597C76.5465 98.498 76.1397 83.6099 75.9607 74.1692C77.8047 74.1419 79.5349 74.0945 80.9974 74.0945C92.868 74.073 108.439 78.2736 108.452 81.0336C108.452 83.4079 104.302 85.0677 104.302 87.33C104.337 89.0218 108.143 88.6796 111.41 88.9529C112.017 89.0214 118.712 85.2553 118.702 79.3246C118.663 71.4919 108.926 62.2484 77.1184 62.3762H75.7262C75.4352 53.5643 74.165 39.7354 69.125 39.744C65.0067 39.7674 63.8021 55.0331 63.4522 63.3827C45.6031 66.1312 29.7506 73.3766 29.7784 80.5397C29.7784 86.3958 42.5559 101.121 63.1765 110.083C63.5451 116.729 64.7913 121.273 70.6905 121.241C74.9681 121.241 76.3948 118.102 76.8428 114.8C83.5167 116.506 90.7598 117.517 98.4355 117.49C128.365 117.412 152.421 101.385 152.33 79.4366C152.261 49.9744 92.9527 7.6725 41.3096 9.10015V9.10015ZM33.2659 82.3727C33.2659 77.2609 48.8058 75.2671 63.2062 74.5367C63.1191 82.5934 63.0114 94.1208 63.0349 101.873C45.3217 95.6207 33.2659 85.6856 33.2659 82.3727"/><path fill="#175773" d="M136.738 138.178C136.499 138.2 136.264 138.269 136.027 138.315C135.038 138.511 134.055 138.763 133.056 138.893C129.007 139.422 124.931 139.653 120.854 139.843C119.441 139.91 118.024 139.888 116.611 139.895C115.45 139.902 114.358 139.593 113.38 138.991C112.24 138.287 111.891 138.052 112.808 136.572C113.346 135.704 114.07 134.987 114.861 134.356C116.441 133.098 118.034 131.855 119.663 130.66C120.966 129.7 122.377 128.906 123.848 128.223C125.212 127.59 126.625 127.133 128.129 126.961C128.864 126.878 129.485 126.917 129.846 127.713C130.075 128.215 130.529 128.511 131.074 128.614C132.056 128.8 132.911 128.532 133.625 127.835C134.312 127.167 134.402 126.345 134.149 125.479C133.853 124.474 133.243 123.681 132.372 123.097C131.512 122.522 130.562 122.224 129.529 122.164C128.307 122.093 127.112 122.292 125.923 122.528C123.557 122.997 121.378 123.953 119.302 125.147C116.276 126.885 113.517 128.993 110.915 131.311C110.342 131.819 109.82 132.388 109.317 132.968C108.678 133.702 108.159 134.523 107.78 135.425C106.88 137.576 107.243 139.537 108.697 141.319C109.745 142.607 111.091 143.466 112.647 144.025C114.196 144.583 115.799 144.719 117.424 144.689C118.717 144.664 120.009 144.611 121.303 144.572C121.304 144.593 121.305 144.614 121.307 144.634C124.21 144.431 127.114 144.25 130.014 144.021C131.342 143.917 132.666 143.743 133.988 143.561C134.826 143.446 135.667 143.302 136.486 143.092C137.064 142.945 137.652 142.733 138.164 142.43C139.149 141.848 139.41 140.912 139.109 139.827C138.77 138.611 137.715 138.092 136.738 138.178H136.738Z"/><path fill="#175773" d="M161.964 65.3662C156.998 65.4217 156.847 85.7682 156.704 93.2026C156.37 110.126 158.848 112.106 163.3 112.106C167.279 112.106 168.636 111.616 168.295 97.4453C167.67 70.5379 165.872 65.3662 161.964 65.3662Z"/><path fill="#F5F5F5" d="M161.964 61.8726C156.998 61.9281 156.847 82.2745 156.704 89.709C156.37 106.633 158.848 108.612 163.3 108.612C167.279 108.612 168.636 108.123 168.295 93.9517C167.67 67.0442 165.872 61.8726 161.964 61.8726"/><path fill="#175773" d="M221.236 70.0187C221.236 65.3491 209.08 65.3936 202.232 65.4012C197.097 65.4429 171.067 66.0186 171.094 80.5023C171.116 90.2732 185.697 87.8865 195.368 88.8571C203.222 89.6343 212.771 92.224 212.828 94.7782C212.828 100.537 191.956 102.821 187.684 102.821C178.813 102.873 178.635 100.326 178.635 99.0181C178.635 97.7082 180.105 95.511 183.438 95.511C186.742 95.499 193.555 99.7058 198.286 99.6943C202.959 99.6551 206.882 97.6034 206.882 95.5019C206.882 91.6473 191.296 89.8037 186.462 89.8037C181.382 89.8391 174.104 91.9019 174.144 99.4775C174.144 103.413 180.601 112.7 198.727 112.62C216.603 112.538 221.124 102.453 221.097 97.2526C221.067 84.6 208.995 83.1369 198.478 82.2324C190.59 81.5576 182.126 81.1742 182.156 79.4412C182.223 73.6565 221.236 77.8915 221.236 70.0187"/><path fill="#F5F5F5" d="M221.236 66.525C221.236 61.8554 209.08 61.8999 202.232 61.9076C197.097 61.9492 171.067 62.525 171.094 77.0086C171.116 86.7796 185.697 84.3928 195.368 85.3634C203.222 86.1406 212.771 88.7303 212.828 91.2846C212.828 97.0435 191.956 99.3278 187.684 99.3278C178.813 99.3795 178.635 96.8319 178.635 95.5244C178.635 94.2145 180.105 92.0173 183.438 92.0173C186.742 92.0053 193.555 96.2122 198.286 96.2007C202.959 96.1614 206.882 94.1097 206.882 92.0082C206.882 88.1536 191.296 86.3101 186.462 86.3101C181.382 86.3455 174.104 88.4082 174.144 95.9839C174.144 99.9189 180.601 109.206 198.727 109.126C216.603 109.045 221.124 98.9598 221.097 93.7589C221.067 81.1063 208.995 79.6433 198.478 78.7387C190.59 78.0639 182.126 77.6806 182.156 75.9476C182.223 70.1628 221.236 74.3979 221.236 66.525"/><path fill="#175773" d="M250.305 59.1319C248.833 59.1319 248.553 60.6907 248.553 62.3313C248.553 67.3532 255.484 84.6122 255.484 91.2584C255.484 92.609 255.375 95.057 254.292 95.4007C252.638 95.8764 238.238 69.6414 232.283 69.1943C226.14 68.721 222.829 94.9307 222.862 101.384C222.862 107.783 224.022 112.135 228.824 112.109C235.909 112.109 232.242 85.9355 235.092 85.9355C237.214 85.9355 248.805 109.872 255.268 109.848C262.257 109.825 266.4 99.5788 266.388 92.9211C266.339 77.698 256.19 59.0845 250.305 59.1319"/><path fill="#F5F5F5" d="M250.305 55.6378C248.833 55.6378 248.553 57.1966 248.553 58.8372C248.553 63.8591 255.484 81.1181 255.484 87.7643C255.484 89.1149 255.375 91.5629 254.292 91.9065C252.638 92.3822 238.238 66.1472 232.283 65.7002C226.14 65.2269 222.829 91.4366 222.862 97.8899C222.862 104.289 224.022 108.641 228.824 108.615C235.909 108.615 232.242 82.4414 235.092 82.4414C237.214 82.4414 248.805 106.378 255.268 106.354C262.257 106.33 266.4 96.0846 266.388 89.4269C266.339 74.2038 256.19 55.5904 250.305 55.6378"/><path fill="#175773" d="M297.568 99.5784C295.113 99.5784 281.262 102.677 280.351 101.862C279.429 101.006 281.168 92.9513 282.892 92.4163C284.631 91.8817 295.459 92.0176 297.184 91.9094C302.214 91.6223 301.266 84.7755 298.156 84.5209C296.575 84.3725 286.809 84.3424 286.246 83.4326C285.736 82.5525 286.426 77.9757 287.494 77.5047C289.743 76.5471 304.605 76.1829 305.728 75.8947C307.581 75.4056 308.93 74.4207 309.375 72.8298C309.819 71.2222 304.213 64.7124 297.274 65.4518C285.349 66.7522 269.902 66.6895 269.902 70.6269C269.902 74.3125 277.161 75.7985 277.345 76.8242C277.537 77.8058 276.413 81.6383 275.985 82.8396C275.556 84.1203 270.369 84.5133 270.027 88.0836C269.956 88.9278 271.323 90.2114 271.088 91.2485C270.262 94.2655 267.779 100.513 267.783 103.086C267.783 107.091 270.728 115.981 278.803 115.677C291.612 115.284 303.064 106.282 303.261 104.694C303.528 102.342 300.026 99.5784 297.568 99.5784"/><path fill="#F5F5F5" d="M297.568 96.0843C295.113 96.0843 281.262 99.1832 280.351 98.3676C279.429 97.5119 281.168 89.4572 282.892 88.9221C284.631 88.3875 295.459 88.5235 297.184 88.4153C302.214 88.1281 301.266 81.2814 298.156 81.0268C296.575 80.8784 286.809 80.8483 286.246 79.9384C285.736 79.0583 286.426 74.4815 287.494 74.0106C289.743 73.0529 304.605 72.6887 305.728 72.4006C307.581 71.9115 308.93 70.9265 309.375 69.3357C309.819 67.7281 304.213 61.2183 297.274 61.9577C285.349 63.258 269.902 63.1954 269.902 67.1327C269.902 70.8184 277.161 72.3044 277.345 73.33C277.537 74.3116 276.413 78.1442 275.985 79.3455C275.556 80.6262 270.369 81.0191 270.027 84.5894C269.956 85.4337 271.323 86.7172 271.088 87.7544C270.262 90.7714 267.779 97.0185 267.783 99.5923C267.783 103.597 270.728 112.487 278.803 112.183C291.612 111.79 303.064 102.788 303.261 101.2C303.528 98.8477 300.026 96.0843 297.568 96.0843"/><path fill="#175773" d="M344.041 68.5705C337.072 68.9466 323.694 83.7653 315.884 93.7478C315.388 92.7251 315.114 91.7373 315.114 90.8633C315.097 86.6019 323.017 73.9661 324.493 70.7883C326.041 67.5142 324.308 63.1322 322.366 64.7106C318.664 67.7588 306.782 81.682 306.807 94.6375C306.807 97.6187 307.575 101.227 309.224 104.548C306.593 113.228 300.081 132.563 300.282 144.278C300.403 150.323 306.503 156.263 310.177 155.514C311.572 155.182 311.842 147.234 313.716 141.863C316.267 134.11 320.399 119.946 321.819 113.907C322.484 113.977 323.149 114.035 323.874 114.035C338.388 113.978 354.508 98.4074 354.478 85.0293C354.424 71.6067 346.514 68.4015 344.041 68.5705V68.5705ZM327.28 101.692C333.13 91.5114 341.641 78.0361 344.774 78.0887C346.97 78.0887 347.81 80.3396 347.81 83.6246C347.81 93.5798 335.858 101.829 327.28 101.692Z"/><path fill="#F5F5F5" d="M344.041 65.0758C337.072 65.452 323.694 80.2707 315.884 90.2532C315.388 89.2304 315.114 88.2426 315.114 87.3687C315.097 83.1073 323.017 70.4715 324.493 67.2936C326.041 64.0196 324.308 59.6376 322.366 61.216C318.664 64.2642 306.782 78.1874 306.807 91.1429C306.807 94.1241 307.575 97.7322 309.224 101.054C306.593 109.734 300.081 129.069 300.282 140.783C300.403 146.829 306.503 152.768 310.177 152.019C311.572 151.687 311.842 143.739 313.716 138.369C316.267 130.615 320.399 116.452 321.819 110.412C322.484 110.483 323.149 110.54 323.874 110.54C338.388 110.483 354.508 94.9128 354.478 81.5347C354.424 68.112 346.514 64.9069 344.041 65.0758V65.0758ZM327.28 98.1969C333.13 88.0167 341.641 74.5415 344.774 74.5941C346.97 74.5941 347.81 76.8449 347.81 80.13C347.81 90.0852 335.858 98.3342 327.28 98.1969Z"/><path fill="#F5F5F5" d="M210.105 116.351C208.836 116.356 207.87 117.231 207.783 118.477C207.715 119.459 207.662 120.442 207.615 121.424C207.397 125.787 207.086 130.148 207.09 134.523C207.09 134.677 207.062 134.832 207.022 135.249C206.733 134.963 206.581 134.846 206.472 134.703C206.185 134.321 205.926 133.918 205.633 133.541C204.174 131.645 202.711 129.75 201.238 127.863C199.915 126.167 198.599 124.46 197.234 122.791C196.71 122.146 196.107 121.544 195.468 121.004C194.008 119.778 191.568 120.898 191.53 122.491C191.521 122.763 191.426 123.036 191.417 123.307C191.347 125.078 191.23 126.848 191.241 128.618C191.27 132.872 191.36 137.122 191.431 141.373C191.439 141.804 191.458 142.242 191.537 142.666C191.678 143.423 192.157 143.931 192.906 144.199C193.768 144.508 194.522 144.277 195.168 143.716C195.797 143.167 196.133 142.477 196.106 141.625C196.037 139.262 195.995 136.901 195.944 134.538C195.906 132.925 195.868 131.313 195.842 129.699C195.84 129.521 195.768 129.301 196.037 129.151C196.42 129.301 196.598 129.671 196.832 129.97C198.856 132.54 200.859 135.125 202.889 137.691C203.632 138.629 204.411 139.541 205.216 140.428C205.615 140.867 206.073 141.286 206.579 141.601C207.917 142.427 209.553 142.097 210.486 140.863C211.027 140.156 211.422 139.378 211.504 138.49C211.606 137.393 211.701 136.296 211.741 135.196C211.857 131.772 211.925 128.349 212.063 124.927C212.136 123.158 212.318 121.394 212.444 119.628C212.473 119.235 212.518 118.837 212.485 118.449C212.383 117.248 211.34 116.346 210.105 116.351V116.351Z"/><path fill="#175773" d="M186.83 138.191C186.102 136.764 185.364 135.34 184.557 133.769C184.625 133.542 184.717 133.277 184.783 133.007C185.017 132.032 184.641 131.153 183.778 130.653C183.64 130.572 183.497 130.471 183.346 130.45C182.8 130.378 182.537 130.008 182.293 129.568C181.692 128.481 181.096 127.387 180.439 126.334C179.59 124.975 178.71 123.633 177.781 122.326C177.394 121.781 176.884 121.297 176.357 120.88C175.618 120.296 174.757 120.207 173.854 120.502C173.207 120.714 172.724 121.136 172.419 121.713C171.934 122.635 171.456 123.564 171.081 124.533C169.874 127.642 169.04 130.872 168.166 134.084C168.051 134.507 167.929 134.928 167.803 135.375C167.259 135.594 166.736 135.789 166.227 136.014C165.863 136.174 165.486 136.333 165.163 136.562C164.574 136.982 164.221 137.585 164.305 138.316C164.426 139.397 164.775 140.364 165.984 140.702C166.131 140.742 166.263 140.834 166.455 140.93C166.421 141.178 166.412 141.414 166.357 141.638C166.18 142.338 165.997 143.038 165.797 143.731C165.588 144.454 165.643 145.16 165.88 145.861C166.099 146.512 166.548 146.91 167.188 147.168C168.145 147.554 169.56 146.907 170.025 145.747C170.159 145.414 170.236 145.058 170.319 144.706C170.709 143.067 171.107 141.428 171.471 139.783C171.595 139.219 171.865 138.867 172.421 138.67C174.798 137.83 177.164 136.962 179.538 136.115C179.749 136.04 179.99 136.06 180.232 136.032C180.46 136.424 180.668 136.763 180.851 137.116C182.069 139.467 183.283 141.82 184.496 144.173C184.644 144.458 184.772 144.755 184.937 145.028C185.817 146.466 187.69 146.517 188.617 145.108C189.226 144.183 189.412 143.217 188.842 142.163C188.137 140.857 187.504 139.515 186.83 138.191V138.191ZM173.402 133.188C173.412 132.98 173.39 132.793 173.434 132.622C174.309 129.138 174.683 128.002 175.169 127.311C175.844 127.95 177.407 130.61 177.735 131.683C177.004 132.137 175.457 132.677 173.402 133.188H173.402Z"/><path fill="#F5F5F5" d="M260.333 135.169C259.816 135.18 259.298 135.272 258.783 135.355C256.724 135.685 254.676 136.074 252.609 136.347C251.183 136.536 249.735 136.583 248.296 136.67C247.989 136.688 247.675 136.609 247.353 136.574C247.053 135.375 246.689 134.257 246.785 132.91C247.977 132.84 249.053 132.772 250.133 132.718C252.457 132.596 254.768 132.371 257.067 131.995C257.809 131.874 258.435 131.584 258.987 131.09C259.548 130.59 259.711 129.966 259.565 129.27C259.305 128.051 258.042 127.35 257.201 127.482C256.728 127.556 256.253 127.64 255.774 127.678C252.937 127.903 250.1 128.12 247.261 128.335C247.06 128.351 246.856 128.35 246.659 128.337C246.39 128.323 246.206 128.178 246.151 127.92C246.042 127.422 245.912 126.925 245.86 126.421C245.805 125.887 245.689 125.341 245.85 124.739C246.136 124.705 246.404 124.651 246.675 124.644C249.282 124.567 251.888 124.516 254.494 124.421C255.817 124.374 257.136 124.247 258.457 124.17C259.301 124.123 260.007 123.792 260.591 123.212C261.137 122.668 261.339 122.022 261.12 121.268C260.799 120.163 259.85 119.439 258.611 119.445C257.891 119.452 257.174 119.592 256.452 119.618C253.528 119.726 250.6 119.821 247.674 119.909C246.915 119.932 246.148 119.882 245.39 119.926C244.752 119.964 244.112 120.047 243.487 120.186C242.675 120.366 242.056 120.829 241.599 121.537C241.079 122.34 240.929 123.19 241.008 124.122C241.332 127.842 241.639 131.563 242.248 135.251C242.447 136.45 242.748 137.636 243.02 138.821C243.306 140.069 244.133 140.75 245.4 141.017C246.598 141.268 247.793 141.209 248.994 141.133C250.114 141.063 251.236 140.995 252.356 140.931C253.879 140.849 255.406 140.816 256.924 140.688C257.878 140.608 258.825 140.42 259.767 140.237C260.528 140.089 261.195 139.718 261.799 139.246C262.605 138.617 262.85 137.605 262.466 136.579C262.124 135.668 261.375 135.147 260.333 135.169V135.169Z"/><path fill="#175773" d="M160.992 128.988C160.603 128.905 160.202 128.87 159.764 128.805C159.731 128.593 159.684 128.399 159.674 128.202C159.593 126.544 159.525 124.883 159.433 123.224C159.407 122.741 159.373 122.245 159.241 121.784C158.903 120.615 157.854 120.009 156.59 120.195C155.191 120.399 154.446 121.22 154.464 122.544C154.467 122.746 154.495 122.948 154.506 123.15C154.615 125.297 154.727 127.441 154.825 129.586C154.838 129.857 154.769 130.132 154.734 130.425C152.547 130.862 150.523 131.704 148.405 132.118C148.116 131.693 148.211 131.277 148.207 130.882C148.197 129.1 148.211 127.314 148.191 125.532C148.186 125.048 148.121 124.562 148.023 124.089C147.89 123.459 147.48 123.016 146.922 122.707C145.256 121.785 143.186 122.97 143.161 124.877C143.152 125.484 143.262 126.089 143.266 126.696C143.283 128.803 143.281 130.911 143.274 133.02C143.274 133.292 143.205 133.564 143.172 133.809C142.376 134.057 141.637 134.263 140.915 134.52C140.181 134.778 139.683 135.297 139.486 136.061C139.071 137.665 140.569 139.298 142.203 139.03C142.511 138.981 142.814 138.91 143.094 138.856C143.355 139.315 143.274 139.728 143.281 140.125C143.295 141.099 143.301 142.072 143.293 143.044C143.287 143.632 143.457 144.163 143.76 144.657C144.303 145.549 145.318 145.917 146.286 145.534C147.396 145.096 148.111 144.327 148.109 143.068C148.106 141.814 148.066 140.559 148.039 139.304C148.027 138.818 148.006 138.332 147.989 137.847C147.98 137.47 148.17 137.241 148.525 137.138C148.681 137.092 148.831 137.029 148.987 136.984C150.694 136.478 152.403 135.968 154.112 135.469C154.377 135.391 154.653 135.361 155.015 135.292C155.065 135.744 155.126 136.137 155.147 136.533C155.278 139.001 155.402 141.471 155.513 143.942C155.537 144.473 155.606 144.987 155.822 145.479C156.281 146.525 157.337 147.005 158.427 146.654C159.687 146.249 160.378 145.235 160.312 143.88C160.277 143.151 160.213 142.425 160.187 141.694C160.1 139.306 160.054 136.913 159.729 134.54C159.709 134.386 159.739 134.224 159.744 134.121C159.81 134.037 159.829 133.991 159.862 133.978C160.122 133.879 160.382 133.78 160.646 133.696C161.282 133.498 161.803 133.162 162.254 132.655C163.15 131.645 162.843 129.385 160.992 128.988H160.992Z"/><path fill="#F5F5F5" d="M136.738 134.685C136.499 134.706 136.264 134.776 136.027 134.822C135.038 135.018 134.055 135.27 133.056 135.4C129.007 135.929 124.931 136.16 120.854 136.35C119.441 136.417 118.024 136.395 116.611 136.402C115.45 136.409 114.358 136.1 113.38 135.497C112.24 134.793 111.891 134.559 112.808 133.079C113.346 132.21 114.07 131.494 114.861 130.863C116.441 129.605 118.034 128.362 119.663 127.167C120.966 126.207 122.377 125.413 123.848 124.73C125.212 124.096 126.625 123.639 128.129 123.468C128.864 123.385 129.485 123.424 129.846 124.22C130.075 124.722 130.529 125.018 131.074 125.121C132.056 125.307 132.911 125.039 133.625 124.341C134.312 123.674 134.402 122.852 134.149 121.985C133.853 120.981 133.243 120.188 132.372 119.603C131.512 119.029 130.562 118.73 129.529 118.671C128.307 118.6 127.112 118.799 125.923 119.034C123.557 119.504 121.378 120.46 119.302 121.654C116.276 123.392 113.517 125.5 110.915 127.817C110.342 128.326 109.82 128.895 109.317 129.475C108.678 130.209 108.159 131.029 107.78 131.932C106.88 134.083 107.243 136.044 108.697 137.825C109.745 139.114 111.091 139.973 112.647 140.532C114.196 141.089 115.799 141.226 117.424 141.196C118.717 141.171 120.009 141.118 121.303 141.078C121.304 141.1 121.305 141.121 121.307 141.141C124.21 140.938 127.114 140.757 130.014 140.528C131.342 140.424 132.666 140.249 133.988 140.068C134.826 139.953 135.667 139.809 136.486 139.599C137.064 139.452 137.652 139.24 138.164 138.937C139.149 138.355 139.41 137.419 139.109 136.334C138.77 135.118 137.715 134.599 136.738 134.685H136.738Z"/><path fill="#175773" d="M237.75 139.477C237.56 137.46 237.379 135.442 237.18 133.425C236.972 131.329 236.753 129.234 236.536 127.138C236.396 125.81 236.237 124.482 236.097 123.152C236.008 122.331 235.629 121.7 234.947 121.26C233.725 120.472 232.382 120.869 231.732 122.185C231.474 122.712 231.399 123.263 231.461 123.838C231.585 125.006 231.712 126.175 231.834 127.343C232.182 130.69 232.528 134.035 232.867 137.382C232.902 137.733 232.873 138.092 232.873 138.671C232.535 138.393 232.368 138.285 232.234 138.145C230.916 136.791 229.593 135.443 228.295 134.07C226.498 132.173 224.726 130.251 222.927 128.353C222.266 127.652 221.579 126.975 220.867 126.324C220.485 125.975 220.06 125.651 219.607 125.411C218.272 124.705 216.669 125.455 216.327 126.931C216.227 127.363 216.169 127.813 216.158 128.254C216.128 129.226 216.088 130.204 216.142 131.173C216.393 135.545 216.671 139.912 216.945 144.283C216.964 144.603 217.015 144.931 217.099 145.242C217.373 146.218 218.152 146.793 219.142 146.779C220.352 146.761 221.425 145.715 221.496 144.472C221.512 144.149 221.494 143.824 221.471 143.501C221.34 141.641 221.212 139.782 221.065 137.923C220.978 136.791 220.851 135.663 220.76 134.532C220.73 134.147 220.756 133.754 220.756 133.223C220.999 133.386 221.138 133.446 221.237 133.548C221.684 134.009 222.127 134.481 222.562 134.954C224.934 137.525 227.315 140.09 229.925 142.419C230.674 143.085 231.453 143.721 232.255 144.317C232.702 144.647 233.208 144.912 233.718 145.132C235.953 146.09 237.934 144.083 237.936 142.387C237.937 141.984 237.936 141.578 237.909 141.173C237.87 140.605 237.804 140.042 237.75 139.477V139.477Z"/><path fill="#F5F5F5" d="M186.83 134.697C186.102 133.269 185.364 131.846 184.557 130.275C184.625 130.048 184.717 129.783 184.783 129.512C185.017 128.538 184.641 127.659 183.778 127.159C183.64 127.077 183.497 126.976 183.346 126.956C182.8 126.884 182.537 126.514 182.293 126.074C181.692 124.986 181.096 123.893 180.439 122.84C179.59 121.481 178.71 120.139 177.781 118.832C177.394 118.287 176.884 117.803 176.357 117.386C175.618 116.801 174.757 116.713 173.854 117.008C173.207 117.22 172.724 117.641 172.419 118.219C171.934 119.141 171.456 120.07 171.081 121.039C169.874 124.148 169.04 127.378 168.166 130.59C168.051 131.013 167.929 131.434 167.803 131.881C167.259 132.1 166.736 132.295 166.227 132.52C165.863 132.68 165.486 132.839 165.163 133.068C164.574 133.488 164.221 134.091 164.305 134.822C164.426 135.903 164.775 136.869 165.984 137.208C166.131 137.247 166.263 137.34 166.455 137.436C166.421 137.684 166.412 137.92 166.357 138.144C166.18 138.844 165.997 139.544 165.797 140.237C165.588 140.96 165.643 141.666 165.88 142.367C166.099 143.018 166.548 143.416 167.188 143.674C168.145 144.06 169.56 143.413 170.025 142.253C170.159 141.92 170.236 141.563 170.319 141.212C170.709 139.572 171.107 137.934 171.471 136.288C171.595 135.725 171.865 135.373 172.421 135.176C174.798 134.336 177.164 133.468 179.538 132.621C179.749 132.546 179.99 132.566 180.232 132.538C180.46 132.93 180.668 133.269 180.851 133.622C182.069 135.973 183.283 138.326 184.496 140.678C184.644 140.964 184.772 141.26 184.937 141.534C185.817 142.972 187.69 143.023 188.617 141.614C189.226 140.689 189.412 139.723 188.842 138.669C188.137 137.363 187.504 136.021 186.83 134.697V134.697ZM173.402 129.694C173.412 129.486 173.39 129.299 173.434 129.128C174.309 125.644 174.683 124.508 175.169 123.817C175.844 124.456 177.407 127.116 177.735 128.189C177.004 128.643 175.457 129.183 173.402 129.694H173.402Z"/><path fill="#175773" d="M290.46 141.118C289.993 140.731 289.462 140.47 288.859 140.408C288.038 140.322 287.216 140.22 286.394 140.2C284.706 140.157 283.015 140.147 281.324 140.152C278.489 140.156 275.681 140.461 272.904 141.07C272.531 141.151 272.146 141.283 271.691 141.097C271.665 140.927 271.616 140.736 271.608 140.544C271.561 139.456 271.512 138.371 271.49 137.283C271.401 132.892 271.327 128.502 271.235 124.114C271.206 122.663 270.46 121.74 269.15 121.433C268.567 121.298 268.017 121.391 267.602 121.789C266.906 122.452 266.275 123.183 266.396 124.279C266.415 124.44 266.404 124.602 266.406 124.763C266.52 130.321 266.635 135.881 266.752 141.438C266.761 141.84 266.782 142.243 266.838 142.642C267.097 144.481 268.219 145.705 269.98 146.115C270.762 146.297 271.539 146.27 272.322 146.126C273.441 145.92 274.558 145.677 275.682 145.496C279.823 144.829 283.987 144.882 288.147 145.2C288.887 145.256 289.516 145.109 290.178 144.784C291.549 144.107 291.619 142.078 290.46 141.118H290.46Z"/><path fill="#F5F5F5" d="M160.992 125.493C160.603 125.411 160.202 125.376 159.764 125.311C159.731 125.099 159.684 124.905 159.674 124.708C159.593 123.05 159.525 121.389 159.433 119.73C159.407 119.247 159.373 118.751 159.241 118.29C158.903 117.121 157.854 116.515 156.59 116.701C155.191 116.905 154.446 117.726 154.464 119.05C154.467 119.252 154.495 119.454 154.506 119.656C154.615 121.802 154.727 123.947 154.825 126.092C154.838 126.363 154.769 126.638 154.734 126.931C152.547 127.368 150.523 128.21 148.405 128.624C148.116 128.198 148.211 127.783 148.207 127.388C148.197 125.605 148.211 123.82 148.191 122.037C148.186 121.554 148.121 121.068 148.023 120.595C147.89 119.965 147.48 119.522 146.922 119.213C145.256 118.291 143.186 119.476 143.161 121.383C143.152 121.99 143.262 122.595 143.266 123.202C143.283 125.309 143.281 127.417 143.274 129.526C143.274 129.798 143.205 130.07 143.172 130.315C142.376 130.563 141.637 130.768 140.915 131.026C140.181 131.284 139.683 131.803 139.486 132.567C139.071 134.171 140.569 135.804 142.203 135.536C142.511 135.486 142.814 135.416 143.094 135.362C143.355 135.82 143.274 136.234 143.281 136.631C143.295 137.605 143.301 138.578 143.293 139.55C143.287 140.137 143.457 140.669 143.76 141.163C144.303 142.055 145.318 142.423 146.286 142.04C147.396 141.602 148.111 140.833 148.109 139.574C148.106 138.32 148.066 137.065 148.039 135.81C148.027 135.324 148.006 134.838 147.989 134.353C147.98 133.976 148.17 133.747 148.525 133.644C148.681 133.598 148.831 133.535 148.987 133.49C150.694 132.983 152.403 132.474 154.112 131.975C154.377 131.897 154.653 131.867 155.015 131.797C155.065 132.25 155.126 132.643 155.147 133.038C155.278 135.507 155.402 137.977 155.513 140.448C155.537 140.979 155.606 141.493 155.822 141.985C156.281 143.031 157.337 143.511 158.427 143.16C159.687 142.755 160.378 141.741 160.312 140.386C160.277 139.656 160.213 138.93 160.187 138.2C160.1 135.811 160.054 133.419 159.729 131.046C159.709 130.892 159.739 130.73 159.744 130.627C159.81 130.543 159.829 130.497 159.862 130.484C160.122 130.385 160.382 130.286 160.646 130.202C161.282 130.004 161.803 129.668 162.254 129.161C163.15 128.151 162.843 125.891 160.992 125.493H160.992Z"/><path fill="#F5F5F5" d="M237.75 135.983C237.56 133.965 237.379 131.948 237.18 129.93C236.972 127.835 236.753 125.74 236.536 123.644C236.396 122.316 236.237 120.987 236.097 119.658C236.008 118.837 235.629 118.205 234.947 117.766C233.725 116.978 232.382 117.375 231.732 118.691C231.474 119.218 231.399 119.768 231.461 120.344C231.585 121.512 231.712 122.681 231.834 123.849C232.182 127.196 232.528 130.541 232.867 133.888C232.902 134.239 232.873 134.598 232.873 135.177C232.535 134.899 232.368 134.791 232.234 134.651C230.916 133.297 229.593 131.949 228.295 130.576C226.498 128.679 224.726 126.757 222.927 124.859C222.266 124.158 221.579 123.48 220.867 122.83C220.485 122.481 220.06 122.157 219.607 121.917C218.272 121.211 216.669 121.961 216.327 123.436C216.227 123.869 216.169 124.318 216.158 124.76C216.128 125.732 216.088 126.71 216.142 127.679C216.393 132.051 216.671 136.418 216.945 140.789C216.964 141.109 217.015 141.437 217.099 141.747C217.373 142.724 218.152 143.299 219.142 143.285C220.352 143.267 221.425 142.221 221.496 140.978C221.512 140.655 221.494 140.33 221.471 140.007C221.34 138.147 221.212 136.288 221.065 134.429C220.978 133.297 220.851 132.169 220.76 131.038C220.73 130.653 220.756 130.26 220.756 129.728C220.999 129.892 221.138 129.952 221.237 130.054C221.684 130.515 222.127 130.987 222.562 131.46C224.934 134.031 227.315 136.596 229.925 138.925C230.674 139.591 231.453 140.226 232.255 140.823C232.702 141.153 233.208 141.418 233.718 141.638C235.953 142.596 237.934 140.589 237.936 138.893C237.937 138.49 237.936 138.084 237.909 137.678C237.87 137.111 237.804 136.548 237.75 135.983V135.983Z"/><path fill="#F5F5F5" d="M290.46 137.622C289.993 137.236 289.462 136.975 288.859 136.913C288.038 136.827 287.216 136.725 286.394 136.704C284.706 136.662 283.015 136.652 281.324 136.657C278.489 136.66 275.681 136.966 272.904 137.575C272.531 137.656 272.146 137.788 271.691 137.602C271.665 137.431 271.616 137.241 271.608 137.049C271.561 135.961 271.512 134.876 271.49 133.788C271.401 129.397 271.327 125.007 271.235 120.618C271.206 119.168 270.46 118.245 269.15 117.938C268.567 117.803 268.017 117.896 267.602 118.294C266.906 118.957 266.275 119.688 266.396 120.784C266.415 120.944 266.404 121.107 266.406 121.268C266.52 126.826 266.635 132.386 266.752 137.943C266.761 138.345 266.782 138.748 266.838 139.147C267.097 140.986 268.219 142.21 269.98 142.62C270.762 142.802 271.539 142.775 272.322 142.631C273.441 142.425 274.558 142.182 275.682 142.001C279.823 141.334 283.987 141.387 288.147 141.705C288.887 141.761 289.516 141.614 290.178 141.288C291.549 140.612 291.619 138.583 290.46 137.622H290.46Z"/><path fill="#175773" d="M197.858 33.9187C196.938 28.1071 191.558 25.1513 186.749 25.114C181.704 25.506 178.643 28.8327 178.054 33.2056C177.759 33.0247 177.476 32.8112 177.197 32.5724C175.076 30.759 172.667 29.7472 169.987 29.5185C170.997 27.8616 171.688 25.9018 171.854 24.0367C171.864 18.8329 167.873 15.4172 162.017 15.187C156.583 15.187 152.178 19.1488 152.178 24.0367C152.178 27.203 155.087 30.4556 157.927 32.0459C156.825 32.5944 155.758 33.2357 154.723 33.966C154.451 34.1584 154.179 34.3532 153.911 34.5585C151.167 36.6624 148.898 39.177 147.466 42.361C146.931 43.5465 146.601 44.7712 146.588 46.0893C146.568 48.388 147.241 50.4593 148.572 52.3134C148.587 52.3344 148.598 52.356 148.613 52.3775C150.362 54.7557 152.971 56.4585 155.986 57.0261C156.003 57.0299 156.023 57.0328 156.042 57.0366C156.101 57.0486 156.161 57.062 156.224 57.0778C158.039 57.542 159.897 57.7014 161.005 57.743C163.493 57.8019 165.175 57.5286 166.821 57.0285C172.355 55.3443 177.035 52.3144 180.949 48.1008C182.046 46.9206 182.993 45.6365 183.709 44.2113C185.348 44.9914 187.215 45.3336 189.144 45.1015C195.929 44.0543 198.52 39.4388 197.858 33.9187V33.9187ZM155.668 42.6592C154.926 43.357 154.2 44.0845 153.482 44.8397C153.173 45.1761 152.873 45.5131 152.589 45.85C152.519 45.6088 152.462 45.3637 152.423 45.124C152.358 44.8607 152.35 44.6076 152.381 44.362C152.557 41.7303 156.397 37.7857 163.863 36.5648C161.026 38.2585 158.133 40.3868 155.668 42.6592V42.6592ZM163.217 51.1763C161.223 51.1763 159.551 50.9054 158.121 50.4536C158.272 50.2832 158.434 50.1066 158.601 49.9252C158.749 49.7012 158.952 49.5265 159.133 49.3404C159.622 48.8407 160.118 48.3487 160.618 47.861C160.794 47.6897 160.974 47.516 161.157 47.3413C161.372 47.136 161.587 46.933 161.804 46.7306C161.902 46.6401 162 46.5478 162.1 46.4564C162.767 45.8414 163.442 45.2383 164.132 44.6506C168.21 41.1607 172.945 37.9058 175.818 37.8939C178.796 37.8939 179.327 40.2811 179.327 41.1914C179.327 46.6626 168.069 51.1571 163.217 51.1763Z"/><path fill="#F5F5F5" d="M197.858 30.4245C196.938 24.613 191.558 21.6572 186.749 21.6198C181.704 22.0118 178.643 25.3385 178.054 29.7114C177.759 29.5305 177.476 29.3171 177.197 29.0782C175.076 27.2649 172.667 26.2531 169.987 26.0243C170.997 24.3675 171.688 22.4076 171.854 20.5425C171.864 15.3388 167.873 11.9231 162.017 11.6929C156.583 11.6929 152.178 15.6547 152.178 20.5425C152.178 23.7089 155.087 26.9614 157.927 28.5518C156.825 29.1003 155.758 29.7416 154.723 30.4719C154.451 30.6643 154.179 30.8591 153.911 31.0644C151.167 33.1683 148.898 35.6828 147.466 38.8669C146.931 40.0524 146.601 41.2771 146.588 42.5951C146.568 44.8938 147.241 46.9652 148.572 48.8192C148.587 48.8403 148.598 48.8618 148.613 48.8834C150.362 51.2615 152.971 52.9643 155.986 53.532C156.003 53.5358 156.023 53.5386 156.042 53.5425C156.101 53.5545 156.161 53.5679 156.224 53.5837C158.039 54.0479 159.897 54.2073 161.005 54.2489C163.493 54.3078 165.175 54.0345 166.821 53.5344C172.355 51.8502 177.035 48.8202 180.949 44.6067C182.046 43.4265 182.993 42.1424 183.709 40.7172C185.348 41.4973 187.215 41.8395 189.144 41.6073C195.929 40.5602 198.52 35.9446 197.858 30.4245V30.4245ZM155.668 39.1651C154.926 39.8629 154.2 40.5903 153.482 41.3455C153.173 41.682 152.873 42.0189 152.589 42.3559C152.519 42.1146 152.462 41.8696 152.423 41.6298C152.358 41.3666 152.35 41.1134 152.381 40.8679C152.557 38.2361 156.397 34.2916 163.863 33.0707C161.026 34.7644 158.133 36.8927 155.668 39.1651V39.1651ZM163.217 47.6821C161.223 47.6821 159.551 47.4112 158.121 46.9594C158.272 46.7891 158.434 46.6125 158.601 46.4311C158.749 46.2071 158.952 46.0324 159.133 45.8462C159.622 45.3466 160.118 44.8546 160.618 44.3669C160.794 44.1956 160.974 44.0218 161.157 43.8471C161.372 43.6418 161.587 43.4389 161.804 43.2365C161.902 43.146 162 43.0536 162.1 42.9622C162.767 42.3472 163.442 41.7442 164.132 41.1565C168.21 37.6666 172.945 34.4117 175.818 34.3997C178.796 34.3997 179.327 36.7869 179.327 37.6972C179.327 43.1685 168.069 47.663 163.217 47.6821V47.6821Z"/><defs><linearGradient id="paint0_linear_404_233" x1="202.001" x2="202.001" y1="-.617" y2="160.045" gradientUnits="userSpaceOnUse"><stop stop-color="#2C8AC8"/><stop offset="1" stop-color="#21375F"/></linearGradient><linearGradient id="paint1_linear_404_233" x1="184.675" x2="184.675" y1=".274" y2="158.912" gradientUnits="userSpaceOnUse"><stop stop-color="#1C65AE"/><stop offset=".5" stop-color="#219ED4"/><stop offset=".6" stop-color="#196EA7"/><stop offset="1" stop-color="#183975"/></linearGradient></defs></svg>