<svg width="278" height="183" viewBox="0 0 278 183" fill="none" xmlns="http://www.w3.org/2000/svg"><path d="M266 113c7 5 12 13 12 23 0 15-5 24-13 33-8 8-22 13-39 13h-75v-21a31 31 0 0 0 0-58V35h20v17h19V19H91v33h20V35h19v68a31 31 0 0 0 0 58v21H0v-57h15v-18H0V51h72V0h138v51h10c14 0 28 3 37 10s16 17 16 32c0 5-2 14-7 20ZM111 71H76v36H54V71H19v18h16v55H19v19h35v-38h22v38h35v-19H96V89h15V71Zm117 92c19 0 30-11 30-28 0-10-5-18-14-22 7-4 9-11 9-18 0-16-13-24-30-24h-52v18h15v55h-15v19h57Zm-3-19h-18v-19h18c5 0 10 4 10 9 0 6-4 10-10 10Zm-3-37h-15V89h15c5 0 9 4 9 9s-4 9-9 9Zm-98 10a6 6 0 0 1 12 0c0 3-3 5-6 5s-6-2-6-5Z" fill="#00AA08"/></svg>