<svg xmlns="http://www.w3.org/2000/svg" width="322" height="69" fill="none" viewBox="0 0 322 69"><path fill="#ED1847" d="M80.3854 11.983C79.4552 6.57431 74.9733 0 59.8363 0C54.3818 0 48.8429 1.70568 47.4053 8.3214L43.6845 24.0074L39.9214 8.3214C38.3992 1.70568 33.0294 0 27.6173 0C12.1844 0 7.91386 6.57431 7.02593 11.983L0.176234 52.2597C-1.00767 59.2498 3.89706 65.8233 11.1695 66.9466C18.3998 68.0699 26.5602 64.7837 27.7018 56.3785L29.224 47.4748L32.6066 60.0401C33.875 65.033 38.2301 67.1131 43.7691 67.1131C49.308 67.1131 53.494 65.366 54.9315 59.9987L58.145 47.4325L59.7094 56.3371C61.147 64.4092 67.6585 67.0717 74.0853 67.0717C74.8041 67.0717 75.5229 67.0303 76.2417 66.9052C83.472 65.7819 88.3767 59.1661 87.2351 52.2174L80.3854 11.983Z"/><path fill="#4BBD2D" d="M307.429 0H276.812C266.676 0 262.199 6.33237 262.199 14.1238C262.199 21.9144 266.929 28.2468 274.277 28.2468H277.572L276.305 55.3279C276.305 62.5775 283.061 67.16 292.099 67.16C301.474 67.16 307.894 62.5352 307.894 55.3279L306.627 28.2468H309.921C317.311 28.2468 321.999 21.9144 321.999 14.1238C322.042 6.33237 317.86 0 307.429 0Z"/><path fill="#7E0122" d="M134.714 0C125.796 0 120.837 4.09584 119.546 9.94704L115.921 27.416L112.296 9.94704C110.212 1.29536 102.337 0 97.128 0C90.5446 0 79.1274 3.51072 83.9609 15.5885L94.5869 42.7119C90.7112 44.0082 88.7528 47.8529 88.7528 53.7455C88.7528 55.8771 89.2945 58.0088 90.4196 60.0144C91.5863 62.146 96.3782 69 108.462 69C125.504 69 131.254 57.3813 133.297 52.6176C133.422 52.2827 147.881 15.5471 147.881 15.5471C152.714 3.51072 141.297 0 134.714 0Z"/><path fill="#FDBF2F" d="M201.26 9.82008C198.201 4.577 191.248 0 177.968 0C165.86 0 156.434 5.4924 151.617 15.6041C147.721 23.7599 147.05 37.9491 147.009 38.3649C142.484 38.3649 137.08 43.275 137.08 51.2228C137.08 64.1636 145.375 67.16 152.664 67.16C161.211 67.16 168.709 62.7909 171.055 53.5946C172.354 48.4766 175.579 26.1731 177.968 26.1731L178.386 26.2145C178.386 26.2145 177.046 51.4308 177.046 54.0942C177.046 61.3346 182.031 67.16 191.457 67.16C196.736 67.16 200.757 65.745 203.229 63.2482C205.7 60.7522 207.041 57.3399 206.999 53.8448C206.999 53.2616 206.706 39.8213 205.7 27.6294C205.324 23.0938 204.611 15.5213 201.26 9.82008Z"/><path fill="#29ABE2" d="M247.449 19.4341C245.882 19.4341 241.138 20.1857 241.138 20.1857C241.138 20.1857 242.251 11.6601 241.138 6.8126C240.107 2.4242 235.156 0 230.001 0C214.738 0 208.261 6.60283 208.88 15.881C208.922 16.5085 210.324 37.8221 210.365 38.2407C211.355 51.9487 212.592 69 240.065 69C260.237 69 269.56 56.546 269.56 44.217C269.56 27.9597 261.887 19.4341 247.449 19.4341ZM244.686 43.8408C244.438 45.2198 243.035 46.1389 241.55 45.8887C240.065 45.6375 238.993 44.2584 239.24 42.8794C239.488 41.5003 240.891 40.5812 242.376 40.8314C243.902 41.124 244.933 42.4617 244.686 43.8408Z"/></svg>