<svg width="272" height="272" viewBox="0 0 272 272" fill="none" xmlns="http://www.w3.org/2000/svg">
<path fill-rule="evenodd" clip-rule="evenodd" d="M0 136.153C0 61.1924 60.8864 0 136.153 0C211.114 0 272 61.1924 272 136.153C272 211.114 211.114 272 136.153 272C60.8864 272 0 211.114 0 136.153ZM94.1664 136.512H85.6121V144.451H93.8609C98.7496 144.451 99.0552 142.62 99.0552 140.787C99.0552 138.649 98.4441 136.512 94.1664 136.512ZM92.6396 119.107H85.6121V125.214H93.5554C97.2219 125.214 97.2219 123.077 97.2219 122.16C97.2219 120.633 97.2219 119.107 92.6396 119.107ZM30.3105 119.717V106.893H94.472C105.777 106.893 111.277 111.473 111.277 120.328C111.277 123.992 110.055 127.046 107.61 129.489C111.583 131.932 113.721 136.207 113.721 141.398C113.721 150.559 106.388 156.666 95.3886 156.666H71.2523V119.717H58.4195V156.666H43.754V119.717H30.3105ZM120.748 96.2047V61.3936H217.602L188.577 115.137C202.02 123.382 215.157 137.428 215.157 159.414C215.157 183.843 200.798 204.302 177.272 212.853C169.939 215.601 162.301 216.822 154.662 216.822C136.636 216.822 118.915 209.494 104.555 196.363L122.276 163.69C125.942 171.018 132.664 178.347 142.441 181.095C158.634 185.676 172.077 179.874 175.438 167.354C178.799 155.139 170.856 141.398 154.662 137.123C151.302 136.207 147.941 135.901 144.58 135.901H137.552L159.245 96.2047H120.748Z" fill="#722282"/>
</svg>
