<svg width="300" height="144" viewBox="0 0 300 144" fill="none" xmlns="http://www.w3.org/2000/svg"><path fill-rule="evenodd" clip-rule="evenodd" d="M10 0h74a10 10 0 0 1 10 10v123.8a10 10 0 0 1-10 10H10a10 10 0 0 1-10-10V10A10 10 0 0 1 10 0Zm64 52.5.3-.9V40.8a1.2 1.2 0 0 0-1.1-1.1h-55a1.2 1.2 0 0 0-1 1.1v10.9a1.2 1.2 0 0 0 1 1.1h16.4a5 5 0 0 1 4.9 5v48.9a1.2 1.2 0 0 0 1.1 1.1h10.9a1.1 1.1 0 0 0 1.1-1.1v-49a5 5 0 0 1 5-5H73c.4 0 .7 0 .9-.2ZM113 0h74a10 10 0 0 1 10 10v123.8a10 10 0 0 1-10 10h-74a10 10 0 0 1-10-10V10A10 10 0 0 1 113 0Zm57.9 107.1V96a1.2 1.2 0 0 0-1-1.2h-20a6.3 6.3 0 0 1-6.4-6.3V40.8a1.1 1.1 0 0 0-1.1-1.1h-10.9a1.1 1.1 0 0 0-1.1 1.1v51.8c0 8.6 4.5 15.3 14.8 15.3h24.6a1.2 1.2 0 0 0 1-.8ZM216 0h74a10 10 0 0 1 10 10v123.8a10 10 0 0 1-10 10h-74a10 10 0 0 1-10-10V10A10 10 0 0 1 216 0Zm42.9 52.8c4 .6 7.8 2.4 10.9 5.2a1.2 1.2 0 0 0 1.6 0l7.7-7.7a1.2 1.2 0 0 0 0-1.5 34.4 34.4 0 1 0 0 50 1.1 1.1 0 0 0 0-1.6l-7.7-7.6a1.2 1.2 0 0 0-1.6 0 21.2 21.2 0 1 1-11-36.8Z" fill="#EA1C2D"/></svg>