<svg width="264" height="264" viewBox="0 0 264 264" fill="none" xmlns="http://www.w3.org/2000/svg"><path fill-rule="evenodd" clip-rule="evenodd" d="M235 49A132 132 0 1 0 29 215 132 132 0 0 0 235 49Zm-16 63 1-20h-58l1 7h1l18-1v45l18 14V98h2c11 0 16 7 16 19h1v-5Zm-104 50 5 5c15 15 46 15 60-4l-2-1c-10 9-22 10-31 7-12-5-20-16-19-32 1-15 9-28 25-28 13 0 20 10 22 21h1v-25l-24-3c-12 0-23 3-31 10l-6 6V87a632 632 0 0 1-31 0v1c5 0 12 4 12 12v27c-3 2-26 2-29 0V96a548 548 0 0 1-31 0v2c5 0 12 4 12 12a57342 57342 0 0 0 0 52h19v-27h29v42l19 14v-29Zm-67-27Z" fill="#000"/></svg>