<svg width="300" height="143" viewBox="0 0 300 143" fill="none" xmlns="http://www.w3.org/2000/svg">
<path d="M42.0783 111.41L27.0783 87.3858H18.1303V111.41H0V37.6738H28.174C47.1393 37.6738 58.5912 47.3718 58.5912 62.5298C58.5912 72.5398 53.6349 80.1318 44.7653 84.1098L62.139 111.41H42.0522H42.0783ZM18.1303 70.8498H30.6522C37.1217 70.8498 39.7043 66.5338 39.7043 62.5298C39.7043 58.5258 37.0957 54.2098 30.6522 54.2098H18.1303V70.8498Z" fill="#E142F6"/>
<path d="M140.633 37.6738V78.7538C140.633 100.906 126.807 113.048 107.112 113.048C87.3121 113.048 73.5898 100.906 73.5898 78.7278V37.6998H91.46V79.4038C91.46 89.9598 97.3291 96.5118 107.112 96.5118C116.921 96.5118 122.764 89.9598 122.764 79.4038V37.6738H140.633Z" fill="#E142F6"/>
<path d="M228.131 0C218.765 0.024 209.496 1.886 200.852 5.481C192.208 9.075 184.359 14.331 177.753 20.949C171.147 27.566 165.913 35.416 162.351 44.049C158.789 52.683 156.969 61.931 156.993 71.266C156.965 80.603 158.783 89.854 162.344 98.491C165.905 107.127 171.136 114.98 177.743 121.6C184.349 128.221 192.2 133.479 200.846 137.075C209.492 140.671 218.763 142.534 228.131 142.558C237.5 142.534 246.771 140.671 255.416 137.075C264.062 133.479 271.913 128.221 278.519 121.6C285.126 114.98 290.359 107.127 293.919 98.491C297.48 89.854 299.297 80.603 299.27 71.266C299.294 61.931 297.474 52.683 293.911 44.049C290.349 35.416 285.116 27.566 278.51 20.949C271.904 14.331 264.055 9.075 255.411 5.481C246.767 1.886 237.498 0.024 228.131 0ZM251.348 99.45H241.488L224.609 61.1H209.766V99.45H197.923V61.1H183.131V50.024H233.036L245.74 80.236L246.443 82.42L247.149 80.236L259.826 50.024H273.131L251.348 99.45Z" fill="#E142F6"/>
</svg>
