<svg xmlns="http://www.w3.org/2000/svg" width="266" height="266" fill="none" viewBox="0 0 266 266"><path fill="#8CFF05" fill-rule="evenodd" d="M82 10.1411L103.294 61.4011C112.445 57.5999 122.477 55.497 133.002 55.497C143.418 55.497 153.352 57.5583 162.428 61.2862L183.719 10.0252C168.088 3.56836 150.962 0 133.003 0C114.933 0 97.7081 3.61225 82 10.1411Z" clip-rule="evenodd"/><path fill="#007DE6" fill-rule="evenodd" d="M183.743 255.962L162.45 204.701C153.368 208.436 143.424 210.501 132.999 210.501C122.465 210.501 112.422 208.394 103.266 204.585L81.9727 255.846C97.6869 262.381 114.921 265.998 133.001 265.998C150.969 265.998 168.105 262.424 183.743 255.962Z" clip-rule="evenodd"/><path fill="#007DE6" fill-rule="evenodd" d="M9.97049 183.583L61.5087 162.969C57.6377 153.748 55.4965 143.624 55.4965 132.998C55.4965 122.344 57.6485 112.191 61.5404 102.95L10.2799 81.6572C3.66075 97.4575 0 114.8 0 132.998C0 150.907 3.54939 167.988 9.97049 183.583Z" clip-rule="evenodd"/><path fill="#8CFF05" fill-rule="evenodd" d="M204.442 163.082L255.982 183.698C262.432 168.072 265.998 150.953 265.998 132.999C265.998 114.755 262.321 97.3697 255.67 81.541L204.41 102.835C208.332 112.107 210.501 122.3 210.501 132.999C210.501 143.667 208.342 153.831 204.442 163.082Z" clip-rule="evenodd"/><path fill="#0061CF" fill-rule="evenodd" d="M81.9718 255.846L103.265 204.585C84.4572 196.763 69.3901 181.745 61.5075 162.97L9.9707 183.584C23.3996 216.198 49.4147 242.305 81.9718 255.846Z" clip-rule="evenodd"/><path fill="#00CC4F" fill-rule="evenodd" d="M162.451 204.7L183.743 255.961C216.394 242.468 242.499 216.351 255.982 183.697L204.443 163.081C196.508 181.897 181.352 196.926 162.451 204.7Z" clip-rule="evenodd"/><path fill="#00CC4F" fill-rule="evenodd" d="M10.2812 81.6594L61.5408 102.952C69.4359 84.2024 84.4994 69.2116 103.292 61.4017L81.9981 10.1416C49.6834 23.5773 23.8018 49.3875 10.2812 81.6594Z" clip-rule="evenodd"/><path fill="#C2FF08" fill-rule="evenodd" d="M204.41 102.835L255.67 81.5408C242.096 49.2291 216.125 23.4101 183.717 10.0254L162.426 61.2862C181.312 69.0469 196.461 84.0465 204.41 102.835Z" clip-rule="evenodd"/><path fill="#000" d="M184.122 126.952C184.122 125.769 183.684 124.917 182.806 124.395C181.927 123.873 180.78 123.613 179.359 123.613H175.942V130.655H179.359C180.78 130.655 181.927 130.376 182.806 129.82C183.684 129.263 184.122 128.429 184.122 127.317V126.952ZM197.233 127.317C197.233 130.028 196.671 132.263 195.552 134.018C194.43 135.775 192.993 137.166 191.236 138.192C189.482 139.219 187.548 139.931 185.439 140.33C183.329 140.73 181.303 140.931 179.359 140.931C178.799 140.931 178.286 140.922 177.818 140.905C177.353 140.886 176.727 140.861 175.942 140.825V151.571C175.942 151.849 175.83 152.092 175.604 152.301C175.382 152.509 175.119 152.614 174.821 152.614H164.065C163.766 152.614 163.495 152.544 163.253 152.405C163.009 152.266 162.888 152.058 162.888 151.78V118.397C162.888 117.598 162.953 116.937 163.085 116.415C163.215 115.894 163.43 115.468 163.727 115.137C164.026 114.807 164.429 114.555 164.932 114.381C165.437 114.207 166.063 114.068 166.81 113.964C167.52 113.859 168.37 113.772 169.358 113.703C170.349 113.633 171.405 113.572 172.525 113.52C173.644 113.467 174.774 113.425 175.915 113.389C177.053 113.355 178.109 113.338 179.081 113.338C181.134 113.338 183.236 113.537 185.382 113.937C187.53 114.337 189.482 115.041 191.236 116.049C192.993 117.058 194.43 118.441 195.552 120.196C196.671 121.952 197.233 124.204 197.233 126.952V127.317ZM120.42 114.902C120.42 114.624 120.532 114.381 120.757 114.173C120.98 113.964 121.241 113.859 121.541 113.859H131.794C132.092 113.859 132.353 113.964 132.577 114.173C132.801 114.381 132.913 114.624 132.913 114.902V129.715C132.913 129.959 132.942 130.098 132.998 130.133C133.054 130.168 133.12 130.185 133.194 130.185C133.268 130.185 133.343 130.168 133.418 130.133C133.493 130.098 133.606 129.959 133.754 129.715L143.167 115.32C143.39 114.937 143.67 114.599 144.007 114.303C144.343 114.006 144.773 113.859 145.296 113.859H154.485C155.008 113.859 155.466 114.041 155.858 114.406C156.248 114.771 156.446 115.198 156.446 115.685V151.571C156.446 151.849 156.324 152.092 156.079 152.301C155.839 152.509 155.567 152.614 155.27 152.614H145.016C144.717 152.614 144.446 152.509 144.201 152.301C143.961 152.092 143.84 151.849 143.84 151.571V137.174C143.84 136.861 143.744 136.706 143.559 136.706H143.502C143.428 136.706 143.363 136.723 143.306 136.756C143.251 136.792 143.147 136.914 142.998 137.123L133.754 151.467C133.568 151.78 133.325 152.049 133.026 152.275C132.728 152.5 132.373 152.614 131.96 152.614H122.381C121.858 152.614 121.4 152.431 121.008 152.065C120.616 151.702 120.42 151.276 120.42 150.788V114.902ZM113.697 152.04C113.697 152.319 113.594 152.483 113.39 152.535C113.183 152.588 112.988 152.614 112.801 152.614H101.763C101.541 152.614 101.353 152.509 101.203 152.301C101.054 152.092 100.979 151.849 100.979 151.571V135.245C100.979 135.036 100.97 134.906 100.951 134.853C100.932 134.802 100.83 134.776 100.644 134.776C100.494 134.776 100.307 134.932 100.084 135.245L95.937 140.982C95.6382 141.365 95.3864 141.626 95.1816 141.765C94.975 141.904 94.7232 141.973 94.4244 141.973H91.1748C90.876 141.973 90.6242 141.904 90.4176 141.765C90.2128 141.626 89.9609 141.365 89.663 140.982L85.5161 135.245C85.2918 134.932 85.1065 134.776 84.9558 134.776C84.7696 134.776 84.6667 134.802 84.6481 134.853C84.6295 134.906 84.6197 135.036 84.6197 135.245V151.571C84.6197 151.849 84.5452 152.092 84.3954 152.301C84.2464 152.509 84.0593 152.614 83.8341 152.614H72.7988C72.6117 152.614 72.4148 152.588 72.2109 152.535C72.0043 152.483 71.9023 152.319 71.9023 152.04V115.685C71.9023 115.198 72.0983 114.771 72.4902 114.406C72.8812 114.041 73.3396 113.859 73.8619 113.859H81.2007C82.0608 113.859 82.7249 113.998 83.1913 114.276C83.6586 114.555 84.078 114.99 84.4512 115.579L92.1271 127.108C92.3514 127.49 92.5757 127.681 92.7991 127.681C93.0235 127.681 93.2478 127.49 93.4721 127.108L101.147 115.579C101.521 114.99 101.941 114.555 102.409 114.276C102.875 113.998 103.537 113.859 104.397 113.859H111.736C112.26 113.859 112.717 114.041 113.109 114.406C113.502 114.771 113.697 115.198 113.697 115.685V152.04Z"/></svg>