<svg width="433" height="500" viewBox="0 0 433 500" fill="none" xmlns="http://www.w3.org/2000/svg"><path d="M40 367v-7h3c6 0 11-2 16-5 6-4 9-10 10-17l1-5V33c0-3-2-15-11-21-8-5-14-5-16-5h-3V0h142v7h-2c-2 0-9 0-16 5-10 6-11 18-11 21v98h126V33c0-3-1-15-11-21-7-5-14-5-16-5h-2V0h142v7h-3c-2 0-8 0-16 5-10 6-11 18-11 21v300s0 16 11 22c8 5 14 5 16 5h3v7H250v-7h2c2 0 9 0 16-5 9-5 11-16 11-20V210H153l-1 123v3c1 5 3 15 12 20 7 5 13 4 15 4h2v7H40Zm67-34h7V173h204v160h7V28h-7v139H114V28h-7v305Z" fill="url(#a)" fill-opacity=".3"/><path d="M40 367v-7h3c6 0 11-2 16-5 6-4 9-10 10-17l1-5V33c0-3-2-15-11-21-8-5-14-5-16-5h-3V0h142v7h-2c-2 0-9 0-16 5-10 6-11 18-11 21v98h126V33c0-3-1-15-11-21-7-5-14-5-16-5h-2V0h142v7h-3c-2 0-8 0-16 5-10 6-11 18-11 21v300s0 16 11 22c8 5 14 5 16 5h3v7H250v-7h2c2 0 9 0 16-5 9-5 11-16 11-20V210H153l-1 123v3c1 5 3 15 12 20 7 5 13 4 15 4h2v7H40Zm67-34h7V173h204v160h7V28h-7v139H114V28h-7v305Z" fill="url(#b)" fill-opacity=".6"/><path d="M432 391H0v8h432v-8Z" fill="#EE2D2B"/><path d="M42 365v-3h3c2 0 8-1 15-5 12-7 11-22 11-23V32c0-4-1-16-11-22-7-4-13-5-15-5h-4V2h139v3h-2c-2 0-8 1-16 5-9 6-11 18-11 22v100h130V32c0-4-2-16-11-22-8-4-14-5-16-5h-2V2h139v3h-4c-2 0-8 1-15 5-10 6-11 18-11 21v303c-1 1-1 16 11 23 7 4 13 5 15 5h4v3H252v-3h2c2 0 8 0 16-5 9-5 10-16 11-20V208H151v129c0 4 2 15 11 20 7 4 14 5 16 5h2v3H42Zm64-30h9V175h201v160h10V27h-10v138H115V27h-9v308Z" fill="url(#c)"/><path d="M42 365v-3h3c2 0 8-1 15-5 12-7 11-22 11-23V32c0-4-1-16-11-22-7-4-13-5-15-5h-4V2h139v3h-2c-2 0-8 1-16 5-9 6-10 18-11 22v100h130V32c0-4-2-16-11-22-8-4-14-5-16-5h-2V2h139v3h-4c-2 0-8 1-15 5-10 6-11 18-11 21v303c-1 1-1 16 11 23 7 4 13 5 15 5h4v3H252v-3h2c2 0 8 0 16-5 9-5 10-16 11-20V208H151v129c0 4 2 15 11 20 7 4 14 5 16 5h2v3H42Zm64-30h9V175h201v160h10V27h-10v138H115V27h-9v308Z" fill="url(#d)"/><path d="M42 365v-3h3c5 0 11-2 16-5 6-4 9-11 10-18V32c0-4-1-16-11-22-7-4-13-5-15-5h-4V2h139v3h-2c-2 0-8 1-16 5-9 6-10 18-11 22v100h130V32c0-4-2-16-11-22-8-4-14-5-16-5h-2V2h139v3h-4c-2 0-8 1-15 5-10 6-11 18-11 21v303c0 1-1 16 11 23 7 4 13 5 15 5h4v3H252v-3h2c2 0 8 0 16-5 9-5 10-16 11-20V208H151v130c0 4 2 14 11 20 8 4 14 4 16 4h2v3H42Zm64-30h9V175h201v160h10V27h-10v138H115V27h-9v308Z" fill="url(#e)"/><path d="M42 365v-3h3c5 0 11-2 16-5 6-4 9-11 10-18V32c0-4-1-16-11-22-7-4-13-5-15-5h-4V2h139v3h-2c-2 0-8 1-16 5-9 6-10 18-11 22v100h130V32c0-4-2-16-11-22-8-4-14-5-16-5h-2V2h139v3h-4c-2 0-8 1-15 5-10 6-11 18-11 21v303c0 1-1 16 11 23 7 4 13 5 15 5h4v3H252v-3h2c2 0 8 0 16-5 9-5 10-16 11-20V208H151v130c0 4 2 14 11 20 8 4 14 4 16 4h2v3H42Zm64-30h9V175h201v160h10V27h-10v138H115V27h-9v308Z" fill="url(#f)"/><path d="M19 453h29v-28h16v74H48v-30H19v30H3v-74h16v28ZM94 499H78v-74h16v74ZM131 452l9 4c12 4 18 11 18 21 0 14-13 23-26 23-12 0-23-6-28-18l14-7c2 6 8 10 14 10 5 0 9-2 9-7 0-4-2-6-7-8l-9-3c-11-4-18-11-18-21 0-14 11-22 24-22 11 0 21 6 25 15l-13 8c-2-5-6-9-11-9s-8 3-8 7c0 3 2 5 7 7ZM183 440h-19v-15h55v15h-20v59h-16v-59Z" fill="#000"/><path fill-rule="evenodd" clip-rule="evenodd" d="M222 462c0-22 17-38 39-38a38 38 0 1 1 0 76c-22 0-39-17-39-38Zm16 0c0 13 10 23 23 23 12 0 22-10 22-23s-10-23-22-23c-13 0-23 10-23 23ZM334 425c16 0 27 8 27 23 0 11-7 18-15 22l20 29h-19l-18-27h-4v27h-16v-74h25Zm-9 34h9c6 0 11-4 11-10s-5-10-11-10h-9v20Z" fill="#000"/><path d="m398 452 16-27h18l-26 42v32h-16v-32l-27-42h19l16 27ZM419 488h-8v2h3v9h2v-9h3v-2ZM421 488h2l4 7 3-7h3v11h-3v-7l-3 7h-1l-3-7v7h-2v-11Z" fill="#000"/><defs><linearGradient id="a" x1="74.1" y1="280" x2="363.1" y2="97.4" gradientUnits="userSpaceOnUse"><stop stop-color="#DD972C"/><stop offset=".3" stop-color="#F8CB45"/><stop offset=".7" stop-color="#F2AC2F"/><stop offset="1" stop-color="#FDDB50"/></linearGradient><linearGradient id="b" x1="71.7" y1="171" x2="362.7" y2="270.6" gradientUnits="userSpaceOnUse"><stop stop-color="#DD972C"/><stop offset=".3" stop-color="#B55727"/><stop offset=".5" stop-color="#F2AC2F"/><stop offset=".8" stop-color="#E5B544"/><stop offset="1" stop-color="#FDDB50"/></linearGradient><linearGradient id="c" x1="41.4" y1="183.6" x2="390.7" y2="183.6" gradientUnits="userSpaceOnUse"><stop offset=".2" stop-color="#EE9322"/><stop offset=".4" stop-color="#F2AC2F"/><stop offset=".7" stop-color="#F8CB45"/><stop offset=".9" stop-color="#FCDE54"/><stop offset="1" stop-color="#FEE55A"/></linearGradient><linearGradient id="d" x1="306.7" y1="334.3" x2="214.6" y2="182.2" gradientUnits="userSpaceOnUse"><stop offset=".4" stop-color="#B55727"/><stop offset=".5" stop-color="#BD6829"/><stop offset=".5" stop-color="#CB8331" stop-opacity=".9"/><stop offset=".6" stop-color="#D89D3A" stop-opacity=".8"/><stop offset=".6" stop-color="#E4B442" stop-opacity=".7"/><stop offset=".7" stop-color="#EEC749" stop-opacity=".6"/><stop offset=".8" stop-color="#F6D54E" stop-opacity=".5"/><stop offset=".9" stop-color="#FCDE52" stop-opacity=".4"/><stop offset="1" stop-color="#FEE153" stop-opacity=".2"/></linearGradient><linearGradient id="e" x1="216" y1="313.5" x2="216" y2="182.1" gradientUnits="userSpaceOnUse"><stop stop-color="#B55727" stop-opacity=".7"/><stop offset=".1" stop-color="#BF6C2A" stop-opacity=".6"/><stop offset=".6" stop-color="#DCA43C" stop-opacity=".5"/><stop offset=".8" stop-color="#F2CE4C" stop-opacity=".4"/><stop offset="1" stop-color="#FEE153" stop-opacity=".3"/></linearGradient><linearGradient id="f" x1="65.2" y1="357.5" x2="151.5" y2="9.5" gradientUnits="userSpaceOnUse"><stop stop-color="#B55727" stop-opacity=".7"/><stop offset=".4" stop-color="#BF6C2A" stop-opacity=".6"/><stop offset=".8" stop-color="#F2CE4C" stop-opacity=".4"/><stop offset="1" stop-color="#FEE153" stop-opacity=".3"/></linearGradient></defs></svg>