<svg width="288" height="167" viewBox="0 0 288 167" fill="none" xmlns="http://www.w3.org/2000/svg"><path d="M98.5 54.4h-68L0 0h68.1l30.4 54.4ZM98.5 62.4h-68L0 116.8h68.1l30.4-54.4ZM193.3 54.4H125L94.7 0h68.1l30.5 54.4ZM193.3 62.4H125l-30.4 54.4h68.1l30.5-54.4ZM288 54.4h-68.1L189.4 0h68.2L288 54.4ZM288 62.4h-68.1l-30.5 54.4h68.2L288 62.4ZM13 156.8H4.4v9.6H0v-23h4.5v9.3H13v-9.3h4.5v23H13v-9.6ZM32.7 161.3h-7.1l-1.7 5.1h-4.5l8.2-23.1H31l8.2 23.1h-4.7l-1.8-5Zm-6-3.6h5l-1.7-5.2-.7-3.6H29l-.7 3.7-1.7 5ZM41.1 166.4v-23h4.6v19H51v-19h4.5v19H61v-19h4.5v23H41.1ZM69.8 143.4h13.7v4h-9.2v5.3h8.3v4h-8.3v5.7h9.3v4H69.8v-23ZM109 156.8h-8.4v9.6H96v-23h4.5v9.3h8.4v-9.3h4.5v23H109v-9.6ZM116.5 155c0-4 .9-6.9 2.5-9a8.8 8.8 0 0 1 7.2-3c1.5 0 3 .2 4.3.8a8 8 0 0 1 3 2.5c1 1 1.6 2.4 2 3.7.3 1.6.5 3.3.5 5 0 3.8-.9 6.7-2.6 8.8a8.8 8.8 0 0 1-7.2 3.1c-1.5 0-3-.2-4.3-.8a7.9 7.9 0 0 1-3-2.5c-.9-1.1-1.5-2.4-1.8-3.8-.4-1.6-.6-3.2-.6-4.9Zm4.8 0c0 1 0 2 .3 3.1.1.9.4 1.7.9 2.5a4.1 4.1 0 0 0 3.8 2.2 4.3 4.3 0 0 0 3.7-1.9c1-1.8 1.5-4 1.3-6 0-1 0-2.1-.3-3.2a9 9 0 0 0-.9-2.4c-.3-.7-.9-1.3-1.5-1.7a4.6 4.6 0 0 0-6 1.3 11 11 0 0 0-1.3 6ZM154.5 148.8c0 .5 0 1.1-.2 1.7a5 5 0 0 1-.7 1.5c-.3.5-.8 1-1.2 1.3-.6.4-1.3.6-2 .8v.2c.7 0 1.3.3 2 .5a4.6 4.6 0 0 1 2.5 2.8c.3.7.4 1.5.4 2.3a6 6 0 0 1-2.8 5.2c-.9.6-1.9 1-2.9 1.3-1 .2-2.2.3-3.3.3H143l-2-.1c-.7 0-1.3-.2-2-.3v-22.7l1.5-.2 1.7-.2h3.8c1 0 2.1 0 3.2.2a9 9 0 0 1 2.7.8 4.7 4.7 0 0 1 2.6 4.6ZM145 153h1l1-.1a6 6 0 0 0 2.2-1.2 2.6 2.6 0 0 0 1-2c0-.5-.2-1-.4-1.4-.2-.4-.5-.7-.9-1l-1.2-.4-1.5-.1h-2.7v6.2h1.5Zm1.4 9.8c.5 0 1 0 1.6-.2.5 0 1-.3 1.3-.6.4-.2.7-.6 1-1 .2-.4.3-1 .3-1.4a3 3 0 0 0-.4-1.7 3 3 0 0 0-1.1-1c-.5-.2-1-.4-1.5-.4l-1.7-.1h-2.4v6.2l.6.1h1.5l.8.1ZM157.5 155c0-4 .9-6.9 2.5-9a8.8 8.8 0 0 1 7.3-3c1.4 0 3 .2 4.3.8a8 8 0 0 1 3 2.5c.9 1 1.5 2.4 1.8 3.7.4 1.6.6 3.3.6 5 0 3.8-.8 6.7-2.5 8.8a8.8 8.8 0 0 1-7.2 3.1c-1.5 0-3-.2-4.4-.8a7.9 7.9 0 0 1-3-2.5c-.9-1.1-1.5-2.4-1.8-3.8-.4-1.6-.6-3.2-.6-4.9Zm4.7 0 .3 3.1c.2.9.5 1.7 1 2.5a4.1 4.1 0 0 0 3.8 2.2 4.3 4.3 0 0 0 3.7-1.9c1-1.8 1.4-4 1.3-6l-.3-3.2c-.2-.8-.5-1.7-.9-2.4-.3-.7-.9-1.3-1.5-1.7-.7-.4-1.5-.7-2.4-.6a4.2 4.2 0 0 0-3.7 1.9 11 11 0 0 0-1.3 6ZM180 143.4h13.7v4h-9.1v5.3h8.3v4h-8.3v5.7h9.2v4H180v-23ZM212 156.6h-1.3v9.8h-4.4v-23h4.5v10.2l1-.5 6.4-9.7h5.1l-6.7 9.7-1.7 1.2 1.8 1.2 7.7 10.8h-5.6l-6.8-9.7ZM239.2 153.7l.2-3h-.1l-1.6 3-8.6 12.7h-3.4v-23h4.5V156l-.3 3.1h.2l1.6-3.2 8.6-12.4h3.4v23h-4.5v-12.7ZM261 156.8h-8.5v9.6H248v-23h4.5v9.3h8.5v-9.3h4.5v23H261v-9.6ZM268.5 155c0-4 .8-6.9 2.5-9a8.8 8.8 0 0 1 7.2-3c1.5 0 3 .2 4.3.8 1.2.6 2.3 1.4 3 2.5 1 1 1.6 2.4 1.9 3.7.4 1.6.6 3.3.6 5 0 3.8-.8 6.7-2.5 8.8a8.8 8.8 0 0 1-7.3 3.1c-1.4 0-3-.2-4.3-.8a7.9 7.9 0 0 1-3-2.5c-.9-1.1-1.5-2.4-1.8-3.8-.4-1.6-.6-3.2-.6-4.9Zm4.7 0 .3 3.1c.2.9.5 1.7 1 2.5a4.1 4.1 0 0 0 3.8 2.2 4.3 4.3 0 0 0 3.6-1.9c1-1.8 1.5-4 1.4-6l-.3-3.2c-.2-.8-.5-1.7-.9-2.4s-.9-1.3-1.5-1.7c-.7-.4-1.6-.7-2.4-.6a4.2 4.2 0 0 0-3.7 1.9c-1 1.8-1.4 4-1.3 6Z" fill="#282828"/></svg>