<svg width="300" height="139" viewBox="0 0 300 139" fill="none" xmlns="http://www.w3.org/2000/svg"><mask id="a" style="mask-type:alpha" maskUnits="userSpaceOnUse" x="0" y="0" width="300" height="139"><path d="M124 0H14.6A14.6 14.6 0 0 0 0 14.6V124a14.6 14.6 0 0 0 14.6 14.5H124a14.6 14.6 0 0 0 14.6-14.5V14.6A14.6 14.6 0 0 0 124 0ZM93.3 114l-7.8-22H59.2l1-2.8c.4-1.3.4-2.4-.6-2.6-1-.2-.8-1.1-.1-1.5.6-.5 2.1-1 6-2.9s1.4-3.2.1-4a2.4 2.4 0 0 1-.7-2.4h14.8l-10-28.6-9.5 27s-1.3 2.7.2 4c1.6 1.2 3.8 2.2 0 4-4 1.8-5.5 2.4-6.1 2.9-.6.4-1 1.3.1 1.5 1 .2 1 1.3.6 2.6l-.8 1.9-8 22.9H28.8l8-22.9.8-2c.5-1.3.5-2.4-.5-2.6-1-.2-.8-1-.2-1.5l6-2.9c4-1.9 1.5-3.1.2-4-1.5-1.2-.3-4-.3-4v-.4L61 22.5h17.3l18.3 51.6.1.4a7.9 7.9 0 0 0 2.9 3.4c2.3 1.7 7.4 2.4 3.5 4.3-1.6.7-3.2 1.5-4.6 2.4-.7.4-.7 1.4.6 2 1 .5 2.3 1 2.7 2.2l.6 2v.2l8 23H93.4ZM181.7 32.7h-12.3V42h-2V22h2v8.7h12.3V22h2V42h-2v-9.2ZM198.5 21.9a10 10 0 1 1-10 10 9.8 9.8 0 0 1 10-10Zm0 18.2a7.8 7.8 0 0 0 8-8 8 8 0 1 0-8 8ZM213.3 22.1h2l8.1 10.4 7.7-10.4h2V42h-2V25.2l-7.7 10.1h-.3l-7.8-10v16.6h-2V22ZM239.3 22.1H251v2h-9.7V31h8.7v2h-8.8v7h10v2h-11.9V22ZM273.5 21.9a10 10 0 1 1-10 10 9.8 9.8 0 0 1 10-10Zm0 18.2a7.8 7.8 0 0 0 8-8 8 8 0 1 0-8 8ZM288.3 22.1H300v2h-9.7v7.4h8.9v2h-8.9V42h-2V22ZM293.6 63.1a3.1 3.1 0 1 1 6.3 0 3.1 3.1 0 0 1-6.3 0Zm3.2 2.6a2.6 2.6 0 1 0-2.6-2.6 2.5 2.5 0 0 0 2.6 2.6Zm-.7-.8h-.5v-3.6h1.3c.9 0 1.3.3 1.3 1a1 1 0 0 1-.6 1 1 1 0 0 1-.3 0l1 1.6h-.6l-1-1.5h-.6v1.5Zm.7-2c.4 0 .8 0 .8-.6s-.4-.5-.8-.5h-.7v1.1h.7ZM206.3 113.8h-14.6V93.1h-9.4v20.7h-15V60.3h15v19.9h9.5V60.3h14.5v53.5Zm66.5.3a27.4 27.4 0 0 0 21.3-44.4 27.2 27.2 0 0 0-45.8 5.2c0-6.7-6.6-14.6-14.3-14.6h-24.7v53.5h23a16.1 16.1 0 0 0 16-15 27.3 27.3 0 0 0 24.6 15.3h-.1Zm-42.3-21.8a4.6 4.6 0 0 1 0 9H223v-9h7.4Zm0-20.2a4.6 4.6 0 0 1 0 9H223v-8.9h7.4Zm9.7 14.4c2.2-.5 4-1.7 5.5-3.3a25 25 0 0 0 0 7.4 10.4 10.4 0 0 0-5.4-4Zm19 0a13.6 13.6 0 1 1 0 .2v-.2Zm13.6 10.7a10.7 10.7 0 1 0-9.9-6.4 10.7 10.7 0 0 0 10 6.6v-.2Z" fill="#A71C37"/></mask><g mask="url(#a)"><path d="M319-.4H-2v139h321V-.4Z" fill="url(#b)"/></g><defs><linearGradient id="b" x1="135" y1="138.6" x2="135" y2="-.4" gradientUnits="userSpaceOnUse"><stop stop-color="#585857"/><stop offset="1" stop-color="#C4C4C4"/></linearGradient></defs></svg>