<svg width="530" height="105" viewBox="0 0 530 105" fill="none" xmlns="http://www.w3.org/2000/svg"><g clip-path="url(#a)" fill="#FF0A8D"><path d="M107.8 1.8 67.1 42.6a4.2 4.2 0 0 0 0 5.9l40.8 40.8a4.2 4.2 0 0 0 7-3V4.8a4.2 4.2 0 0 0-7-3Zm-60 40.8L7.1 1.8a4.2 4.2 0 0 0-7.1 3v81.5a4.2 4.2 0 0 0 7.1 3l40.7-40.8a4.2 4.2 0 0 0 0-6ZM60.4 55a4.2 4.2 0 0 0-5.9 0L13.8 96a4.2 4.2 0 0 0 3 7.1h81.4a4.2 4.2 0 0 0 3-7.1L60.4 55ZM287.4 3h-13.9a17 17 0 0 0-14.2 7.7l-26.5 40.6a3.5 3.5 0 0 1-5.8 0l-26.4-40.6A17 17 0 0 0 186.3 3h-13.8a2.5 2.5 0 0 0-2.5 2.5v95a2.5 2.5 0 0 0 2.5 2.5h22a2.5 2.5 0 0 0 2.5-2.5V52.4l18.2 26a18 18 0 0 0 29.5 0l18.2-26v48a2.5 2.5 0 0 0 2.5 2.6h22a2.5 2.5 0 0 0 2.5-2.5v-95a2.5 2.5 0 0 0-2.5-2.5Zm135.4 0h-24.6a5 5 0 0 0-4.3 2.5l-25.4 43h-2a5 5 0 0 1-4.1-2.3L336 5.3a5 5 0 0 0-4.2-2.3H307a2.5 2.5 0 0 0-2 4l36.2 54.8a14.3 14.3 0 0 0 12 6.5h3.2l-20.3 30.9a2.5 2.5 0 0 0 2 3.8h24.6a5 5 0 0 0 4.3-2.3l58-93.9a2.5 2.5 0 0 0-2.1-3.8h-.1ZM508 50c11.5-5.5 17.1-12.7 17.1-22 0-7.7-3.6-14.3-10.9-19.7-7-5.5-22.5-8.3-35.3-8.3-12.5 0-29 2.4-40.3 7.4a4 4 0 0 0-2.3 3.6v20a2 2 0 0 0 3 1.8 76 76 0 0 1 35.2-8c12.5 0 24 3.1 24 8.7 0 6-12.6 8.1-22.9 8.1h-8.8a2.5 2.5 0 0 0-2.4 2.5v15.5a2.5 2.5 0 0 0 2.5 2.5h8.7c13.3 0 26.3 3.4 26.3 9 0 6.2-13.6 9.2-27.2 9.2-12 0-28.9-3.3-38-10a2 2 0 0 0-3.2 1.5v22.5A4 4 0 0 0 436 98c11 4.6 28.3 7 42.4 7 14 0 30.5-2.6 39-8C526 91.8 530 84.8 530 76c0-12.4-7.3-21.1-22-26Z"/></g><defs><clipPath id="a"><path fill="#FF0A8D" d="M0 0h530v105H0z"/></clipPath></defs></svg>