<svg width="219" height="270" viewBox="0 0 219 270" fill="none" xmlns="http://www.w3.org/2000/svg"><path fill-rule="evenodd" clip-rule="evenodd" d="M205.72 170.06a12.85 12.85 0 1 0 0-25.69 12.85 12.85 0 0 0 0 25.7Zm-48.13 0a12.84 12.84 0 1 0 .02-25.68 12.84 12.84 0 0 0-.02 25.68Zm-48.12 0a12.85 12.85 0 1 0 0-25.69 12.85 12.85 0 0 0 0 25.7Zm-48.12 0a12.84 12.84 0 1 0 0-25.68 12.84 12.84 0 0 0 0 25.68Zm-48.13 0a12.84 12.84 0 1 0-.02 0h.02Zm192.5-48.12a12.84 12.84 0 1 0 0-25.69 12.84 12.84 0 0 0 0 25.7Zm-48.13 0a12.83 12.83 0 1 0 .03-25.67 12.83 12.83 0 0 0-.03 25.67Zm-48.12 0a12.84 12.84 0 1 0 0-25.67 12.84 12.84 0 0 0 0 25.67Zm-48.12 0a12.84 12.84 0 1 0 0-25.68 12.84 12.84 0 0 0 0 25.68Zm-48.13 0a12.84 12.84 0 1 0-.02 0h.02Zm192.5-48.13a12.84 12.84 0 1 0-.02-25.68 12.84 12.84 0 0 0 .02 25.68Zm-48.12 0a12.83 12.83 0 1 0-.02-25.67 12.83 12.83 0 0 0 .02 25.67Zm-96.25 0a12.84 12.84 0 1 0-.02-25.67 12.84 12.84 0 0 0 .02 25.67Zm-48.13 0a12.82 12.82 0 1 0-.02 0h.02Zm192.5-48.13a12.84 12.84 0 1 0 0-25.67 12.84 12.84 0 0 0 0 25.67Zm-192.52 0A12.84 12.84 0 1 0 13.25 0a12.84 12.84 0 0 0-.05 25.68Z" fill="url(#a)"/><path d="M61.6 269.85a4.8 4.8 0 0 1-4.8-4.82v-32.27l-14.48 11.86-16.23 12.99a4.82 4.82 0 0 1-6.02-7.5l5.31-4.25-15.75-12.98v32.18a4.82 4.82 0 0 1-9.63 0v-42.41a4.8 4.8 0 0 1 7.88-3.72l25.2 20.76 3.19-2.57 22.32-18.2a4.83 4.83 0 0 1 7.87 3.73v42.38a4.83 4.83 0 0 1-4.85 4.82ZM212.76 248l-6.26-4.15.68-.47 6.45-4.3a11.41 11.41 0 0 0 4.62-12.87c-1.56-5.14-6.28-8.37-12.31-8.37h-48.98a4.82 4.82 0 1 0 0 9.63h49c.98 0 2.69.2 3.1 1.52a1.84 1.84 0 0 1-.74 2.06c-5.08 3.38-6.5 4.35-6.5 4.35l-4 2.67-6.81-4.52a4.81 4.81 0 1 0-5.32 8.02l22 14.59c.9.53 1.9 1.39 1.6 2.49a2.27 2.27 0 0 1-2.25 1.57h-50.08a4.83 4.83 0 0 0-4.63 6.7 4.81 4.81 0 0 0 4.63 2.93h50.07a11.91 11.91 0 0 0 11.53-8.68c1.38-5.13-.98-10.32-5.8-13.17ZM102.28 270a4.82 4.82 0 0 1-4.8-4.81v-8.66a4.8 4.8 0 0 1 2.12-4l33.77-22.69a1.4 1.4 0 0 0 .58-1.41c-.03-.18-.1-.34-.2-.5a1.39 1.39 0 0 0-1.92-.38l-23.9 16.05a4.83 4.83 0 0 1-5.47-.07l-23.8-16.87a4.8 4.8 0 1 1 5.57-7.85l21.09 14.93 21.14-14.2a11 11 0 0 1 16.94 11.27 10.9 10.9 0 0 1-4.66 7.01L107.1 259.1v6.08a4.82 4.82 0 0 1-4.8 4.83h-.02Z" fill="#000"/><defs><linearGradient id="a" x1="17.2" y1="180.3" x2="203.76" y2="-6.26" gradientUnits="userSpaceOnUse"><stop stop-color="#653695"/><stop offset=".99" stop-color="#F04A23"/></linearGradient></defs></svg>