<svg xmlns="http://www.w3.org/2000/svg" width="1000" height="430.6" viewBox="0 0 1000 430.6" xml:space="preserve"><g style="fill:#f99500;fill-opacity:1"><path d="M69 67v31h67v67H69v78H0V0h146l5 67zM348 37c23 24 34 52 34 85s-11 61-34 85c-23 23-51 35-83 35-33 0-60-12-83-35-23-24-34-52-34-85s11-61 34-85c23-23 50-35 83-35 32 0 60 12 83 35zM245 171c0 5 2 10 6 14s9 6 15 6c5 0 10-2 14-6s6-9 6-14V72c0-6-2-10-6-14s-9-6-14-6c-6 0-11 2-15 6s-6 8-6 14v99z" style="fill:#f99500;fill-opacity:1" transform="scale(1.76389)"/><path d="m489 244-34-62-34 62h-75l72-126L350 0h77l29 53 29-53h75l-67 117 74 127h-78z" style="fill:#f99500;fill-opacity:1" transform="scale(1.76389)"/></g></svg>