<svg xmlns="http://www.w3.org/2000/svg" width="96" height="44"><g fill="#000" fill-rule="evenodd"><path d="M86.4 31.8c-1.1-1.4-2.8-2-5.2-2h-.5a8.7 8.7 0 0 0-3.2.5 9.9 9.9 0 0 0-2.7 1.5 8.8 8.8 0 0 0-2 2.3 8.2 8.2 0 0 0-1 2.8 6.6 6.6 0 0 0 0 2.6 5.3 5.3 0 0 0 1 2.2 5.6 5.6 0 0 0 2.2 1.6c1 .4 2 .6 3 .6h.6a8.7 8.7 0 0 0 3.2-.6 9.8 9.8 0 0 0 2.7-1.6 9 9 0 0 0 2-2.2 7.6 7.6 0 0 0 1-2.6 6 6 0 0 0-1.1-5.1zM74.3 18.5a11.3 11.3 0 0 0-1.9-5.5c-1-1.6-2.6-2.8-4.6-3.7-2-1-5-1.4-8.4-1.4-3.5 0-6.5.5-9.1 1.4s-4.9 2.3-6.7 4a18.8 18.8 0 0 0-4.4 5.6 26 26 0 0 0-2.3 7 26.9 26.9 0 0 0-.5 6.6 11 11 0 0 0 2 5.7 12 12 0 0 0 5.1 4 24 24 0 0 0 9.5 1.6c1.2 0 2.5 0 3.9-.2a43.7 43.7 0 0 0 4.3-.6 40.8 40.8 0 0 0 4.5-1 29.6 29.6 0 0 0 3.1-1.2L67 32.2c-6.2 1.1-11.5 1.5-13.9-.3a4 4 0 0 1-1-2c-.2-.7-.2-1.5 0-2.6h21.5l.5-3.5c.3-1.8.3-3.5.2-5.3zm-13.7 4.3H53c.3-1.7.8-3 1.6-4.2a4 4 0 0 1 3.4-1.6c1.4 0 2.2.5 2.5 1.6.3 1 .3 2.4 0 4.2z"/><path d="M36.1 39.3a13 13 0 0 1-2.2-6.6 29 29 0 0 1 .4-7 28.4 28.4 0 0 1 2.5-7.6 21 21 0 0 1 2.4-3.7 21.1 21.1 0 0 1 6.5-5.6H28L25.4 23c-6.5 1.5-6-1.6-5.8-3l2-11.2H1.9L0 18.4h3.4l-.6 3.2c-.5 2.4-.5 4.3 0 5.9A7.6 7.6 0 0 0 5 31a9 9 0 0 0 3.8 2 22.5 22.5 0 0 0 15-2l-.7 4.4c-.4 2.5 0 4.5 1.5 6 1.4 1.5 3.6 2.2 6.6 2.2a35.7 35.7 0 0 0 4.3-.2l4.2-.7a13.7 13.7 0 0 1-1-.7 11.9 11.9 0 0 1-2.6-2.8zM77.6 0l-1.4 27.4h11L95.9 0z"/></g></svg>