<svg width="300" height="200" viewBox="0 0 300 200" fill="none" xmlns="http://www.w3.org/2000/svg">
<path fill-rule="evenodd" clip-rule="evenodd" d="M0 199.448H300V126H0V199.448Z" fill="#0F0F0F"/>
<path d="M274.635 139.988H271.999H264.203H250.327V153.155V185.165H264.203V175.699H285.876V139.988H274.635ZM264.204 153.155H271.999V162.532H264.204V153.155ZM230.338 139.988H216.461V153.155V155.993V169.16V171.999V185.165H230.338H247.105V171.999H230.338V169.258L237.59 169.309L241.054 155.993H230.338V153.155H247.105V139.988H230.338ZM177.383 139.988V171.999V185.165H191.261H199.056H201.692H212.933V149.454H191.261V139.988H177.383ZM191.261 162.621H199.056V171.999H191.261V162.621ZM159.719 139.988L149.92 154.236L140.122 139.988H126.244V185.165H140.122V160.166L149.918 174.41L159.719 160.166V185.165H173.596V139.988H159.719ZM106.222 139.988H92.3451V153.155V155.993V169.16V171.999V185.165H106.222H122.99V171.999H106.222V169.258L113.475 169.309L116.939 155.993H106.222V153.155H122.99V139.988H106.222ZM77.8001 139.988H75.1651H67.3699H53.4925V153.155V185.165H67.3699V175.699H89.0421V139.988H77.8001ZM67.3704 153.155H75.1651V162.532H67.3704V153.155ZM42.0294 139.988H35.9613H28.1659H17.7216H14.2891V185.165H28.1659V153.155H35.9613V185.165H49.8393V139.988H42.0294Z" fill="url(#paint0_linear_404_228)"/>
<path d="M0.000999451 0H0V126.465H300V0H0.000999451Z" fill="url(#paint1_linear_404_228)"/>
<path d="M252.208 24.252V62.734H238.902V24.252H229.064H215.216H202.269H178.581H165.276H151.788H127.941L104.937 60.3761V24.252H81.2523L64.526 48.5711L47.8005 24.252H24.1133V101.365H47.8005V58.6941L64.5231 83.0061L81.2523 58.6941V101.365H104.937L115.331 85.208H141.59V101.365H165.276V46.7261H178.581V101.365H202.269V46.7261H215.216V85.208H252.208V101.365H275.895V24.252H252.208ZM141.59 44.3801V62.734H129.785L141.59 44.3801Z" fill="url(#paint2_linear_404_228)"/>
<defs>
<linearGradient id="paint0_linear_404_228" x1="38.5472" y1="98.1133" x2="257.503" y2="224.793" gradientUnits="userSpaceOnUse">
<stop stop-color="#FBE466"/>
<stop offset="0.00193624" stop-color="#FBE466"/>
<stop offset="1" stop-color="#D49E31"/>
</linearGradient>
<linearGradient id="paint1_linear_404_228" x1="10.063" y1="143.978" x2="289.645" y2="-17.778" gradientUnits="userSpaceOnUse">
<stop stop-color="#D49E31"/>
<stop offset="0.00193624" stop-color="#D49E31"/>
<stop offset="1" stop-color="#FBE466"/>
</linearGradient>
<linearGradient id="paint2_linear_404_228" x1="24.2245" y1="62.8421" x2="276.006" y2="62.8421" gradientUnits="userSpaceOnUse">
<stop stop-color="#F1F2F2"/>
<stop offset="0.0259203" stop-color="#F1F2F2"/>
<stop offset="1" stop-color="#F8F8F9"/>
</linearGradient>
</defs>
</svg>
