<svg width="322" height="69" viewBox="0 0 322 69" fill="none" xmlns="http://www.w3.org/2000/svg"><path d="M80.4 12C79.4 6.6 75 0 59.8 0c-5.4 0-11 1.7-12.4 8.3L43.7 24 39.9 8.3C38.4 1.7 33 0 27.6 0 12.2 0 8 6.6 7 12L.2 52.3c-1.2 7 3.7 13.5 11 14.6 7.2 1.2 15.4-2.1 16.5-10.5l1.5-9L32.6 60c1.3 5 5.6 7.1 11.2 7.1 5.5 0 9.7-1.7 11.1-7.1l3.2-12.6 1.6 9c1.4 8 8 10.7 14.4 10.7.7 0 1.4 0 2.1-.2a13 13 0 0 0 11-14.7L80.4 12Z" fill="#ED1847"/><path d="M307.4 0h-30.6c-10.1 0-14.6 6.3-14.6 14.1s4.7 14.1 12 14.1h3.4l-1.3 27.1c0 7.3 6.8 11.9 15.8 11.9 9.4 0 15.8-4.7 15.8-11.9l-1.3-27h3.3c7.4 0 12.1-6.4 12.1-14.2C322 6.3 317.9 0 307.4 0Z" fill="#4BBD2D"/><path d="M134.7 0c-8.9 0-13.9 4.1-15.2 10L116 27.3 112.3 10c-2-8.6-10-9.9-15.2-9.9-6.6 0-18 3.5-13.1 15.6l10.6 27.1c-3.9 1.3-5.8 5.2-5.8 11 0 2.2.5 4.3 1.6 6.3 1.2 2.1 6 9 18 9 17.1 0 22.9-11.6 24.9-16.4l14.6-37c4.8-12-6.6-15.6-13.2-15.6Z" fill="#7E0122"/><path d="M201.3 9.8C198.2 4.6 191.3 0 178 0c-12.1 0-21.6 5.5-26.4 15.6-3.9 8.2-4.5 22.3-4.6 22.8-4.5 0-10 4.9-10 12.8 0 13 8.4 16 15.7 16 8.5 0 16-4.4 18.4-13.6 1.3-5.1 4.5-27.4 6.9-27.4h.4S177 51.4 177 54.1c0 7.2 5 13 14.5 13 5.2 0 9.3-1.4 11.7-3.9 2.5-2.4 3.8-5.9 3.8-9.4 0-.5-.3-14-1.3-26.2-.4-4.5-1-12-4.4-17.8Z" fill="#FDBF2F"/><path d="M247.4 19.4c-1.5 0-6.3.8-6.3.8s1.2-8.5 0-13.4c-1-4.4-6-6.8-11.1-6.8-15.3 0-21.7 6.6-21.1 15.9l1.5 22.3C211.4 52 212.6 69 240 69c20.1 0 29.5-12.5 29.5-24.8 0-16.2-7.7-24.8-22.2-24.8Zm-2.7 24.4c-.3 1.4-1.7 2.3-3.1 2-1.5-.2-2.6-1.5-2.4-3 .3-1.3 1.7-2.2 3.2-2 1.5.3 2.5 1.7 2.3 3Z" fill="#29ABE2"/></svg>