<svg width="272" height="272" viewBox="0 0 272 272" fill="none" xmlns="http://www.w3.org/2000/svg"><path fill-rule="evenodd" clip-rule="evenodd" d="M0 136a136 136 0 1 1 273 0 136 136 0 0 1-273 0Zm94 1h-8v7h8c5 0 5-1 5-3s-1-4-5-4Zm-1-18h-7v6h8c3 0 3-2 3-3s0-3-4-3Zm-63 1v-13h64c12 0 17 4 17 13 0 4-1 7-3 9 4 3 6 7 6 12 0 10-8 16-19 16H71v-37H58v37H44v-37H30Zm91-24V61h97l-29 54c13 8 26 22 26 44 0 25-14 45-38 54-7 3-15 4-22 4-18 0-36-8-50-21l17-32c4 7 11 14 20 17 17 5 30-1 33-14 4-12-4-26-20-30l-10-1h-7l21-40h-38Z" fill="#722282"/></svg>