<svg width="300" height="63" viewBox="0 0 300 63" fill="none" xmlns="http://www.w3.org/2000/svg"><path d="M69.6 37.5c.1 2.4 1.8 4.7 5.4 4.7 2.7 0 4-1.5 4-3 0-1.3-.8-2.3-3.4-2.9l-4-.9c-7.3-1.6-10.2-5.7-10.2-10.6 0-6.3 5.5-11.4 13.2-11.4 10 0 13.5 6.2 13.8 10.3l-8.7 1.6c-.3-2.3-1.7-4.3-5-4.3-2 0-3.7 1.2-3.7 3 0 1.5 1.2 2.3 2.7 2.6l4.6.9c7.1 1.4 10.6 5.7 10.6 10.8 0 5.9-4.5 11.6-13.7 11.6-10.8 0-14.3-7-14.6-10.8l9-1.6ZM101.8 31.7c0 5.5 3.6 8.5 8 8.5 4.1 0 6.4-2.5 7.2-5.1l9.2 2.8c-1.5 6-7.2 12-16.4 12a18 18 0 0 1-18.5-18.2c0-10.7 8-18.3 18.2-18.3 9.5 0 15 5.8 16.5 12l-9.4 2.8a6.8 6.8 0 0 0-7-5c-4.3 0-7.8 3-7.8 8.5ZM164.5 31.6c0 10.7-8 18.3-18.3 18.3A17.8 17.8 0 0 1 128 31.6c0-10.6 8-18.2 18.2-18.2 10.4 0 18.3 7.6 18.3 18.2Zm-10.5 0c0-5.8-3.7-8.5-7.8-8.5-3.9 0-7.7 2.7-7.7 8.5 0 5.9 3.8 8.6 7.7 8.6 4 0 7.8-2.7 7.8-8.6ZM187.5 48.9H177l-14-34.4h11.3l8 21.4 7.4-21.4h11l-13 34.4ZM233.1 39c-1.6 6-7 11-15.8 11-9.5 0-18-6.9-18-18.4 0-11.1 8.3-18.2 17.2-18.2 10.7 0 17.3 6.6 17.3 17.7 0 1 0 2.2-.2 3.2h-24c.2 4 3.7 6.7 7.8 6.7 3.8 0 6-1.8 7-4.5L233 39Zm-9.5-11.5c-.2-2.6-2-5.8-7-5.8a6.6 6.6 0 0 0-6.8 5.8h13.8ZM259.6 24.8c-1-.2-2.2-.3-3.3-.3-4.2 0-8 2.5-8 9.3v15h-10.6V14.6h10.2V19c1.8-3.9 6.1-5 9-5 .9 0 1.8.1 2.7.4v10.3ZM267.7 62.1l7.8-17.9-14.4-29.7h11.7l8.4 18.4 7.6-18.4H300L278.8 62h-11ZM32.2 24.5A14.6 14.6 0 0 0 17.6 9.8H2.9V.1h14.7a24.4 24.4 0 1 1 0 48.8H2.9V39h14.7a14.6 14.6 0 0 0 14.6-14.6ZM2.8 18.2ZM10 15.9ZM10.9 14.7ZM5.3 31.8ZM8.8 35ZM8.3 16.2ZM20.3 23.7ZM3.1 23.8ZM3.2 20Z" fill="#141414"/><path d="M4 24.1v.2h.1V24ZM5.1 31.7ZM4.4 27.7s0-.1 0 0ZM5 31.2ZM7.8 15.2c.1 0 0 0 0 0ZM11.9 23.8c-.1 0-.1 0 0 0 0 .1 0 .1 0 0ZM10 24.6ZM14.8 24ZM10 24.7ZM14.8 25.1v.2-.2ZM14.4 27v.4-.3ZM11.9 17.4ZM14.3 26h.1v-.2l.1-.1h-.2v.2c-.1.1-.1.1 0 .1ZM16.3 16.2ZM13.3 17h-.1v.1-.1ZM13 16.2ZM13 17ZM13 17v.1s0-.1 0 0ZM7.4 16.2ZM6 18.6c0 .1 0 .2 0 0 .1 0 .1 0 0 0ZM7.2 16.7ZM7 16h.1v.1ZM6.4 16.3ZM6.4 18.6ZM6.9 18.3ZM7.2 15.1ZM7.4 15h-.1ZM6 17s0-.1 0 0ZM7 15.2h-.1s.1 0 0 0ZM6.2 30v-.1ZM7.2 18.3ZM4.8 19.4a2 2 0 0 0-.2.5l.2-.2.1-.2c.1-.2.1-.2.2 0l-.1.1v.2-.2l.2-.1v-.1s0-.1 0 0h-.4ZM5.3 19.7a.2.2 0 0 0 .1 0v-.1h-.1ZM4.4 17.2l-.1.1H4.7v-.1H4.3h.1ZM5.2 17.3ZM5 18.9s0-.1 0 0ZM4.7 18v.1l.1-.2v.1h-.1ZM4.8 19.2H5.1V19s0-.1-.2 0l-.2.2.1-.1ZM5.7 16.7v.1ZM4.5 18.8v-.1.1ZM4.6 17.8h-.1c-.1.1-.1.1 0 0 .1 0 .1 0 0 0ZM4.6 18.5v.1-.2ZM5 19.8l-.1.1.3-.1H5ZM4.8 18.4h-.1v.4-.4ZM4.6 19v-.1s0 .1 0 0ZM4.5 17.5l-.1.1-.1.1h.2v-.1l.2-.1h-.2ZM17.5 19.8ZM17.4 19.3ZM17.6 16v.1ZM17.2 19.3l-.1.1h.1v-.1ZM16.6 16.2v.1s0-.1 0 0ZM17.5 16.1s-.1-.1-.1 0ZM17.7 19.1ZM18.8 18.4v.4-.4ZM19.1 20.6v.1c.1 0 0 0 0 0Z" fill="#141414"/><path d="M11.7 12.8a11.7 11.7 0 1 0 0 23.4 11.7 11.7 0 0 0 0-23.4Zm10.6 12.6Zm-.7-.4Zm-.1-.2v.2-.2Zm0 .5Zm0 .4c0 .1 0 .1 0 0Zm-.2-1.6.1.2v.1-.1c0-.1 0 0 0 0h-.1V24Zm0 1.3Zm0 .7Zm0-1.1h-.1v.2h.1v.2l-.1.2s0-.1 0 0v-.2.1l-.2.2v-.2l.1-.3.1-.3h.1s.1 0 0 0Zm0 1h-.1c-.1.1-.1.2-.1 0h.1v-.1Zm-.4 0v.1Zm0 0c0 .1 0 .1 0 0Zm0-.5h-.2v-.2a.6.6 0 0 1 0-.3h.1l.1-.1.1-.2v-.2s0-.1.1 0h.1v.7H21v.2l-.2.1Zm0 .5h-.1Zm-.8-.6Zm0-.2Zm0-.3-.2-.2h.1l.2.1v.2l.1.1V25.4a.3.3 0 0 1 0 .3v.1l-.2-.3V24.9Zm.3 1H20.7v.1h-.4l.1-.1Zm0-.5v.1-.1Zm.1.1Zm.2.4Zm0-6.3v.1c0 .1.1.1 0 0v-.2l-.2-.3-.1-.2c0-.1 0-.1 0 0h.1c0 .2 0 .3.2.4v.2Zm0 2.9v-.2.2Zm.4 1.4v.1c0 .2 0 .2 0 0V24Zm0-.3c0 .1 0 .1 0 0Zm.1.4v-.2.2Zm0 0c0-.1 0-.1 0 0Zm-.2 2Zm.2-2.3v.2c.1.1 0 0 0 0v-.1c.1 0 0 0 0 0v-.1Zm0 0Zm0-.1H21v-.1c-.1 0 0 0 0 0l-.1-.1V23 23.3l.2.2c0 .1 0 .1 0 0ZM21 21s0 .1 0 0v.1c0 .1 0 .1-.1 0v.1c-.1 0 0 0 0 0 0 .1 0 .1 0 0h-.1v.2s0 .1 0 0V21s.1 0 0-.2h.1v-.5V20.6l.1.4Zm-.1-.8h-.1c0 .1 0 .1 0 0-.1 0-.1 0 0 0l-.1-.2c0-.2 0-.1 0 0h.1v.2Zm-.1-.8Zm-1.5-2.7h.1c-.1 0-.1 0 0 0Zm-.4-.2h.2l.1.1h-.2v-.2Zm.4.3h-.1Zm-1.3-.6Zm-.9-.6H17.5 17.2Zm-.5-.3h.3v.1l.1.1-.3-.1h-.1Zm-1.6-.4Zm-.2 0h.1-.1Zm-.1 0Zm-.1 1v-.2l.1-.1.2-.2h.5l-.4.2-.2.3v.1h.2H14.8l-.1-.1Zm0 .3h-.1Zm-.4-1.4h-.1Zm-2.2-.3h.4l-.2.1H12c-.2 0-.2-.1 0 0v-.1Zm-.3 0H12.1l.1.2h.1s-.2.1-.1 0H12l-.1.1h-.1c-.1 0-.1 0 0 0 0-.1-.1-.1 0-.1l-.3-.1h.2Zm-1.9 3.7V18a.1.1 0 0 0 .2 0c0-.1.2-.1.2 0v.1a.2.2 0 0 1-.2.3h-.2v-.2Zm.3-.7Zm0 1h.2c0-.1-.1 0-.1 0v-.2h.1V18s0-.1 0 0v-.2s0-.1 0 0v-.4h.2c-.1 0-.1.1 0 .1v.2c-.1 0 0 0 0 0v.2l.1.1v.1c.1 0 .2.1 0 .2v.1h-.3l-.2.1Zm.6-1.7s-.1 0 0 0v-.1c-.1 0-.1 0 0 0l-.1-.1v-.1h.7c0 .2-.4.3-.6.3Zm-1.6-2.5Zm-2.8 1 .1-.1H7l.2-.1h.1-.4l.1-.1h.2v-.1h.1l.3-.1c.3-.2.6-.2 1-.2l-.2.1h-.1l-.1.1-.2.1-.4.2s-.1 0 0 0v.1h-.2v.1h-.1v.1l-.3.1c-.4.1-.4 0-.2 0h.1s.1 0 0 0v-.1h-.2s-.1 0 0 0l-.2-.1Zm.1.2Zm0 0v.1Zm-.3-.2Zm0 .2h.1Zm0 .1H7a2 2 0 0 1-.4.2h-.3v-.1c-.1 0-.1 0 0 0Zm0 .1v.1H6h.1Zm-.3-.2h.2s0 .1 0 0H6s-.1 0 0 0c-.1 0-.1 0 0 0Zm0 .2h-.1Zm0 0c0 .1 0 .1 0 0 0 .1 0 .1 0 0H6a.3.3 0 0 1-.1.2h-.1v-.1Zm-.2.2Zm0 .2V16H6l-.1.2h-.1V16Zm-.2-.4h.1c-.1 0-.1 0 0 0Zm0 0s-.1 0 0 0Zm-.1 0Zm0 .2h.1c0-.1 0-.1 0 0h.1c0-.1 0 0 0 0h-.1l-.2.1H5l.2-.1Zm-.4.2Zm0-.1.2-.1s-.1.1 0 0L5 16h-.2.1Zm-.4.4.1-.1h.4c.1 0 .2-.1.1 0h.1V16h.2l-.1.2v.1l-.2.1-.4.2h-.1v-.1H5c0-.1 0 0 0 0h-.2v-.1c.1 0 .1 0 0 0l.1-.1.1-.1-.2.2h-.2ZM1 22.5Zm1.6 3v-.2c-.1 0 0 0 0 0v.1Zm2.7 6.3v.1h-.1v-.2l-.2-.1v-.2c0 .1 0 .1 0 0l-.1-.1v-.7.2-.4l-.1-.3v-.7l-.1-.3a5.5 5.5 0 0 0-.2-1.1l-.2-.2-.3-.4-.1-.2a9 9 0 0 1-.4-.8.5.5 0 0 1 0-.4v-.2h-.1v-.5c.1 0 0 0 0 0l.1-.2.1-.7v-.1l-.1.1h-.1l-.1-.2a.1.1 0 0 0 0-.1c-.1 0-.1 0 0 0v-.3c-.1 0-.1 0 0-.1a.3.3 0 0 1-.3-.3l-.1-.2c-.1.1-.1 0-.2 0l-.1-.2-.1-.3v-.1l.1-.5V21.2v.6l-.1.2V22.3 20.9l.1-.2v-.2l.1-.2.3-.7.2-.3h.1V19v.2-.4s0-.1 0 0v-.1c0-.1 0-.1 0 0v-.4.2-.1l.1-.2-.1.2v-.2c.1 0 .1 0 0 0V18h-.1l-.1.1s-.1.1 0 0c-.1 0 0 0 0-.1.1 0 0 0 0 0l-.1.1-.1.2-.2.1v.1h-.2v.2h-.1l.1-.1.2-.2c-.1 0-.1 0 0 0v-.1l.2-.3V18H3c0-.1 0-.1 0 0v-.2h.1s0-.1 0 0l.3-.4.2-.1h.2c.2-.1.1 0 .2 0h.1l.3-.2h.1c0-.1 0-.1 0 0h.1c0-.1 0-.1 0 0a.2.2 0 0 1 .2 0H5c.1 0 .1 0 0 0H5.2c0 .1 0 0 0 0l.2-.1h-.1s.1-.1.2 0l.3-.1v-.1H6h-.1v.1H6l.1-.2v-.2l.2-.2.3-.1-.2.1-.1.1V16.7s0 .1 0 0h.1v.1h.2v-.2c.1 0 0 0 0 0V16.2l.3-.2-.1.1v.1c0 .1 0 .1 0 0A.3.3 0 0 1 7 16H7.3v.1c.1 0 .1.1.2 0v.1h.1c0 .1 0 .1 0 0V16.7h.1l.1.1v.1h-.1v.1h-.1s0-.1-.2 0v.1a.2.2 0 0 1 0 .2h-.1v.2h-.1v-.1H7s-.1 0 0-.1H7c0-.1 0-.1-.2 0 0 0-.1 0 0 0V17H7v-.1c.2 0 .3-.2.2-.3-.1 0 0 0 0 0H7v-.1h-.4V16.9l-.2.1v.1h-.1l-.4.3a.3.3 0 0 0-.1 0v.1a1 1 0 0 0-.4.3l-.1.2v.2h.1l.1.1.1.1s.1 0 0 .2v.2h.1l.2-.2v-.1l.1-.1.2-.2V18l.1-.1.1-.2.1-.2H7v.1c.1 0 .1 0 0 .2 0 0 0 .1 0 0l.1.1.2-.1.1-.1v.2a.8.8 0 0 1 0 .3v.1h.1c.1 0 0 0 0 .1v.1s.1 0 0 .2v.1l-.3.1h-.3l-.2.1-.2.1-.2.2c0 .1 0 .1 0 0l.4-.2v.1c-.1 0-.1 0 0 .1v.3l.2-.1c0-.1 0 0 0 0 0 .1 0 0 0 0l-.3.2-.1.1c-.1 0 0 0 0 0v-.1c.1 0 .1 0 0 0h-.1l-.2.1a.4.4 0 0 0-.2.3h-.1c-.2 0-.2.1-.1.1l-.2.1v.1h-.1l-.1.2v-.1.3h-.1v.1H5v.1H5l-.1.1-.1.1-.1.1-.2.3v.1l-.1.5h-.1v-.5a.1.1 0 0 0-.2-.1H4c0 .2 0 .2-.1.1a.2.2 0 0 0-.3 0h-.1l-.2.4v.1l-.2.3V23h.1l.2-.2a.2.2 0 0 1 .2-.2c.1 0 .1 0 0 .2v.1l-.1.1v.1l-.2.2h.2l.1.2v.3l-.2.3v.2h.4c0 .2 0 .2 0 0l.2-.1.1-.1h.2c0-.1.1-.1 0 0 0 0 0 .1 0 0h.1l.1.1h.1l.1.1H5l.1.1v.2l.2.2c0 .1 0 .2.2.2s.2.1.3.2l.1.3v.2c.1 0 .1 0 0 .2v.1c0 .1 0 .1 0 0H6s.1 0 0 .2h.1V26h.2l.2.3a.1.1 0 0 1 .2 0H7l.3.3.3.1v.2l.1.3c0 .2-.2.4-.3.5V29L7 29c-.2 0-.4.1-.5.3V29.9l-.1.1-.1.2H6l.1.1V30.6H5.9v.2h-.1c-.1 0-.1 0 0 0V31.1c-.2 0-.1.2 0 .3v.1a.1.1 0 0 0 0 .1c-.1 0-.1 0 0 .2-.1 0 0 0 0 0v.2l.2.1c.1 0 0 .1 0 .1h-.2l-.1-.1v-.2s-.3-.1-.2 0ZM2.7 18.5l.1-.1Zm.4.2Zm4-2.1h-.2l.2-.1Zm0 0Zm-.2-.2Zm-.3.7Zm-.3 0h-.2V17l.2-.1.1.2Zm.1.2Zm-.1 0h-.1ZM6 18Zm-.3.5Zm1.6.7c0-.2.1-.2 0-.1v.1Zm0-.3v.1c.1 0 0 0 0 0l-.1.2c0-.1 0 0-.1 0h-.2V19L7 19v-.1l.2-.2c.1 0 .2-.1.1 0 0 .1-.1.2 0 .1v.1c.1 0 .1 0 0 0Zm-.6 0c0-.1 0 0 0 0Zm-.2.4ZM5 24.2c-.1 0 0 0 0 0ZM4.9 23h-.1Zm-.8-.4v-.1H4v-.1c-.1 0-.1 0 0 0 0-.1-.1-.1-.2 0-.1 0-.1 0 0 0v-.1l.4.2.1.1-.1.1c-.1 0-.1 0 0 0l-.1-.1Zm0 .3h-.2.1Zm.2-.8Zm0 .8s.1 0 0-.1h.3l.1.1h-.5.1Zm3 10.4ZM7 34h-.1c.2 0 .2 0 0 0v-.2h.2c.2.3.2.3 0 .3v-.1Zm-.2-.1c.1 0 .1 0 0 0Zm0-.1Zm.3-.1Zm-.4.3Zm-.4-2s-.1 0 0 0Zm-.1 0v-.1ZM6 33.5Zm-.4-2.8Zm0 2.7h-.1v-.1c-.1 0 0 0 0 0 .1 0 .3.1.1.1Zm1.9 1h-.1c.1 0 .1 0 0 0Zm.2-.3v.1h-.4l-.3-.1h-.2l.3.1h-.3.1l-1.3-.7-.1-.1-.1-.1.7.3h.2l.2.1h.2l.2.1.2.1h.2v-.1l-.1-.2s0-.1 0 0v-.1l.1-.1H7.6h-.2l-.1.1v.1l.3.2v.1l.1.1h.1v.1Zm0-.7Zm.2 1.3Zm.3-17.9v-.5c-.1 0 0 0 0-.1l.1-.1.1-.1s0-.1 0 0V16h-.1c-.1.1-.1 0-.1 0v-.1h.1c.1 0 .1 0 0 0s-.1 0 0-.2V15.4s-.2-.1-.4 0h-.3v-.1l.1-.1h-.1l.3-.2H8v-.1H8l.3-.1a.1.1 0 0 0 .1-.1s.4-.2.5-.1h.2s0-.1.1 0h.2v-.1h.1l.3-.1a1.7 1.7 0 0 1 .9 0h-.2c0 .1 0 .1.1 0 .1 0 .2 0 .1.1h.6l-.3.2h-.1v.1h-.1l-.1.1v.1h.1v.1h-.1c-.1 0-.1 0 0 0V15.5l-.2.1h-.1c.1 0 .1.1 0 .2v-.1c-.1 0 0 0 0 0a.2.2 0 0 1 .1.3h-.2v-.1h-.1l.1.1v.1l-.6.1a2 2 0 0 1-.5 0s.4.1.3.2h-.2l-.1.2c0-.1 0-.1 0 0H9v.1c-.1 0-.1 0 0 0l-.2.2-.1.2-.2.2V17l-.3-.1Zm.7 18.2-.5-.2H9v.1Zm0-2.9H9c0 .1 0 0 0 0Zm2.8 3.3a10.9 10.9 0 0 1-2-.3h-.1l-.3-.1.9-.1h.1l.1-.1s.1 0 0 0v-.1h.2v-.1H13l.3-.1H13.5l.3-.1h.2l.1-.1.4-.1H15.1l-.2.2v.1l.2-.1.2-.1.2-.2h.2l.3-.2.3-.1h.2l.1-.1h.2l.3-.1h.1l.2-.1v-.1h.4c.1 0 0 0 0 0h.1c0-.1 0-.1 0 0H18.3a11 11 0 0 1-6.5 2Zm-1.6-.7Zm1-.2Zm4.3-6.7a.3.3 0 0 1 .2-.3l.1-.2h.1l.1-.2V27l.1.3V27.7h-.1l-.4 1h-.1c-.1 0-.2 0-.2-.3v-.2a.3.3 0 0 0 .1-.2Zm1 3.7s-.2.1-.1 0Zm0-3.5Zm.1-4.3c0 .1 0 0 0 0Zm1 8.8Zm1.5-8-.2-.4.2.1v.3Zm.7-1.4v.1h-.1l-.1-.4a.1.1 0 0 0 0-.1l-.2-.2c0-.1-.1-.2-.1 0H19V23l-.2.4V24.3c0 .2-.1.2-.2 0l-.1-.3-.1-.2-.1-.2-.3-.7v-.2c0 .1-.2.2-.3 0v-.1c0-.1 0 0 0 0l-.3-.3-.1-.1h-.7v-.2c-.1 0-.2-.1-.2 0-.2 0-.4-.2-.5-.4h-.3v.1l.2.2.1.2c0 .1 0 .1 0 0h.2c0 .3.2.3.3 0l.3.3h.1V23a.1.1 0 0 0 0 .1h-.1v.1l-.2.1-.1.1-.2.2-.1.1H16l-.2.1h-.1l-.1.1-.2-.5-.1-.2-.1-.2-.2-.2v-.2l-.3-.3V22l-.2-.3-.2-.3c0 .1 0 .2-.1 0l-.1-.1v.1l.2.3a5.6 5.6 0 0 0 .2.5l.1.1.1.3.2.3.1.2.2.3c.2.1.4.4.3.4l.1.1v.1h.4l.3-.2v.7c0 .3-.2.5-.4.7l-.3.2-.2.3-.2.4-.1.2V27.6l-.2.1-.2.2-.2.2v.4l-.2.2c-.2 0-.1 0-.2.2v.3l-.3.2a1 1 0 0 1-.7.4h-.3c-.2 0-.2-.1-.2-.2a1 1 0 0 0-.3-.5.7.7 0 0 1-.1-.4l-.1-.3-.3-.6.1-.5v-.5l-.4-.7-.2-.4v-.6a.2.2 0 0 0-.3-.1l-.2-.1-.1-.1c-.2-.2-.5 0-.6 0l-.4.1H9s-.4-.3-.4-.5V24l-.2-.2c-.1 0-.1 0 0-.1V23c.1-.1.1-.2 0-.4l.1-.2.2-.3.4-.5c.2-.1.3-.3.3-.4l.3-.4.1-.2c.1-.1.1-.1.2 0h.3c.2-.2.5-.3.7-.3h.6a.1.1 0 0 0 0 .2v.2l.2.2.3.1h.1l.2.2h.2V21a.2.2 0 0 1 .3-.1H13.2l.3.2a.3.3 0 0 0 .3 0h.2s.2 0 .3-.2V20.3H14c0 .1-.1.1-.2 0h-.4a.2.2 0 0 1-.1-.2v-.2h-.1v-.2H13s-.1.1 0 .1v.1s.1.1 0 .2c-.1 0 0 0 0 .1l-.2-.1-.1-.2-.1-.3a.2.2 0 0 0-.1-.2h-.2l-.2-.2V19H12c0-.1-.2 0-.2 0v.1l.2.2.1.1.1.1.3.2h-.2v.2c-.1 0-.2.1-.1 0 0-.1 0-.2-.2-.3l-.4-.3-.1-.2h-.2c-.1.2-.2.2-.2.1 0 0-.2 0-.2.2a.2.2 0 0 1-.1.1.5.5 0 0 0-.3.3l-.1.3h-.2l-.2.1H9.7v-.7l.1-.3h.7V19c0-.2 0-.4-.2-.4 0 0 0-.1.2 0v-.2h.2l.1-.1.1-.1c.1 0 .2 0 .2-.2h.1l.3-.2v-.3s0-.1 0 0v-.1c.1 0 .2-.1.2 0v.2c-.1.1 0 .2.1.2h.8v-.2c0-.2.1-.3.2-.2h.1v-.2l.2-.1h.2l-.1-.1H13l-.3-.1v-.2l.2-.3c.1 0 0 0 0-.1l-.3.1-.1.2a.3.3 0 0 0-.2.3h.1v.2l-.1.2c0 .1 0 .2-.2.2 0 .1-.2.1-.2 0V17.3l-.1-.1-.2.1h-.2V17a.2.2 0 0 1 0-.2v-.1h.2v-.1l.2-.1h.1c0-.2.1-.2.2-.3.1 0 .2-.2 0-.1h.1V16h.4l.2-.1h.4l.6.3.2.1v.1h-.5v.1l.1.1.2.2v-.1c0-.1 0-.1 0 0h.2v-.2a.2.2 0 0 1 .2 0s.1 0 0 0v-.2h.2c-.1 0-.1 0 0 .1h.1l.2-.1h.6v-.2c-.2 0-.1 0 0 0h.1l.3.2c.2 0 .2 0 0 0V16a.1.1 0 0 0 0-.1s0-.1 0 0v-.1h.1a.1.1 0 0 1 .1.2l.1.2v.1c.1 0 .1.1 0 .2v.1a.2.2 0 0 0 .2 0V16.4l.1.2a.2.2 0 0 0-.1-.2l-.2-.1V16l.1.2V16h.2c.1 0 0 0 0 0s-.1-.1 0-.1h.2v-.1h.6a.2.2 0 0 1 .2 0l.2.1h.2v.1c.1.1.1.1 0 .1v.1c-.1 0 0 0 0 0l.3.1.2.1h.1s.1 0 0 0h.2l.1.2s.1.1 0 .1h.1s.1.2.2.1l.2.1h.2l.2.1.1.1.2.1v.1h.1v.1l.8 1h-.1V18.8l.1.1v.5l-.1-.2-.1-.3v-.4l-.1-.3v.1h-.2v.2l-.2-.1c-.2 0-.1 0-.1.2v.2c0 .1 0 .1 0 0v.1h.1l.2.3v.2l.1.4v.5l-.1.2v.2l.2.2v.2a1.8 1.8 0 0 1-.1-.3l-.2-.2v-.1H20v-.1h-.1c0-.1 0 0 0 0l-.1.1v.1h.1v.1h.1s.1 0 0 .1a.3.3 0 0 0 0 .3l.2.2v.3h.1s.1.1 0 .4v.5c-.1 0 0 0 0 0l-.1.1v.4c-.1 0-.1-.2 0-.2v-.1c-.1-.1-.2 0-.2 0l.1.5.2.5v.5l-.1-.2-.2-.1v-.2h-.1v.5l.1.1a.1.1 0 0 0 0 .1l.3.4v.2l-.2-.4-.2-.3V24l-.2-.4v-.4Zm-9-3.2h.1c0 .1 0 0 0 0Zm.7-.2s.1 0 0 .2v.1c-.1 0 0 0 0-.1v-.2Zm0-.2v.2-.2Zm.4.7H12v.1h-.2l-.1-.1Zm1.4.4s.1 0 0 0Zm.8 0h.1-.2ZM11.7 18Zm.1-.1v.1-.1Zm.6-.2Zm.3-.1c.1 0 .1 0 0 0Zm8 1Zm-.6.3v-.1ZM21 29v.1s-.1 0 0 0V29v.1Zm.5-.3v.2l-.1.1-.2.2.2-.3.2-.2v-.2.2Zm.3-.4-.2.3V28.3l.1-.2V28v.1c0 .1 0 .1 0 0v.2Zm0-2.1V27.8l-.2.2v.1l-.3.5v.1H21c0 .2-.1.2-.1.1h-.1v-.2c0-.2 0-.2 0 0h-.1v-.2h-.1l-.4.3-.2.2c-.1.1-.2.1-.2 0l.1-.3v-.3l.1-.2v-.1l.2-.4.2-.2.1-.1.2-.3s0-.1 0 0v-.1c.1 0 0 0 0 0l.2-.2v-.1h.1v-.1h.1v-.1l.1-.2h.1V26.5a.2.2 0 0 0 0 .2c0 .1 0 0 0 0l.2-.2a8.7 8.7 0 0 1 0-.3c0 .2.2.2.2.2Zm-.2 0Zm0-.7v-.1.1Zm.5 0h-.1l-.1.1c-.1 0-.1 0 0 0V25.3h-.1c0-.1 0-.1 0 0v-.2c-.1 0 0 0 0 0h-.1V25h.1v.2l.2-.2v.1l.1.2v.1a.2.2 0 0 0 0 .1V26v-.2Zm0 1.2c0-.2 0-.2 0 0Zm.1-1.5h.1v-.1.2Zm.1-.2Zm0 .2c0-.1 0 0 0 0Zm.1.3Zm0-.1Zm.1.7Zm0-.1ZM18.5 18.9ZM18.8 16.7ZM18.1 18.9Z" fill="#141414"/><path d="m14.2 25.4-.1.1v-.1ZM14.9 20.2ZM15.4 17.6ZM14 20.2c-.1 0 0 0 0 0ZM15.8 20.1h-.1V20h.1v-.1s-.1-.1-.1 0v-.1l-.2-.2-.1-.2h.1v-.2h-.3v.5l.1.1.2.2V20.3c0 .2.3.3.4.2v-.3h-.1ZM15 20.3l.1.1ZM13.4 19.9h.1ZM15 18v.2-.1ZM13.9 26.3v.4l.1.1v-.4c0-.2-.1-.3-.1 0ZM13.5 17.3V17h-.2l.2.2ZM16.2 19.4a.1.1 0 0 1 0-.1c-.1 0-.2 0-.2.2l.2.1a.1.1 0 0 0 0-.2ZM13.8 17.2V17h-.1v.1c.1.1.1 0 .1 0ZM14 17.5s0 .1 0 0ZM14.3 19.4l-.1-.1v-.2h.1H14v.1l.1.1H14c0 .1-.1 0-.1 0s-.1 0 0 0v-.1h-.2c0-.2-.2 0-.2.1l-.1.4c0 .1.3.2.4 0a.3.3 0 0 1 .4 0c.1.2.3.2.4.2.2-.2-.2-.4-.3-.5ZM47 48.9V14.5h10.6v34.4H47ZM52.2 0a5 5 0 1 1 .2 9.9 5 5 0 0 1-.2-9.9Z" fill="#141414"/></svg>