<svg width="266" height="266" viewBox="0 0 266 266" fill="none" xmlns="http://www.w3.org/2000/svg"><path fill-rule="evenodd" clip-rule="evenodd" d="m82 10.1 21.3 51.3a77.3 77.3 0 0 1 59.1-.1L183.7 10a132.5 132.5 0 0 0-101.7.1Z" fill="#8CFF05"/><path fill-rule="evenodd" clip-rule="evenodd" d="m183.7 256-21.3-51.3a77.3 77.3 0 0 1-59.1-.1L82 255.8a132.6 132.6 0 0 0 101.7.2ZM10 183.6 61.5 163a77.2 77.2 0 0 1 0-60L10.3 81.7a132.6 132.6 0 0 0-.3 101.9Z" fill="#007DE6"/><path fill-rule="evenodd" clip-rule="evenodd" d="m204.4 163 51.6 20.7a132.6 132.6 0 0 0-.3-102.2l-51.3 21.3a77.2 77.2 0 0 1 0 60.3Z" fill="#8CFF05"/><path fill-rule="evenodd" clip-rule="evenodd" d="m82 255.8 21.3-51.2A77.8 77.8 0 0 1 61.5 163L10 183.6a133.5 133.5 0 0 0 72 72.2Z" fill="#0061CF"/><path fill-rule="evenodd" clip-rule="evenodd" d="m162.5 204.7 21.2 51.3a133.5 133.5 0 0 0 72.3-72.3l-51.6-20.6c-7.9 18.8-23 33.8-42 41.6ZM10.3 81.7 61.5 103a77.8 77.8 0 0 1 41.8-41.6L82 10.1a133.5 133.5 0 0 0-71.7 71.6Z" fill="#00CC4F"/><path fill-rule="evenodd" clip-rule="evenodd" d="m204.4 102.8 51.3-21.3a133.5 133.5 0 0 0-72-71.5l-21.3 51.3a77.8 77.8 0 0 1 42 41.5Z" fill="#C2FF08"/><path d="M184.1 127c0-1.2-.4-2-1.3-2.6-.9-.5-2-.8-3.4-.8h-3.5v7h3.5c1.4 0 2.5-.2 3.4-.8.9-.5 1.3-1.4 1.3-2.5v-.3Zm13.1.3c0 2.7-.5 5-1.6 6.7a12.6 12.6 0 0 1-4.4 4.2 18 18 0 0 1-5.8 2.1 32.6 32.6 0 0 1-7.6.6H176v10.7c0 .2 0 .5-.3.7-.2.2-.5.3-.8.3h-10.7c-.3 0-.6 0-.8-.2a.7.7 0 0 1-.4-.6v-33.4c0-.8 0-1.5.2-2 .1-.5.3-1 .6-1.3.3-.3.7-.5 1.2-.7l2-.4a33.9 33.9 0 0 1 5.6-.5 215 215 0 0 1 6.6-.2c2 0 4.1.2 6.3.6 2.1.4 4 1.1 5.8 2.1 1.8 1 3.2 2.4 4.4 4.2 1 1.8 1.6 4 1.6 6.8v.3ZM120.4 115c0-.3.1-.5.4-.7.2-.2.4-.3.7-.3h10.3c.3 0 .6 0 .8.3.2.2.3.4.3.7v14.8l.1.4h.4l.4-.4 9.4-14.4.8-1c.3-.3.8-.4 1.3-.4h9.2c.5 0 1 .1 1.4.5.3.4.5.8.5 1.3v35.9c0 .2 0 .5-.3.7-.3.2-.5.3-.8.3H145c-.3 0-.6 0-.8-.3a1 1 0 0 1-.4-.7v-14.4c0-.3 0-.5-.2-.5H143.3l-.3.4-9.2 14.4-.8.8c-.3.2-.6.3-1 .3h-9.6a2 2 0 0 1-1.4-.5c-.4-.4-.6-.8-.6-1.3v-35.9Zm-6.7 37.1c0 .3-.1.5-.3.5l-.6.1h-11c-.3 0-.4 0-.6-.3l-.2-.7v-16.7l-.4-.1c-.1 0-.3.1-.5.4l-4.2 5.8-.7.8-.8.2h-3.2l-.8-.2-.7-.8-4.2-5.8c-.2-.3-.4-.4-.5-.4h-.4V151.7c0 .2 0 .5-.2.7-.2.2-.3.3-.6.3H72.2c-.2-.1-.3-.3-.3-.6v-36.3c0-.5.2-1 .6-1.3a2 2 0 0 1 1.4-.5h7.3a4 4 0 0 1 2 .4c.5.3.9.7 1.3 1.3L92 127c.3.4.5.6.7.6.2 0 .4-.2.7-.6l7.6-11.5c.4-.6.8-1 1.3-1.3a4 4 0 0 1 2-.4h7.3c.6 0 1 .1 1.4.5.4.4.6.8.6 1.3V152Z" fill="#000"/></svg>