<svg xmlns="http://www.w3.org/2000/svg" xmlns:xlink="http://www.w3.org/1999/xlink" width="800" height="182.5"><defs><linearGradient id="e"><stop style="stop-color:#0029a6;stop-opacity:1" offset="0"/><stop style="stop-color:#0069e4;stop-opacity:1" offset="1"/></linearGradient><linearGradient id="b"><stop style="stop-color:#003db9;stop-opacity:1" offset="0"/><stop style="stop-color:#fff;stop-opacity:1" offset="1"/></linearGradient><linearGradient id="a"><stop style="stop-color:#c40000;stop-opacity:1" offset="0"/><stop style="stop-color:#fff;stop-opacity:1" offset="1"/></linearGradient><linearGradient id="d"><stop style="stop-color:#c40000;stop-opacity:1" offset="0"/><stop style="stop-color:#fff;stop-opacity:1" offset="1"/></linearGradient><linearGradient id="c"><stop style="stop-color:#003db9;stop-opacity:1" offset="0"/><stop style="stop-color:#fff;stop-opacity:1" offset="1"/></linearGradient><linearGradient x1="599.8" y1="181.5" x2="599.8" y2="1" id="f" xlink:href="#e" gradientUnits="userSpaceOnUse"/></defs><path style="fill:url(#f);fill-opacity:1;stroke:none" d="M0 0h600v183H0z"/><path style="fill:#c40000;fill-opacity:1;stroke:none" d="M614 0h186v183H614z"/><path d="M556 208c-17 0-32 13-32 30 0 12 7 22 17 28l-18 38h23l15-34h9v34h20v-96h-34zm0 18h14v25h-14c-6 0-11-6-11-13s5-12 11-12zM492 208l-35 56v-56h-20v96h17l35-55v55h21v-96zM142 226h-14v25h14c6 0 11-6 11-13s-5-12-11-12zm0-18c17 0 31 13 31 30s-14 32-31 32h-14v34h-21v-96zM240 256l-1-15c0-10-8-17-17-17-10 0-17 7-17 17l-1 15 1 16c0 9 7 17 17 17 9 0 17-8 17-17l1-16zm-18 51c-22 0-39-17-39-39v-24a38 38 0 1 1 77 0v24c0 22-17 39-38 39zM313 206c-21 0-39 14-39 38v24c0 26 18 39 39 39 9 0 19-2 28-5l-4-18c-9 3-19 5-24 5-10 0-17-8-17-17l-1-16 1-15c0-10 7-17 17-17 5 0 16 1 24 5l4-18c-8-4-18-5-28-5zM393 206c-21 0-39 14-39 38v24c0 26 18 39 39 39 9 0 19-2 28-5l-4-18c-9 3-19 5-24 5-9 0-17-8-17-17l-1-16 1-15c0-10 8-17 17-17 5 0 16 1 24 5l5-18c-9-4-19-5-29-5z" style="fill:#fff;fill-opacity:1;stroke:none" transform="translate(-49 -165)"/><g><path d="M791 259v20h-43v-20zm0-51-43 48h27l43-48h-27zm3 0h1-1zm23 5-23 25v61h23v-86zM710 208v20c5 1 8 5 8 9 0 8-5 13-13 19l-30 24v18h18l36-32c8-7 15-17 15-30 0-19-15-28-34-28zm-3 0c-16 1-30 14-32 30h24v-1c0-5 4-9 8-9v-20zm14 69-25 21h47v-21h-22z" style="fill:#fff;fill-opacity:1;stroke:none" transform="translate(-40 -165)"/></g></svg>