<svg data-name="Слой 1" xmlns="http://www.w3.org/2000/svg" xmlns:xlink="http://www.w3.org/1999/xlink" viewBox="0 0 1920 539.3"><defs><linearGradient id="a" data-name="Безымянный градиент" x1="7569.1" y1="8352.4" x2="7715.1" y2="8352.4" gradientTransform="translate(-99538 -109576) scale(13.15069)" gradientUnits="userSpaceOnUse"><stop offset="0" stop-color="#e931f4"/><stop offset=".5" stop-color="#fe7219"/><stop offset="1" stop-color="#ff9a00"/></linearGradient><clipPath id="b"><path style="fill:none" d="M0-264h1920V816H0z"/></clipPath><symbol id="c" data-name="logo" viewBox="0 0 1920 527.6"><path d="M1830 230c0-22 17-40 38-40s39 18 39 40-18 40-39 40-38-18-38-40Zm-741-41c0 34 25 56 55 56 31 0 56-22 56-56 0-33-25-55-56-55-30 0-55 21-55 55Zm-69 0c0-72 53-127 124-127 72 0 125 54 125 127 0 74-53 128-125 128-71 0-124-55-124-128ZM402 331l-56-130-60 130h-76l99-216L259 0h76l143 331h-76Zm871 13v-74h76V98h71v172h76v74h-223ZM829 156c0 30 21 49 49 49 27 0 49-19 49-49s-22-49-49-49c-28 0-49 19-49 49Zm61 218c-58-2-106-27-123-92-7-29-11-77-6-133 7-72 63-113 115-113 79 0 121 58 121 116 0 61-42 115-115 115-30 0-47-10-50-11 4 17 12 47 62 46 34 0 58 3 86 12v76c-29-12-47-15-90-16ZM562 187c0 30 21 48 49 48 27 0 49-18 49-48s-22-49-49-49c-28 0-49 19-49 49Zm61 217c-58-2-106-26-123-92-7-29-11-77-6-132 7-73 63-114 115-114 79 0 121 59 121 117 0 60-42 115-115 115-30 0-47-10-50-12 4 17 12 47 62 47 34-1 58 3 86 12v76c-29-13-47-15-90-17Zm970-111c0 33 21 56 52 56s51-22 51-56-20-56-51-56-52 23-52 56Zm-76 1c0-72 50-127 116-127 30 0 56 10 75 28v-23h71v245h-71v-24c-19 18-45 28-75 28-66 0-116-55-116-127ZM0 315c0-75 51-127 128-127 44 0 69 13 69 13v66c-18-11-40-16-57-16-43 0-72 31-72 64s26 65 73 65c15 0 34-3 56-16v66a188 188 0 0 1-68 13C49 443 0 387 0 315Zm1816 213 25-240h54l25 240Z" style="fill:url(#a)"/></symbol></defs><use width="1920" height="527.6" transform="matrix(1 0 0 -1 0 534)" xlink:href="#c" style="clip-path:url(#b)"/></svg>