<svg xmlns="http://www.w3.org/2000/svg" width="278" height="183" fill="none" viewBox="0 0 278 183"><path fill="#00AA08" d="M266.222 112.796C273.015 117.733 277.999 126.344 277.999 136.249C277.999 151.361 273.289 160.449 264.925 168.787C256.562 177.126 242.738 182.333 226.25 182.333H151.288V160.788C163.031 156.432 171.394 145.166 171.394 131.961C171.394 118.754 163.031 107.488 151.288 103.131V34.6491H170.609V51.8387H189.691V19.0266H91.4485V51.8387H110.53V34.6491H129.851V103.165C118.109 107.521 109.745 118.787 109.745 131.994C109.745 145.233 118.142 156.501 129.851 160.824V182.368H0V124.506H15.4291V107.316H0V50.7827H71.5825V0H210.07V50.8164H219.73C234.1 50.8164 247.96 54.1869 256.836 60.7215C266.496 67.766 272.504 78.1823 272.504 92.5113C272.504 98.4349 271.207 107.316 266.222 112.796ZM110.53 70.5579H75.5082V107.316H54.3436V70.5579H19.3547V88.5298H34.5109V144.009H19.3547V162.524H54.3773V124.506H75.5407V162.559H110.53V144.043H95.9204V88.5635H110.53V70.5579ZM228.366 162.559C246.902 162.559 258.132 151.872 258.132 135.193C258.132 125.29 253.183 117.222 244.034 113.307C251.101 108.611 252.67 101.837 252.67 94.792C252.67 78.6584 240.382 70.5579 223.143 70.5579H170.609V88.5298H185.764V144.009H170.609V162.524H228.366V162.559ZM224.713 144.043H207.201V124.506H224.713C230.448 124.506 234.92 128.691 234.92 134.139C234.886 140.128 230.722 144.043 224.713 144.043ZM222.086 107.316H207.201V88.5635H222.358C227.069 88.5635 231.233 92.75 231.233 97.6851C231.233 103.402 226.796 107.316 222.086 107.316ZM124.322 116.712C124.322 113.512 126.915 110.926 130.125 110.926C133.333 110.926 135.927 113.512 135.927 116.712C135.927 119.911 133.333 122.464 130.125 122.464C126.95 122.464 124.322 119.911 124.322 116.712Z"/></svg>