<svg xmlns="http://www.w3.org/2000/svg" width="300" height="144" fill="none" viewBox="0 0 300 144"><path fill="#EA1C2D" fill-rule="evenodd" d="M9.9503 0H84.095C86.728 0.01 89.251 1.059 91.114 2.92C92.977 4.781 94.029 7.303 94.042 9.936V133.847C94.032 136.481 92.98 139.005 91.117 140.868C89.254 142.73 86.729 143.781 84.095 143.791H9.9503C7.3142 143.785 4.7877 142.736 2.9231 140.872C1.0586 139.009 0.0076 136.483 0 133.847V9.936C0.0099 7.301 1.0618 4.778 2.9262 2.916C4.7905 1.054 7.3157 0.006 9.9503 0ZM73.9705 52.4582C74.1903 52.2422 74.3161 51.9493 74.3206 51.6413V40.8113C74.3206 40.6583 74.2902 40.5073 74.2312 40.3662C74.1721 40.2253 74.0856 40.0973 73.9766 39.9903C73.8676 39.8833 73.7384 39.7993 73.5966 39.7423C73.4547 39.6863 73.3029 39.6583 73.1502 39.6603H18.291C17.9859 39.6603 17.6933 39.7822 17.4776 39.9972C17.2618 40.2132 17.1406 40.5063 17.1406 40.8113V51.6533C17.1444 51.9573 17.2668 52.2473 17.4817 52.4623C17.6966 52.6773 17.987 52.7992 18.291 52.8032H34.5537C35.2018 52.8012 35.8439 52.9283 36.4429 53.1753C37.042 53.4233 37.5863 53.7863 38.0446 54.2443C38.5029 54.7023 38.8661 55.2472 39.1134 55.8462C39.3608 56.4452 39.4873 57.0873 39.4858 57.7353V106.699C39.4858 107.004 39.607 107.296 39.8227 107.512C40.0384 107.728 40.331 107.849 40.6361 107.849H51.4837C51.7888 107.849 52.0814 107.728 52.2971 107.512C52.5128 107.296 52.634 107.004 52.634 106.699V57.7243C52.6337 57.0763 52.761 56.4342 53.0087 55.8363C53.2564 55.2373 53.6197 54.6933 54.0778 54.2353C54.5358 53.7773 55.0797 53.4143 55.6782 53.1663C56.2768 52.9183 56.9183 52.7913 57.5661 52.7913H73.1473C73.455 52.7933 73.7508 52.6732 73.9705 52.4582Z" clip-rule="evenodd"/><path fill="#EA1C2D" fill-rule="evenodd" d="M112.925 0H187.069C189.702 0.01 192.225 1.06 194.087 2.921C195.95 4.782 197.002 7.303 197.014 9.936V133.847C197.004 136.481 195.953 139.005 194.09 140.868C192.228 142.73 189.704 143.781 187.069 143.791H112.925C110.289 143.784 107.763 142.735 105.899 140.871C104.034 139.008 102.983 136.482 102.975 133.847V9.936C102.985 7.302 104.037 4.778 105.902 2.917C107.766 1.055 110.291 0.007 112.925 0ZM170.891 107.139C170.947 106.997 170.975 106.846 170.973 106.693L170.967 95.8772C170.97 95.7242 170.942 95.5732 170.886 95.4312C170.829 95.2892 170.745 95.1602 170.638 95.0512C170.531 94.9422 170.403 94.8552 170.262 94.7962C170.121 94.7372 169.97 94.7072 169.817 94.7072H149.813C148.984 94.7082 148.164 94.5452 147.398 94.2292C146.633 93.9132 145.937 93.4492 145.351 92.8632C144.765 92.2782 144.3 91.5822 143.983 90.8172C143.666 90.0522 143.503 89.2312 143.503 88.4032V40.8082C143.503 40.5032 143.382 40.2102 143.166 39.9952C142.951 39.7792 142.658 39.6582 142.353 39.6582H131.511C131.206 39.6582 130.913 39.7792 130.698 39.9952C130.482 40.2102 130.361 40.5032 130.361 40.8082V92.5732C130.361 101.212 134.853 107.861 145.229 107.861H169.823C169.975 107.861 170.126 107.83 170.267 107.771C170.408 107.713 170.535 107.626 170.642 107.518C170.749 107.409 170.834 107.28 170.891 107.139Z" clip-rule="evenodd"/><path fill="#EA1C2D" fill-rule="evenodd" d="M215.914 0H290.055C292.688 0.01 295.211 1.06 297.073 2.921C298.936 4.782 299.988 7.303 300 9.936V133.847C299.99 136.481 298.939 139.005 297.076 140.868C295.213 142.73 292.69 143.781 290.055 143.791H215.914C213.278 143.784 210.752 142.735 208.887 140.871C207.023 139.008 205.972 136.482 205.963 133.847V9.936C205.974 7.302 207.026 4.778 208.89 2.917C210.755 1.055 213.279 0.007 215.914 0ZM258.889 52.806C262.934 53.436 266.71 55.224 269.761 57.954C269.987 58.171 270.289 58.293 270.603 58.293C270.918 58.293 271.219 58.171 271.446 57.954L279.113 50.284C279.309 50.08 279.424 49.811 279.434 49.528C279.445 49.246 279.351 48.969 279.171 48.751C274.287 44.149 268.163 41.077 261.554 39.914C254.946 38.752 248.141 39.549 241.98 42.209C235.819 44.868 230.572 49.273 226.885 54.88C223.199 60.487 221.234 67.05 221.234 73.761C221.234 80.471 223.199 87.034 226.885 92.641C230.572 98.248 235.819 102.653 241.98 105.312C248.141 107.972 254.946 108.769 261.554 107.607C268.163 106.444 274.287 103.372 279.171 98.77C279.35 98.553 279.443 98.277 279.432 97.996C279.421 97.714 279.308 97.446 279.113 97.243L271.446 89.585C271.218 89.371 270.916 89.252 270.603 89.252C270.291 89.252 269.989 89.371 269.761 89.585V89.565C266.71 92.294 262.934 94.082 258.889 94.712C254.844 95.343 250.703 94.789 246.966 93.118C243.228 91.447 240.055 88.73 237.828 85.294C235.601 81.859 234.416 77.853 234.416 73.759C234.416 69.665 235.601 65.659 237.828 62.224C240.055 58.789 243.228 56.071 246.966 54.4C250.703 52.729 254.844 52.175 258.889 52.806Z" clip-rule="evenodd"/></svg>