<svg width="264" height="264" viewBox="0 0 264 264" fill="none" xmlns="http://www.w3.org/2000/svg">
<path fill-rule="evenodd" clip-rule="evenodd" d="M234.783 49.1488C189.009 -7.57117 105.902 -16.521 49.1748 29.2154C-7.59792 74.9654 -16.5081 158.125 29.2206 214.86C74.9874 271.588 158.118 280.506 214.813 234.787C271.572 189.073 280.527 105.907 234.783 49.1488ZM219.263 111.617C219.421 105.008 219.608 97.2088 219.917 91.802C201.122 92.1971 181.092 92.1971 162.275 91.802L162.561 99.238C163.001 99.1893 163.433 99.141 163.86 99.0933C169.533 98.4592 174.17 97.9409 181.774 98.1169V142.868L200.44 156.776V98.079H202.076C212.947 98.079 217.555 105.309 217.829 116.734H219.137C219.178 115.169 219.219 113.438 219.263 111.617ZM114.873 161.72C116.273 163.748 117.886 165.649 119.756 167.39C134.925 181.578 165.9 181.844 179.624 163.408L177.876 161.879C167.746 170.668 156.036 172.069 146.696 168.571C135.425 164.325 127.241 152.643 128.128 137.213C129.005 121.692 136.756 108.883 153.048 109.164C165.786 109.359 172.977 118.565 174.72 129.635H175.861V104.885C166.536 102.879 159.776 102.031 152.192 102.031C139.527 102.031 129.225 105.241 121.261 111.593C118.733 113.6 116.607 115.848 114.873 118.271V86.6689C110.219 86.7913 105.17 86.9127 99.6969 86.9277C94.4873 86.9426 88.5226 86.881 84.0417 86.6689V88.04C88.5376 88.2221 96.169 92.0457 96.169 99.7449V127.499C92.693 129.044 69.6598 128.945 66.9653 127.499V96.4589C62.4159 96.5874 57.0185 96.6939 52.1287 96.6939C46.6697 96.6939 40.7428 96.6481 36.1113 96.4361V97.8599C40.5997 98.079 48.2523 101.873 48.2523 109.526C48.2523 117.562 48.2532 123.319 48.2545 127.35C48.2401 126.347 48.2088 132.476 48.1462 161.833H66.9653V135.221C70.4694 133.913 93.0573 133.965 96.169 135.221L96.0933 176.779L114.873 190.724V161.72ZM48.2647 134.676C48.2629 136.753 48.2576 136.388 48.2545 127.35C48.265 128.081 48.2666 132.599 48.2647 134.676Z" fill="black"/>
</svg>
