<svg width="234" height="234" viewBox="0 0 234 234" fill="none" xmlns="http://www.w3.org/2000/svg">
<path fill-rule="evenodd" clip-rule="evenodd" d="M0 74.4127L74.4021 0H74.4025H234V234H0V74.4127ZM97.2099 96.6231C106.441 91.3573 117.202 89.9191 127.715 89.7427C161.878 89.7427 187.79 111.065 187.79 142.716C185.421 188.305 154.83 203.56 116.248 202.326C83.4268 201.647 54.3469 188.504 49.1719 152.374H95.8178C97.0287 163.897 104.771 170.37 116.472 170.68C133.22 170.68 139.861 158.538 139.861 146.159C139.861 131.946 132.063 121.626 115.786 121.626C103.239 121.626 99.4553 127.309 96.7142 131.425C96.6546 131.515 96.5955 131.604 96.5368 131.692H57.2532V68.4123L84.0151 41.582H175.739V74.4121L97.2171 74.3971L97.2099 96.6231Z" fill="#D40026"/>
</svg>
