<svg width="288" height="167" viewBox="0 0 288 167" fill="none" xmlns="http://www.w3.org/2000/svg">
<path d="M98.5441 54.4191H30.4178L0 0H68.126L98.5441 54.4191Z" fill="#282828"/>
<path d="M98.5441 62.3633H30.4178L0 116.782H68.126L98.5441 62.3633Z" fill="#282828"/>
<path d="M193.26 54.4191H125.146L94.7285 0H162.842L193.26 54.4191Z" fill="#282828"/>
<path d="M193.26 62.3633H125.146L94.7285 116.782H162.842L193.26 62.3633Z" fill="#282828"/>
<path d="M287.999 54.4191H219.872L189.43 0H257.556L287.999 54.4191Z" fill="#282828"/>
<path d="M287.999 62.3633H219.872L189.43 116.782H257.556L287.999 62.3633Z" fill="#282828"/>
<path d="M12.9183 156.781H4.50726V166.411H0V143.408H4.50726V152.729H12.9183V143.37H17.4133V166.374H12.9183V156.781Z" fill="#282828"/>
<path d="M32.6698 161.349H25.601L23.8647 166.448H19.3574L27.6453 143.283H30.9581L39.246 166.448H34.5048L32.6698 161.349ZM26.7463 157.655H31.6723L29.9605 152.519L29.2709 148.912H29.0985L28.4212 152.606L26.7463 157.655Z" fill="#282828"/>
<path d="M41.1445 166.411V143.406H45.6518V162.396H51.0703V143.406H55.5775V162.396H60.9961V143.406H65.5157V166.411H41.1445Z" fill="#282828"/>
<path d="M69.8398 143.406H83.4727V147.409H74.3345V152.729H82.6471V156.743H74.3345V162.359H83.6445V166.374H69.8398V143.406Z" fill="#282828"/>
<path d="M109 156.781H100.588V166.411H96.0938V143.408H100.588V152.729H109V143.37H113.544V166.374H109.036L109 156.781Z" fill="#282828"/>
<path d="M116.538 154.91C116.538 151.076 117.359 148.125 119.002 146.056C119.882 145.011 120.994 144.186 122.248 143.645C123.503 143.104 124.866 142.863 126.23 142.94C127.713 142.91 129.183 143.205 130.541 143.802C131.746 144.36 132.794 145.205 133.595 146.265C134.444 147.387 135.059 148.669 135.405 150.033C135.811 151.643 136.01 153.299 135.996 154.959C135.996 158.789 135.134 161.745 133.447 163.814C132.565 164.853 131.456 165.675 130.204 166.213C128.951 166.751 127.592 166.992 126.23 166.917C124.741 166.953 123.261 166.663 121.896 166.067C120.69 165.516 119.644 164.668 118.854 163.605C118.015 162.475 117.408 161.189 117.068 159.823C116.67 158.217 116.492 156.564 116.538 154.91ZM121.267 154.91C121.26 155.984 121.359 157.057 121.563 158.111C121.73 158.975 122.033 159.807 122.462 160.575C122.833 161.247 123.373 161.811 124.026 162.213C124.707 162.629 125.494 162.838 126.292 162.816C127.016 162.841 127.735 162.683 128.381 162.356C129.027 162.029 129.579 161.543 129.987 160.944C131.004 159.087 131.458 156.972 131.292 154.861C131.3 153.812 131.209 152.764 131.021 151.732C130.85 150.874 130.555 150.045 130.146 149.27C129.781 148.581 129.248 147.996 128.595 147.57C127.601 147.008 126.436 146.832 125.32 147.074C124.205 147.318 123.218 147.963 122.548 148.888C121.552 150.731 121.108 152.821 121.267 154.91Z" fill="#282828"/>
<path d="M154.513 148.765C154.509 149.342 154.439 149.916 154.303 150.476C154.159 151.033 153.922 151.562 153.601 152.04C153.258 152.514 152.843 152.929 152.369 153.272C151.788 153.655 151.141 153.926 150.461 154.073V154.269C151.106 154.38 151.735 154.57 152.333 154.836C152.915 155.088 153.438 155.457 153.872 155.92C154.322 156.403 154.669 156.973 154.894 157.594C155.167 158.34 155.296 159.129 155.276 159.922C155.301 160.998 155.037 162.061 154.513 163C154.02 163.856 153.332 164.582 152.506 165.118C151.617 165.682 150.644 166.097 149.624 166.35C148.534 166.609 147.418 166.737 146.298 166.732H144.87H142.998L140.966 166.584C140.333 166.519 139.704 166.421 139.082 166.288V143.567L140.498 143.371C141.04 143.309 141.618 143.248 142.235 143.21C142.85 143.174 143.466 143.136 144.119 143.112H146.04C147.091 143.112 148.141 143.194 149.18 143.358C150.129 143.502 151.047 143.797 151.902 144.233C152.748 144.644 153.451 145.299 153.923 146.113C154.394 146.927 154.613 147.863 154.549 148.801L154.513 148.765ZM144.882 153.075H145.954C146.36 153.075 146.693 153.013 146.951 152.976C147.743 152.739 148.477 152.341 149.106 151.806C149.401 151.555 149.634 151.242 149.791 150.887C149.946 150.533 150.019 150.148 150.005 149.762C150.022 149.274 149.912 148.791 149.685 148.358C149.474 147.993 149.173 147.688 148.811 147.472C148.429 147.252 148.013 147.101 147.579 147.028C147.105 146.938 146.622 146.893 146.138 146.893C145.559 146.893 145.043 146.893 144.562 146.893C144.186 146.897 143.812 146.93 143.441 146.991V153.075H144.882ZM146.311 162.927C146.842 162.927 147.371 162.865 147.887 162.742C148.362 162.619 148.813 162.415 149.217 162.138C149.596 161.866 149.915 161.518 150.153 161.116C150.397 160.668 150.521 160.162 150.51 159.651C150.538 159.056 150.392 158.465 150.091 157.952C149.809 157.548 149.433 157.217 148.996 156.991C148.515 156.76 147.998 156.614 147.469 156.56C146.913 156.496 146.353 156.463 145.793 156.461H143.441V162.742C143.608 162.799 143.782 162.832 143.959 162.84C144.193 162.84 144.451 162.84 144.71 162.84C144.969 162.84 145.264 162.84 145.548 162.84L146.311 162.927Z" fill="#282828"/>
<path d="M157.507 154.909C157.507 151.075 158.353 148.124 160.044 146.055C160.921 145.01 162.031 144.184 163.284 143.643C164.536 143.102 165.899 142.861 167.261 142.939C168.743 142.909 170.214 143.204 171.571 143.801C172.777 144.356 173.827 145.203 174.625 146.264C175.474 147.387 176.09 148.668 176.435 150.032C176.848 151.641 177.047 153.297 177.026 154.958C177.026 158.785 176.176 161.736 174.477 163.813C173.597 164.854 172.486 165.676 171.234 166.214C169.981 166.753 168.621 166.993 167.261 166.916C165.771 166.95 164.292 166.66 162.925 166.066C161.721 165.515 160.674 164.668 159.884 163.604C159.049 162.471 158.443 161.187 158.099 159.822C157.686 158.218 157.487 156.566 157.507 154.909ZM162.236 154.909C162.228 155.983 162.327 157.057 162.532 158.111C162.702 158.976 163.01 159.807 163.443 160.574C163.813 161.242 164.347 161.806 164.994 162.212C165.676 162.628 166.463 162.838 167.261 162.816C167.985 162.841 168.703 162.682 169.349 162.355C169.995 162.029 170.548 161.543 170.955 160.944C171.977 159.087 172.435 156.973 172.273 154.86C172.277 153.811 172.182 152.764 171.99 151.732C171.824 150.871 171.529 150.041 171.115 149.269C170.758 148.578 170.228 147.992 169.575 147.569C168.868 147.152 168.057 146.943 167.236 146.966C166.507 146.941 165.783 147.104 165.136 147.441C164.489 147.778 163.939 148.276 163.542 148.887C162.537 150.727 162.084 152.818 162.236 154.909Z" fill="#282828"/>
<path d="M180.043 143.406H193.676V147.409H184.55V152.729H192.863V156.743H184.55V162.359H193.848V166.374H180.043V143.406Z" fill="#282828"/>
<path d="M211.965 156.584H210.734V166.436H206.275V143.406H210.832V153.591L211.879 153.136L218.221 143.406H223.344L216.644 153.074L214.871 154.305L216.718 155.537L224.366 166.349H218.812L211.965 156.584Z" fill="#282828"/>
<path d="M239.154 153.652L239.426 150.672H239.253L237.714 153.764L229.093 166.411H225.719V143.406H230.213V155.931L229.894 159.022H230.078L231.692 155.832L240.312 143.406H243.662V166.411H239.154V153.652Z" fill="#282828"/>
<path d="M260.951 156.781H252.54V166.411H248.045V143.408H252.54V152.729H260.951V143.37H265.458V166.374H260.951V156.781Z" fill="#282828"/>
<path d="M268.488 154.909C268.488 151.075 269.329 148.124 271.013 146.055C271.892 145.01 273.004 144.183 274.259 143.643C275.514 143.102 276.878 142.861 278.242 142.939C279.72 142.909 281.187 143.204 282.54 143.801C283.748 144.352 284.799 145.2 285.593 146.264C286.443 147.387 287.058 148.668 287.404 150.032C287.817 151.641 288.015 153.297 287.995 154.958C287.995 158.789 287.157 161.744 285.458 163.813C284.578 164.854 283.467 165.676 282.215 166.214C280.962 166.753 279.602 166.993 278.242 166.916C276.752 166.952 275.273 166.662 273.906 166.066C272.702 165.515 271.655 164.668 270.865 163.604C270.021 162.475 269.411 161.189 269.067 159.822C268.658 158.217 268.464 156.565 268.488 154.909ZM273.217 154.909C273.21 155.983 273.308 157.057 273.513 158.111C273.679 158.975 273.982 159.806 274.411 160.574C274.783 161.246 275.322 161.811 275.975 162.212C276.657 162.628 277.444 162.838 278.242 162.816C278.966 162.841 279.684 162.682 280.33 162.355C280.976 162.029 281.529 161.543 281.936 160.944C282.958 159.087 283.417 156.973 283.254 154.86C283.262 153.811 283.171 152.764 282.983 151.732C282.811 150.873 282.517 150.044 282.109 149.269C281.744 148.584 281.215 147.999 280.569 147.569C279.861 147.152 279.05 146.943 278.229 146.966C277.5 146.94 276.776 147.104 276.129 147.44C275.482 147.776 274.932 148.275 274.534 148.887C273.52 150.724 273.062 152.816 273.217 154.909Z" fill="#282828"/>
</svg>
