<svg width="204" height="238" viewBox="0 0 204 238" fill="none" xmlns="http://www.w3.org/2000/svg">
<path fill-rule="evenodd" clip-rule="evenodd" d="M106.008 216.791V237.646H131.371V216.791H125.634V232.637H121.535V222.255H115.844V232.637H111.745V216.791H106.008Z" fill="#CA1B52"/>
<path fill-rule="evenodd" clip-rule="evenodd" d="M154.754 216.812V237.639H149.019V227.176H141.727V237.639H135.992V216.812H141.727V222.186H149.019V216.812H154.754Z" fill="#CA1B52"/>
<path fill-rule="evenodd" clip-rule="evenodd" d="M173.813 216.812H176.814H177.239H179.377V237.639H173.642V226.202L166.179 237.639H160.615V216.812H166.35V228.246L173.813 216.812Z" fill="#CA1B52"/>
<path fill-rule="evenodd" clip-rule="evenodd" d="M75.4209 237.639H69.6859V226.354L66.1023 232.624L60.3545 232.626L56.8444 226.485V237.639H51.1113V216.812H57.0632L63.2284 227.597L69.3917 216.812H75.4209V237.639Z" fill="#CA1B52"/>
<path fill-rule="evenodd" clip-rule="evenodd" d="M87.3256 216.812H94.0867L102.435 237.639H78.9766L87.3256 216.812ZM87.1546 232.649H94.2573L90.706 223.79L87.1546 232.649Z" fill="#CA1B52"/>
<path fill-rule="evenodd" clip-rule="evenodd" d="M185.24 216.811H190.974V228.246L198.438 216.811H201.438H201.863H204.001V237.639H198.267V226.202L190.803 237.639H185.24V216.811ZM194.621 206.117C196.817 206.117 198.598 207.898 198.598 210.095C198.598 212.291 196.817 214.072 194.621 214.072C192.424 214.072 190.643 212.291 190.643 210.095C190.643 207.898 192.424 206.117 194.621 206.117Z" fill="#CA1B52"/>
<path fill-rule="evenodd" clip-rule="evenodd" d="M36.0258 216.812C41.7765 216.812 46.4402 221.475 46.4402 227.226C46.4402 232.977 41.7765 237.64 36.0258 237.64C30.275 237.64 25.6113 232.977 25.6113 227.226C25.6113 221.475 30.275 216.812 36.0258 216.812ZM31.3393 227.225C31.3389 229.785 33.4657 231.912 36.0252 231.912C38.5849 231.912 40.7121 229.786 40.7124 227.226C40.7128 224.774 38.7597 222.707 36.3192 222.55C33.6433 222.379 31.3393 224.532 31.3393 227.225Z" fill="#CA1B52"/>
<path fill-rule="evenodd" clip-rule="evenodd" d="M103.121 0C158.568 0 203.534 44.9661 203.534 100.414C203.534 155.861 158.568 200.827 103.121 200.827L0 200.828V0.000736481H103.121V0ZM95.001 58.4618C118.166 58.4618 136.953 77.2488 136.953 100.414C136.953 123.578 118.166 142.365 95.001 142.365C71.8362 142.365 53.0493 123.578 53.0493 100.414C53.0493 77.2488 71.8362 58.4618 95.001 58.4618Z" fill="#CA1B52"/>
<path fill-rule="evenodd" clip-rule="evenodd" d="M10.612 216.983C16.3172 216.983 20.9437 221.61 20.9437 227.315C20.9437 233.02 16.3172 237.647 10.612 237.647H0.00195312V216.983H10.612ZM9.7767 222.999C12.16 222.999 14.0931 224.932 14.0931 227.315C14.0931 229.698 12.16 231.631 9.7767 231.631C7.39319 231.631 5.46015 229.698 5.46015 227.315C5.46015 224.932 7.39319 222.999 9.7767 222.999Z" fill="#CA1B52"/>
</svg>
