<svg width="1400" height="132" viewBox="0 0 1400 132" fill="none" xmlns="http://www.w3.org/2000/svg">
<path d="M1125.42 131.555V1.36131H1159.32V50.7021H1161.76L1192.74 1.36131H1231.53L1195.39 58.7997L1236.95 126.312V131.555H1200L1172.07 81.6697H1158.85V131.344L1125.42 131.555ZM64.9512 53.1525L79.8612 87.1764H64.8813L53.2175 115.281H90.51L98.105 131.555H130.235V126.725L72.135 0.676262H57.96L0 126.733V131.564H32.2L64.9512 53.1613V53.1525ZM280.262 1.36131H292.057V131.555H258.16V73.7039L230.501 102.625H226.774L199.649 73.7039V131.555H165.751V1.36131H177.957L228.602 57.7107L280.262 1.36131ZM422.1 31.4418H374.237V49.8151H418.162V79.2896H374.237V102.081H423.727V131.555H341.355V1.70383H422.1V31.4418ZM518.298 131.555H469.551V1.70383H518.289C602.569 2.10783 602.569 131.142 518.289 131.555H518.298ZM502.565 101.343H518.298C559.51 101.343 559.51 31.9864 518.298 31.9864H502.565V101.334V101.343ZM685.755 102.081V131.213H620.2V102.081H636.606V30.6953H621.495V1.70383H684.749V30.6865H669.287V102.089H685.764L685.755 102.081ZM810.705 115.219H759.719L752.194 131.555H719.862V126.725L778.033 0H792.269L850.579 126.646V131.476H818.239L810.714 115.219H810.705ZM785.006 52.7397L770.438 86.7724H800.004L785.015 52.7397H785.006ZM863.538 31.4418V1.70383H959.604V31.4418H928.016V131.555H895.335V31.4418H863.538ZM1081.91 31.4418H1034.11V49.8151H1077.97V79.2896H1034.05V102.081H1083.53V131.555H1001.16V1.70383H1081.83L1081.91 31.4418ZM1367.6 131.555H1400V126.725L1341.76 0H1327.52L1269.15 126.725V131.555H1301.7L1309.36 115.219H1346.78L1335.06 86.9042H1320.01L1334.98 52.8802L1367.59 131.555H1367.6Z" fill="white"/>
</svg>
