<svg xmlns="http://www.w3.org/2000/svg" width="199" height="137" fill="none" viewBox="0 0 199 137"><path fill="#fff" fill-rule="evenodd" d="M6.5 2C4.01472 2 2 4.01472 2 6.5V113.896C2 116.381 4.01472 118.396 6.5 118.396H127.34V115.396H6.5C5.67157 115.396 5 114.724 5 113.896V6.5C5 5.67157 5.67157 5 6.5 5H176.562C177.39 5 178.062 5.67157 178.062 6.5V30.3569H181.062V6.5C181.062 4.01472 179.047 2 176.562 2H6.5ZM138.801 42.3086H193.467C194.019 42.3086 194.467 42.7563 194.467 43.3086V130.8C194.467 131.352 194.019 131.8 193.467 131.8H138.801C138.248 131.8 137.801 131.352 137.801 130.8V43.3086C137.801 42.7563 138.249 42.3086 138.801 42.3086ZM134.801 43.3086C134.801 41.0995 136.592 39.3086 138.801 39.3086H193.467C195.676 39.3086 197.467 41.0995 197.467 43.3086V130.8C197.467 133.009 195.676 134.8 193.467 134.8H138.801C136.592 134.8 134.801 133.009 134.801 130.8V43.3086ZM173.595 113.912C173.595 117.208 170.923 119.88 167.626 119.88C164.33 119.88 161.658 117.208 161.658 113.912C161.658 110.615 164.33 107.943 167.626 107.943C170.923 107.943 173.595 110.615 173.595 113.912ZM52.7379 125.848C50.2658 125.848 48.2617 127.852 48.2617 130.324C48.2617 132.796 50.2658 134.8 52.7379 134.8H128.832V125.848H52.7379Z" clip-rule="evenodd"/><path fill="#fff" d="M127.34 118.396V119.896H128.84V118.396H127.34ZM127.34 115.396H128.84V113.896H127.34V115.396ZM178.062 30.3569H176.562V31.8569H178.062V30.3569ZM181.062 30.3569V31.8569H182.562V30.3569H181.062ZM128.832 134.8V136.3H130.332V134.8H128.832ZM128.832 125.848H130.332V124.348H128.832V125.848ZM3.5 6.5C3.5 4.84315 4.84315 3.5 6.5 3.5V0.5C3.18629 0.5 0.5 3.18629 0.5 6.5H3.5ZM3.5 113.896V6.5H0.5V113.896H3.5ZM6.5 116.896C4.84314 116.896 3.5 115.552 3.5 113.896H0.5C0.5 117.209 3.18629 119.896 6.5 119.896V116.896ZM127.34 116.896H6.5V119.896H127.34V116.896ZM125.84 115.396V118.396H128.84V115.396H125.84ZM6.5 116.896H127.34V113.896H6.5V116.896ZM3.5 113.896C3.5 115.552 4.84314 116.896 6.5 116.896V113.896H3.5ZM3.5 6.5V113.896H6.5V6.5H3.5ZM6.5 3.5C4.84315 3.5 3.5 4.84315 3.5 6.5H6.5V6.5V3.5ZM176.562 3.5H6.5V6.5H176.562V3.5ZM179.562 6.5C179.562 4.84314 178.218 3.5 176.562 3.5V6.5H179.562ZM179.562 30.3569V6.5H176.562V30.3569H179.562ZM181.062 28.8569H178.062V31.8569H181.062V28.8569ZM179.562 6.5V30.3569H182.562V6.5H179.562ZM176.562 3.5C178.218 3.5 179.562 4.84315 179.562 6.5H182.562C182.562 3.1863 179.875 0.5 176.562 0.5V3.5ZM6.5 3.5H176.562V0.5H6.5V3.5ZM193.467 40.8086H138.801V43.8086H193.467V40.8086ZM195.967 43.3086C195.967 41.9279 194.847 40.8086 193.467 40.8086V43.8086C193.191 43.8086 192.967 43.5847 192.967 43.3086H195.967ZM195.967 130.8V43.3086H192.967V130.8H195.967ZM193.467 133.3C194.847 133.3 195.967 132.18 195.967 130.8H192.967C192.967 130.523 193.191 130.3 193.467 130.3V133.3ZM138.801 133.3H193.467V130.3H138.801V133.3ZM136.301 130.8C136.301 132.18 137.42 133.3 138.801 133.3V130.3C139.077 130.3 139.301 130.523 139.301 130.8H136.301ZM136.301 43.3086V130.8H139.301V43.3086H136.301ZM138.801 40.8086C137.42 40.8086 136.301 41.9279 136.301 43.3086H139.301C139.301 43.5847 139.077 43.8086 138.801 43.8086V40.8086ZM138.801 37.8086C135.763 37.8086 133.301 40.271 133.301 43.3086H136.301C136.301 41.9279 137.42 40.8086 138.801 40.8086V37.8086ZM193.467 37.8086H138.801V40.8086H193.467V37.8086ZM198.967 43.3086C198.967 40.271 196.504 37.8086 193.467 37.8086V40.8086C194.847 40.8086 195.967 41.9279 195.967 43.3086H198.967ZM198.967 130.8V43.3086H195.967V130.8H198.967ZM193.467 136.3C196.504 136.3 198.967 133.837 198.967 130.8H195.967C195.967 132.18 194.847 133.3 193.467 133.3V136.3ZM138.801 136.3H193.467V133.3H138.801V136.3ZM133.301 130.8C133.301 133.837 135.763 136.3 138.801 136.3V133.3C137.42 133.3 136.301 132.18 136.301 130.8H133.301ZM133.301 43.3086V130.8H136.301V43.3086H133.301ZM167.626 121.38C171.751 121.38 175.095 118.036 175.095 113.912H172.095C172.095 116.379 170.094 118.38 167.626 118.38V121.38ZM160.158 113.912C160.158 118.036 163.502 121.38 167.626 121.38V118.38C165.159 118.38 163.158 116.379 163.158 113.912H160.158ZM167.626 106.443C163.502 106.443 160.158 109.787 160.158 113.912H163.158C163.158 111.444 165.159 109.443 167.626 109.443V106.443ZM175.095 113.912C175.095 109.787 171.751 106.443 167.626 106.443V109.443C170.094 109.443 172.095 111.444 172.095 113.912H175.095ZM49.7617 130.324C49.7617 128.68 51.0942 127.348 52.7379 127.348V124.348C49.4373 124.348 46.7617 127.023 46.7617 130.324H49.7617ZM52.7379 133.3C51.0942 133.3 49.7617 131.967 49.7617 130.324H46.7617C46.7617 133.624 49.4373 136.3 52.7379 136.3V133.3ZM128.832 133.3H52.7379V136.3H128.832V133.3ZM127.332 125.848V134.8H130.332V125.848H127.332ZM52.7379 127.348H128.832V124.348H52.7379V127.348Z"/></svg>