<svg xmlns="http://www.w3.org/2000/svg" width="218" height="150" fill="none" viewBox="0 0 218 150"><path stroke="#fff" stroke-miterlimit="10" stroke-width="7" d="M193.912 113.834C200.669 111.044 205.736 104.685 211.854 93.5221C195.464 83.9151 177.523 89.6336 165.836 110.22"/><path stroke="#fff" stroke-miterlimit="10" stroke-width="7" d="M142.463 135.244C154.013 146.315 171.178 153.818 192.681 131.081C178.528 117.402 158.761 118.134 142.463 135.244Z"/><path stroke="#fff" stroke-miterlimit="10" stroke-width="7" d="M200.305 77.2355C207.472 72.249 212.813 63.0079 214 46.7674C194.233 45.4407 179.533 58.6619 177.98 82.3136"/><path stroke="#fff" stroke-miterlimit="10" stroke-width="7" d="M195.739 38.4417C200.579 31.1678 202.176 20.5543 197.155 5C178.3 11.0845 169.535 28.8347 176.794 51.3884"/><path stroke="#fff" stroke-miterlimit="10" stroke-width="7" d="M24.0879 113.834C17.3313 111.044 12.2639 104.685 6.14648 93.5221C22.5357 83.9151 40.477 89.6336 52.1641 110.22"/><path stroke="#fff" stroke-miterlimit="10" stroke-width="7" d="M75.538 135.244C63.9879 146.315 46.8226 153.818 25.3203 131.081C39.4726 117.402 59.2401 118.134 75.538 135.244Z"/><path stroke="#fff" stroke-miterlimit="10" stroke-width="7" d="M17.6957 77.2355C10.5283 72.249 5.18696 63.0079 4 46.7674C23.7675 45.4407 38.4676 58.6619 40.0198 82.3136"/><path stroke="#fff" stroke-miterlimit="10" stroke-width="7" d="M22.2618 38.4417C17.4226 31.1678 15.8248 20.5543 20.8466 5C39.701 11.0845 48.4663 28.8347 41.2075 51.3884"/><path stroke="#fff" stroke-linejoin="round" stroke-width="7" d="M109.001 29.0176L121.509 57.1068L150.955 59.5315L129.27 80.484L134.931 108.345L109.001 94.8031L83.1158 108.207L88.7767 80.484L67.0918 59.5315L96.492 57.1068L109.001 29.0176Z"/></svg>