<svg width="211" height="189" viewBox="0 0 211 189" fill="none" xmlns="http://www.w3.org/2000/svg">
<path d="M202.75 49.1699H8.41667C5.97741 49.1699 4 51.1386 4 53.5671V181.084C4 183.512 5.97741 185.481 8.41667 185.481H202.75C205.189 185.481 207.167 183.512 207.167 181.084V53.5671C207.167 51.1386 205.189 49.1699 202.75 49.1699Z" stroke="white" stroke-width="7" stroke-linejoin="round"/>
<path d="M149.751 66.7583H34.918C27.6002 66.7583 21.668 72.6643 21.668 79.9497V154.701C21.668 161.986 27.6002 167.892 34.918 167.892H149.751C157.069 167.892 163.001 161.986 163.001 154.701V79.9497C163.001 72.6643 157.069 66.7583 149.751 66.7583Z" stroke="white" stroke-width="7" stroke-linejoin="round"/>
<path d="M180.668 150.304H189.501" stroke="white" stroke-width="7" stroke-linejoin="round"/>
<path d="M180.668 123.921H189.501" stroke="white" stroke-width="7" stroke-linejoin="round"/>
<path d="M180.668 97.5381H189.501" stroke="white" stroke-width="7" stroke-linejoin="round"/>
<path d="M70.25 18.39L87.9167 35.9785L121.042 3" stroke="white" stroke-width="7" stroke-linejoin="round"/>
<path d="M83.5007 84.3467H48.1673C45.8246 84.3467 43.5778 85.2732 41.9212 86.9225C40.2646 88.5717 39.334 90.8086 39.334 93.1409V106.332" stroke="white" stroke-width="7" stroke-linejoin="round"/>
</svg>
