<svg width="32" height="32" viewBox="0 0 32 32" fill="none" xmlns="http://www.w3.org/2000/svg">
<rect width="32" height="32" rx="4" fill="white"/>
<rect width="32" height="32" rx="4" fill="url(#paint0_linear_399_33)"/>
<path d="M11.5163 13.2246V18.7754C11.5164 18.8048 11.5105 18.834 11.4989 18.8612C11.4873 18.8884 11.4702 18.9132 11.4487 18.934C11.4272 18.9548 11.4017 18.9713 11.3736 18.9826C11.3455 18.9938 11.3153 18.9995 11.2849 18.9995H9.78604C9.72466 18.9995 9.6658 18.9759 9.6224 18.9338C9.57899 18.8918 9.55461 18.8348 9.55461 18.7754V13.2246C9.55461 13.1652 9.57899 13.1082 9.6224 13.0662C9.6658 13.0241 9.72466 13.0005 9.78604 13.0005H11.2806C11.3114 12.9999 11.342 13.0052 11.3706 13.0162C11.3992 13.0272 11.4252 13.0436 11.4472 13.0645C11.4692 13.0854 11.4866 13.1103 11.4985 13.1378C11.5103 13.1653 11.5164 13.1948 11.5163 13.2246ZM9.17989 18.7455L7.43877 15.8654L9.08905 13.2644C9.10688 13.2394 9.1173 13.2101 9.11919 13.1797C9.12109 13.1494 9.11438 13.1191 9.0998 13.0921C9.08522 13.0652 9.06332 13.0426 9.03646 13.0268C9.0096 13.0111 8.9788 13.0027 8.94738 13.0026H7.13435C7.10598 13.0026 7.07806 13.0094 7.05306 13.0224C7.02806 13.0353 7.00676 13.0541 6.99106 13.077L5.70739 15.1894H4.95741V13.2246C4.95741 13.1652 4.93303 13.1082 4.88962 13.0662C4.84622 13.0241 4.78736 13.0005 4.72598 13.0005H3.23143C3.17005 13.0005 3.11118 13.0241 3.06778 13.0662C3.02438 13.1082 3 13.1652 3 13.2246V18.7754C3 18.8348 3.02438 18.8918 3.06778 18.9338C3.11118 18.9759 3.17005 18.9995 3.23143 18.9995H4.72598C4.78736 18.9995 4.84622 18.9759 4.88962 18.9338C4.93303 18.8918 4.95741 18.8348 4.95741 18.7754V16.8216H5.86852L7.143 18.9162C7.15839 18.941 7.1801 18.9615 7.20605 18.9758C7.23199 18.9901 7.2613 18.9977 7.29116 18.9979H9.02903C9.05953 18.998 9.08951 18.9902 9.1159 18.9754C9.1423 18.9606 9.16417 18.9393 9.17928 18.9136C9.19439 18.888 9.20221 18.8589 9.20194 18.8294C9.20167 18.7998 9.19332 18.7709 9.17773 18.7455H9.17989ZM28.7707 18.9995C28.8317 18.9989 28.89 18.9751 28.933 18.9331C28.9759 18.8911 29 18.8344 29 18.7754V13.2246C29 13.1652 28.9756 13.1082 28.9322 13.0662C28.8888 13.0241 28.8299 13.0005 28.7686 13.0005H27.3373C27.3069 13.0005 27.2767 13.0062 27.2486 13.0174C27.2205 13.0287 27.195 13.0452 27.1735 13.066C27.152 13.0868 27.1349 13.1116 27.1233 13.1388C27.1117 13.166 27.1058 13.1952 27.1059 13.2246V16.0639L24.4882 13H22.8298C22.7994 13 22.7692 13.0058 22.7411 13.0171C22.7129 13.0284 22.6874 13.0449 22.6658 13.0658C22.6443 13.0867 22.6272 13.1114 22.6155 13.1387C22.6039 13.1659 22.5979 13.1951 22.5979 13.2246V18.7754C22.5979 18.8347 22.6222 18.8915 22.6655 18.9335C22.7088 18.9754 22.7675 18.999 22.8288 18.999H24.266C24.2963 18.999 24.3263 18.9932 24.3543 18.9819C24.3824 18.9707 24.4078 18.9542 24.4293 18.9335C24.4507 18.9127 24.4677 18.888 24.4793 18.8609C24.4909 18.8338 24.4969 18.8047 24.4969 18.7754V15.9356L27.0853 18.9995H28.7707ZM21.9993 13.2477V18.7523C21.9993 18.818 21.9723 18.881 21.9244 18.9275C21.8764 18.9739 21.8114 19 21.7435 19H12.3691C12.3012 19 12.2362 18.9739 12.1882 18.9275C12.1402 18.881 12.1133 18.818 12.1133 18.7523V13.2477C12.1133 13.182 12.1402 13.119 12.1882 13.0725C12.2362 13.0261 12.3012 13 12.3691 13H21.7435C21.8114 13 21.8764 13.0261 21.9244 13.0725C21.9723 13.119 21.9993 13.182 21.9993 13.2477ZM20.0527 14.5956C20.0527 14.5839 20.05 14.5723 20.0449 14.5617C20.0397 14.5512 20.0321 14.5418 20.0227 14.5345C20.0133 14.5271 20.0024 14.5218 19.9906 14.5191C19.9789 14.5163 19.9667 14.5162 19.9548 14.5186C18.9421 14.7144 15.3587 14.7438 14.1534 14.5186C14.1417 14.5163 14.1297 14.5166 14.1181 14.5195C14.1066 14.5223 14.0958 14.5276 14.0866 14.535C14.0774 14.5423 14.0701 14.5516 14.0651 14.5621C14.0601 14.5726 14.0576 14.584 14.0577 14.5956V17.3186C14.0577 17.3299 14.0602 17.3412 14.065 17.3515C14.0699 17.3619 14.077 17.3711 14.0859 17.3785C14.0948 17.3859 14.1053 17.3914 14.1165 17.3945C14.1278 17.3976 14.1397 17.3983 14.1513 17.3966C15.1478 17.2536 18.9383 17.2772 19.9613 17.3997C19.9728 17.4011 19.9844 17.4002 19.9954 17.3969C20.0064 17.3936 20.0166 17.3881 20.0252 17.3807C20.0339 17.3733 20.0408 17.3643 20.0455 17.3541C20.0503 17.3439 20.0527 17.3329 20.0527 17.3217V14.5956Z" fill="white"/>
<defs>
<linearGradient id="paint0_linear_399_33" x1="14.0179" y1="47.1092" x2="54.7636" y2="10.8016" gradientUnits="userSpaceOnUse">
<stop stop-color="#3B3A91"/>
<stop offset="0.25" stop-color="#393289"/>
<stop offset="0.614583" stop-color="#C62E68"/>
<stop offset="1" stop-color="#D02D3E"/>
</linearGradient>
</defs>
</svg>
