<svg width="563" height="322" viewBox="0 0 563 322" fill="none" xmlns="http://www.w3.org/2000/svg">
<path d="M332.477 307.687L377.062 230.388H287.869L332.477 307.687ZM221.572 307.687L266.158 230.388H176.987L221.572 307.687ZM277.03 234.896L321.639 312.196H232.445L277.03 234.896ZM388.058 211.344L432.643 134.045H343.45L388.058 211.344ZM334.361 141.482L378.946 218.781H289.776L334.361 141.482ZM166.003 211.377L121.418 134.077H210.611L166.003 211.377ZM219.721 141.482L175.113 218.781H264.307L219.721 141.482ZM77.2336 161.269L0 116.623V205.892L77.2336 161.269ZM77.2336 277.241L0 232.619V321.864L77.2336 277.241ZM0.0114945 219.254L77.2221 174.632V263.877L0.0114945 219.254ZM77.2336 44.646L0 0V89.2678L77.2336 44.646ZM563 161.269L485.765 116.623V205.892L563 161.269ZM563 277.241L485.765 232.619V321.864L563 277.241ZM485.777 219.254L562.988 174.632V263.877L485.777 219.254ZM563 44.646L485.765 0V89.2678L563 44.646Z" fill="white"/>
</svg>
