<svg width="413" height="149" viewBox="0 0 413 149" fill="none" xmlns="http://www.w3.org/2000/svg"><mask id="a" style="mask-type:alpha" maskUnits="userSpaceOnUse" x="0" y="0" width="413" height="99"><path d="M135 3.7v91.2c0 2-1.7 3.7-3.7 3.7h-23.7c-2 0-3.7-1.6-3.7-3.7V3.7c0-2 1.7-3.7 3.7-3.7h23.7c2 0 3.6 1.7 3.6 3.7ZM98 94.5 70.2 47 96.5 4.3c1.2-1.8 0-4.3-2.3-4.3H65.5c-1 0-1.8.5-2.3 1.2L43 36H31V3.7c0-2-1.6-3.7-3.6-3.7H3.7C1.7 0 0 1.7 0 3.7v91.2c0 2 1.6 3.7 3.7 3.7h23.7c2 0 3.6-1.6 3.6-3.7V63h14.5l20.2 34.4c.5.8 1.3 1.3 2.3 1.3h27.6c2.1 0 3.4-2.3 2.3-4.1Zm310.4 4.1c2 0 3.7-1.6 3.7-3.7V3.7c0-2-1.7-3.7-3.7-3.7h-22.7c-2 0-3.7 1.7-3.7 3.7v46.7L340.6 0h-26.3c-2 0-3.7 1.7-3.7 3.7V95c0 2 1.6 3.6 3.7 3.6H337c2 0 3.7-1.6 3.7-3.6V48.3l41 50.3h26.7ZM301 4.1v90.5a4 4 0 0 1-4 4H148.4a4 4 0 0 1-4-4V4a4 4 0 0 1 4-4.1H297a4 4 0 0 1 4 4Zm-30.8 22.1c0-.8-.8-1.4-1.6-1.2-16 3.2-72.9 3.7-92 0-.7-.2-1.4.4-1.4 1.2V71c0 .8.6 1.4 1.4 1.3 15.8-2.4 76-2 92.1 0 .8.1 1.5-.5 1.5-1.3V26.2Z" fill="#fff"/></mask><g mask="url(#a)"><path d="M414 0H0v98.6h414V0Z" fill="#fff"/></g><path d="M369.9 143.2h7.4v-18.7h7.1v-6.7h-21.7v6.7h7.2v18.7ZM412.1 124.5v-6.7h-11.2c-9.8 0-15.7 4.8-15.7 12.7 0 8 5.9 12.7 15.7 12.7h11.2v-6.7h-11.2c-5.2 0-8-2-8-6s2.8-6 8-6h11.2ZM342.7 133l-4-15.2h-13.4v25.4h7.4v-21.7l.3 1 5.5 20.7h8.6l5.8-21.7v21.7h7.5v-25.4H347l-4.2 15.7v-.5ZM307.2 116.3c-2 0-4.5 2-6.6 5.5-2.2 3.5-3.5 8-3.5 11.7 0 5.6 3.2 11.2 10.1 11.2 7 0 10.2-5.6 10.2-11.2 0-3.8-1.3-8.2-3.5-11.7-2-3.4-4.6-5.5-6.7-5.5ZM143.2 134c0 5.6 4.2 10 9.8 10 1.8 0 3.5-.5 5-1.4v-3.4a8.4 8.4 0 0 1-4.7 1.6 6.6 6.6 0 0 1-6.6-6.9c0-3.9 2.8-6.8 6.6-6.8 1.8 0 3.2.4 4.8 1.5v-3.4c-1.6-.8-3.3-1.2-5.1-1.2a9.7 9.7 0 0 0-9.8 10ZM164.7 131.6h-.3l-.4-2.1h-2.6v14h3.3v-7.2c0-2.9 2-3.9 3.7-3.9l1 .1v-3l-.9-.2c-.6 0-2.7.2-3.8 2.3ZM177.8 129.1c-4 0-7 3.2-7 7.4 0 4.5 3 7.4 7.6 7.4a9 9 0 0 0 4.8-1.4v-2.7c-1.4 1-3 1.4-4.4 1.4-2.5 0-4.4-1.4-4.9-3.6v-.2h10l.2-1.2c0-4.3-2.5-7-6.3-7Zm-3.9 6.3v-.1c.4-2.1 2-3.5 3.8-3.5 2 0 3.2 1.3 3.2 3.5v.1h-7ZM197.7 132l-.2-.3a5.4 5.4 0 0 0-4.8-2.6c-3 0-6.2 2.8-6.2 7.4 0 3.5 2.4 7.3 6.2 7.3 2 0 3.7-1 4.8-2.6l.2-.3.4 2.5h2.7v-14h-2.7l-.4 2.7Zm-4 8.9c-2.2 0-3.9-1.9-3.9-4.4 0-2.5 1.7-4.4 4-4.4 2.2 0 3.8 1.9 3.8 4.4 0 2.5-1.7 4.4-3.9 4.4ZM208.9 138.1v-5.9h3.9v-2.7h-4v-3.3h-3.1v3.3h-2.2v2.7h2.1v6.1c0 3.5 2 5.5 5.5 5.5.7 0 1.3 0 2-.2V141h-1.2c-2 0-3-1-3-2.8ZM222 129.1c-4 0-7 3.2-7 7.4 0 4.5 3 7.4 7.6 7.4 1.7 0 3.4-.5 4.8-1.4v-2.7c-1.4 1-3 1.4-4.4 1.4-2.5 0-4.4-1.4-4.8-3.6v-.2h10v-1.2c0-4.3-2.4-7-6.2-7Zm-3.9 6.3v-.1c.4-2.1 2-3.5 3.8-3.5 2 0 3.2 1.3 3.2 3.5v.1h-7ZM241.7 132l-.3-.4a5.2 5.2 0 0 0-4.4-2.5c-3 0-6.3 2.6-6.3 7.4 0 3.6 2.3 7.4 6.3 7.4 2 0 3.7-1 4.7-2.7l.1-.3.4 2.6h2.8v-20.6h-3.3v9.2Zm-3.8 8.9c-2.2 0-4-1.9-4-4.4 0-2.5 1.7-4.4 4-4.4 2.2 0 3.8 1.9 3.8 4.4 0 2.5-1.6 4.4-3.8 4.4ZM263.9 129.1c-2 0-3.7 1-4.6 2.6l-.2.4V123h-3.4v20.5h2.8l.4-2.6.2.4c1 1.6 2.7 2.6 4.6 2.6 4 0 6.4-3.7 6.4-7.4 0-4.8-3.2-7.4-6.2-7.4Zm-1 11.8c-2.3 0-4-1.9-4-4.4 0-2.5 1.7-4.4 4-4.4 2.2 0 3.8 1.9 3.8 4.4 0 2.5-1.6 4.4-3.9 4.4ZM281.9 129.5l-3.4 9.9h-.2v-.1l-3.4-9.8h-3.5l5.3 13.7-2.4 5.8h3.3l7.7-19.5h-3.4Z" fill="#fff"/></svg>