<svg xmlns="http://www.w3.org/2000/svg" width="147" height="19" fill="none" viewBox="0 0 147 19"><g opacity=".6"><path fill="#fff" d="M123.151 14.8731H127.185V4.71347H131.074V1.10376H119.262V4.71347H123.151V14.8731Z"/><path fill="#fff" d="M146.106 4.71347V1.10376H140.047C134.687 1.10376 131.482 3.68004 131.482 7.98841C131.482 12.2968 134.687 14.8731 140.047 14.8731H146.106V11.2634H140.047C137.177 11.2634 135.663 10.128 135.663 7.98841C135.663 5.84878 137.177 4.71347 140.047 4.71347H146.106Z"/><path fill="#fff" d="M108.395 9.35661L106.181 1.10376H98.9277V14.8731H102.962V3.06872L103.108 3.60727L106.123 14.8731H110.799L113.959 3.06872V14.8731H117.994V1.10376H110.74L108.468 9.61861L108.395 9.35661Z"/><path fill="#fff" d="M89.1259 0.273926C87.9898 0.273926 86.6353 1.38013 85.5137 3.22866C84.3339 5.16451 83.6348 7.55158 83.6348 9.63299C83.6348 12.6605 85.3389 15.7026 89.1259 15.7026C92.9129 15.7026 94.6171 12.6459 94.6171 9.63299C94.6171 7.55158 93.9179 5.16451 92.7381 3.22866C91.6166 1.38013 90.262 0.273926 89.1259 0.273926Z"/><path fill="#fff" d="M0 9.85112C0 12.9368 2.2722 15.2657 5.28723 15.2657C6.29224 15.2657 7.20987 15.0328 8.06923 14.567V12.7185C7.37009 13.1697 6.56899 13.5627 5.47659 13.5627C3.72874 13.5627 1.87894 12.2528 1.87894 9.83657C1.87894 7.7115 3.42287 6.12496 5.47659 6.12496C6.42334 6.12496 7.18074 6.35785 8.06923 6.92551V5.1061C7.20987 4.64033 6.29224 4.422 5.28723 4.422C2.2722 4.43655 0 6.76539 0 9.85112Z"/><path fill="#fff" d="M11.652 8.5703L11.6374 8.61396H11.5063L11.3024 7.43498H9.875V15.062H11.6811V11.132C11.6811 9.57461 12.7153 9.02151 13.6766 9.02151C13.8805 9.02151 14.0553 9.03607 14.2301 9.06518V7.39132C14.099 7.36221 13.9388 7.34766 13.7348 7.34766C13.4144 7.34766 12.2783 7.43498 11.652 8.5703Z"/><path fill="#fff" d="M18.7597 7.24585C16.5603 7.24585 14.9727 8.93426 14.9727 11.2631C14.9727 13.6793 16.5894 15.2367 19.0947 15.2367C20.0414 15.2367 20.9445 14.9893 21.7165 14.5089V13.0243C20.9445 13.5337 20.1143 13.8103 19.3132 13.8103C17.9586 13.8103 16.9536 13.0534 16.6768 11.8162L16.6623 11.7289H22.1388C22.168 11.5397 22.1826 11.3359 22.1826 11.0884C22.1971 8.7596 20.8571 7.24585 18.7597 7.24585ZM16.6623 10.6518L16.6768 10.5645C16.8953 9.42914 17.7255 8.67226 18.7451 8.67226C19.7793 8.67226 20.4638 9.41458 20.4784 10.579V10.6518H16.6623Z"/><path fill="#fff" d="M29.5679 8.83228L29.466 8.65761C28.927 7.75519 27.9803 7.2312 26.9024 7.2312C25.2274 7.2312 23.4941 8.7304 23.4941 11.2339C23.4941 13.1552 24.7905 15.2221 26.9024 15.2221C27.9803 15.2221 28.9125 14.6981 29.466 13.7811L29.5679 13.6064L29.7864 15.0183H31.2866V7.39131H29.7864L29.5679 8.83228ZM27.4414 13.621C26.2179 13.621 25.3148 12.6167 25.3148 11.2485C25.3148 9.88027 26.2033 8.87595 27.4414 8.87595C28.6503 8.87595 29.5242 9.88027 29.5242 11.2485C29.5242 12.6167 28.6357 13.621 27.4414 13.621Z"/><path fill="#fff" d="M35.6555 12.1218V8.91962H37.782V7.43498H35.6555V5.63013H33.9222V7.43498H32.7715V8.91962H33.9076V12.2237C33.9076 14.1304 34.9854 15.2221 36.8789 15.2221C37.2722 15.2221 37.6072 15.193 37.9277 15.1202V13.6064C37.6946 13.6501 37.4907 13.6647 37.3013 13.6647C36.2381 13.6355 35.6555 13.097 35.6555 12.1218Z"/><path fill="#fff" d="M42.7792 7.24585C40.5798 7.24585 38.9922 8.93426 38.9922 11.2631C38.9922 13.6793 40.609 15.2367 43.1142 15.2367C44.061 15.2367 44.964 14.9893 45.736 14.5089V13.0243C44.964 13.5337 44.1338 13.8103 43.3327 13.8103C41.9781 13.8103 40.9731 13.0534 40.7109 11.8162L40.6964 11.7289H46.1729C46.2021 11.5397 46.2166 11.3359 46.2166 11.0884C46.2166 8.7596 44.8621 7.24585 42.7792 7.24585ZM40.6818 10.6518L40.6964 10.5645C40.9148 9.42914 41.7305 8.67226 42.7646 8.67226C43.7988 8.67226 44.4834 9.41458 44.4979 10.579V10.6518H40.6818Z"/><path fill="#fff" d="M53.4981 8.83216L53.367 8.59928C52.8863 7.76963 51.9542 7.24564 50.9346 7.24564C49.2741 7.24564 47.5117 8.64294 47.5117 11.2338C47.5117 13.1988 48.7935 15.2365 50.9492 15.2365C51.9979 15.2365 52.9446 14.698 53.4835 13.7955L53.5855 13.6209L53.804 15.0327H55.3042V3.85425H53.4981V8.83216ZM51.4444 13.6209C50.2209 13.6209 49.3178 12.6165 49.3178 11.2483C49.3178 9.88015 50.2063 8.87582 51.4444 8.87582C52.6533 8.87582 53.5272 9.88015 53.5272 11.2483C53.5272 12.6165 52.6533 13.6209 51.4444 13.6209Z"/><path fill="#fff" d="M65.5587 7.24583C64.5246 7.24583 63.5487 7.78437 63.0681 8.61402L62.937 8.84691V3.88354H61.1309V15.062H62.6311L62.8496 13.6502L62.9515 13.8248C63.4905 14.7272 64.4372 15.2658 65.4859 15.2658C67.627 15.2658 68.9233 13.228 68.9233 11.2631C68.9233 8.64313 67.1901 7.24583 65.5587 7.24583ZM64.9907 13.621C63.7818 13.621 62.8933 12.6167 62.8933 11.2485C62.8933 9.88034 63.7672 8.87601 64.9761 8.87601C66.1996 8.87601 67.1027 9.88033 67.1027 11.2631C67.1027 12.6167 66.2142 13.621 64.9907 13.621Z"/><path fill="#fff" d="M75.3472 7.43457L73.5266 12.7909H73.3809L73.3664 12.7473L71.5748 7.43457H69.623L72.5216 14.8869L72.507 14.916L71.2252 18.0163H73.0313L77.197 7.43457H75.3472Z"/></g></svg>