<svg width="4500" height="3200" viewBox="0 0 4500 3200" fill="none" xmlns="http://www.w3.org/2000/svg">
<path fill-rule="evenodd" clip-rule="evenodd" d="M4500 0H0V3200H4500V0ZM2322 1557H2178V1641H2322V1557Z" fill="black"/>
<path d="M2150.26 1547.18V1650.84C2150.26 1653.14 2148.39 1655.02 2146.09 1655.02H2119.19C2116.89 1655.02 2115.02 1653.14 2115.02 1650.84V1547.18C2115.02 1544.88 2116.89 1543 2119.19 1543H2146.09C2148.39 1543 2150.26 1544.88 2150.26 1547.18ZM2108.2 1650.28L2076.86 1596.46L2106.56 1547.9C2107.99 1545.83 2106.52 1543 2104.01 1543H2071.38C2070.35 1543 2069.37 1543.52 2068.8 1544.38L2045.69 1583.83H2032.23V1547.18C2032.23 1544.88 2030.36 1543 2028.07 1543H2001.17C1998.87 1543 1997 1544.88 1997 1547.18V1650.84C1997 1653.14 1998.87 1655.02 2001.17 1655.02H2028.07C2030.36 1655.02 2032.23 1653.14 2032.23 1650.84V1614.35H2048.63L2071.57 1653.5C2072.14 1654.43 2073.15 1655.02 2074.24 1655.02H2105.55C2107.98 1655.02 2109.46 1652.35 2108.2 1650.28ZM2460.83 1655.02C2463.13 1655.02 2465 1653.14 2465 1650.84V1547.18C2465 1544.88 2463.13 1543 2460.83 1543H2435.07C2432.77 1543 2430.91 1544.88 2430.91 1547.18V1600.21L2383.79 1543H2353.94C2351.64 1543 2349.77 1544.88 2349.77 1547.18V1650.85C2349.77 1653.15 2351.63 1655.02 2353.93 1655.02H2379.8C2382.09 1655.02 2383.95 1653.15 2383.95 1650.85V1597.8L2430.55 1655.02H2460.83ZM2338.98 1547.62V1650.41C2338.98 1652.96 2336.91 1655.03 2334.37 1655.03H2165.63C2163.09 1655.03 2161.03 1652.96 2161.03 1650.41V1547.62C2161.03 1545.07 2163.09 1543 2165.63 1543H2334.38C2336.92 1543 2338.98 1545.07 2338.98 1547.62ZM2303.96 1572.78C2303.96 1571.85 2303.11 1571.16 2302.2 1571.35C2283.97 1575 2219.42 1575.56 2197.77 1571.32C2196.88 1571.14 2196.05 1571.83 2196.05 1572.76V1623.62C2196.05 1624.52 2196.84 1625.2 2197.73 1625.07C2215.68 1622.4 2283.91 1622.84 2302.32 1625.13C2303.2 1625.24 2303.96 1624.55 2303.96 1623.67V1572.78Z" fill="white"/>
</svg>
