<svg width="4500" height="3200" fill="none" xmlns="http://www.w3.org/2000/svg"><path fill-rule="evenodd" clip-rule="evenodd" d="M4500 0H0v3200h4500V0ZM2322 1557h-144v84h144v-84Z" fill="#000"/><path d="M2150.3 1547.2v103.6c0 2.3-2 4.2-4.2 4.2h-27a4.2 4.2 0 0 1-4-4.2v-103.6c0-2.3 1.8-4.2 4-4.2h27c2.3 0 4.2 1.9 4.2 4.2Zm-42.1 103-31.3-53.7 29.7-48.6c1.4-2 0-4.9-2.6-4.9h-32.6c-1 0-2 .5-2.6 1.4l-23.1 39.4h-13.5v-36.6c0-2.3-1.8-4.2-4.1-4.2h-27a4.2 4.2 0 0 0-4.1 4.2v103.6c0 2.3 1.9 4.2 4.2 4.2h26.9c2.3 0 4.1-1.9 4.1-4.2v-36.5h16.4l23 39.2c.5 1 1.6 1.5 2.6 1.5h31.4c2.4 0 3.9-2.7 2.6-4.7Zm352.6 4.8c2.3 0 4.2-1.9 4.2-4.2v-103.6c0-2.3-1.9-4.2-4.2-4.2h-25.7a4.2 4.2 0 0 0-4.2 4.2v53l-47.1-57.2h-29.9a4.2 4.2 0 0 0-4.1 4.2v103.6c0 2.4 1.8 4.2 4.1 4.2h25.9c2.3 0 4.1-1.8 4.1-4.2v-53l46.7 57.2h30.2ZM2339 1547.6v102.8c0 2.6-2 4.6-4.6 4.6h-168.8c-2.5 0-4.6-2-4.6-4.6v-102.8c0-2.5 2-4.6 4.6-4.6h168.8c2.5 0 4.6 2 4.6 4.6Zm-35 25.2c0-1-.9-1.6-1.8-1.5-18.2 3.7-82.8 4.3-104.4 0-1-.2-1.8.5-1.8 1.5v50.8c0 1 .8 1.6 1.7 1.5 18-2.7 86.2-2.3 104.6 0 .9.1 1.7-.5 1.7-1.4v-51Z" fill="#fff"/></svg>