<svg width="563" height="277" viewBox="0 0 563 277" fill="none" xmlns="http://www.w3.org/2000/svg">
<path d="M51.4517 0C16.371 0 0 19.9606 0 51.0809V87.1913C0 119.491 5.75683 133.282 28.9641 147.89L46.8642 159.049C61.3462 167.851 63.2352 174.383 63.2352 193.255V225.101C63.2352 234.355 59.0076 240.071 51.002 240.071C42.9964 240.071 38.7686 234.718 38.7686 225.101V175.109H0V225.464C0 256.947 16.0112 276.545 50.6421 276.545C86.4424 276.545 102.813 255.767 102.813 225.464V186.268C102.813 156.327 95.168 140.904 73.1296 126.749L55.2296 115.227C42.6365 107.152 39.5783 101.436 39.5783 80.6586V51.4438C39.5783 42.1894 43.8059 36.4734 51.3618 36.4734C59.3674 36.4734 63.9548 42.2801 63.9548 51.4438V100.982H102.813V51.0809C102.813 20.3235 86.4424 0 51.4517 0Z" fill="white"/>
<path d="M115.045 42.2829H142.48V272.828H182.058V42.2829H209.493V3.81348H115.045V42.2829Z" fill="white"/>
<path d="M468.553 3.81348V42.2829H495.988V272.828H535.565V42.2829H563V3.81348H468.553Z" fill="white"/>
<path d="M233.872 3.81348L211.744 272.736H250.963L256.36 200.879H285.144L290.541 272.736H330.569L308.531 3.81348H233.872ZM259.149 164.405L268.503 40.2869H273.18L282.535 164.405H259.149Z" fill="white"/>
<path d="M454.07 252.413V182.461C454.07 160.141 445.704 147.892 425.466 143.628V139.001C445.615 135.916 455.959 120.946 455.959 96.721V51.0838C455.959 21.5058 438.419 3.81348 404.507 3.81348H350.807V272.736H390.385V160.232H414.402V252.413C414.402 267.747 420.878 272.736 420.878 272.736H460.457C460.546 272.828 454.07 267.837 454.07 252.413ZM416.381 98.7169C416.381 117.951 412.153 123.667 399.2 123.667H390.475V40.3776H400.729C412.963 40.3776 416.381 45.3678 416.381 65.3283V98.7169Z" fill="white"/>
</svg>
