<svg width="32768" height="23298" viewBox="0 0 32768 23298" fill="none" xmlns="http://www.w3.org/2000/svg">
<path fill-rule="evenodd" clip-rule="evenodd" d="M32768 0H0V23298H32768V0ZM15794.9 12021.2V11269.6C15794.9 11252.9 15781.3 11239.3 15764.7 11239.3H15569.6C15552.9 11239.3 15539.4 11252.9 15539.4 11269.6V12021.2C15539.4 12038 15552.9 12051.6 15569.6 12051.6H15764.7C15781.3 12051.6 15794.9 12038 15794.9 12021.2ZM15262.7 11627L15489.9 12017.2C15499.1 12032.2 15488.3 12051.6 15470.7 12051.6H15243.7C15235.8 12051.6 15228.4 12047.3 15224.4 12040.5L15058 11756.6H14939.1V12021.2C14939.1 12038 14925.5 12051.6 14908.9 12051.6H14713.8C14697.2 12051.6 14683.6 12038 14683.6 12021.2V11269.6C14683.6 11252.9 14697.2 11239.3 14713.8 11239.3H14908.9C14925.5 11239.3 14939.1 11252.9 14939.1 11269.6V11535.4H15036.7L15204.2 11249.3C15208.4 11243.1 15215.5 11239.3 15222.9 11239.3H15459.6C15477.7 11239.3 15488.4 11259.8 15478.1 11274.8L15262.7 11627ZM18077.1 12021.2C18077.1 12038 18063.6 12051.6 18046.9 12051.6H17827.3L17489.5 11636.7V12021.3C17489.5 12038 17476 12051.6 17459.3 12051.6H17271.7C17255.1 12051.6 17241.6 12038 17241.6 12021.3V11269.6C17241.6 11252.9 17255.2 11239.3 17271.8 11239.3H17488.3L17829.9 11654.1V11269.6C17829.9 11252.9 17843.5 11239.3 17860.1 11239.3H18046.9C18063.6 11239.3 18077.1 11252.9 18077.1 11269.6V12021.2ZM17163.3 12018.1V11272.8C17163.3 11254.3 17148.4 11239.3 17130 11239.3H15906.4C15888 11239.3 15873 11254.3 15873 11272.8V12018.1C15873 12036.6 15888 12051.7 15906.4 12051.7H17130C17148.4 12051.7 17163.3 12036.6 17163.3 12018.1ZM16896.6 11444.8C16903.3 11443.5 16909.4 11448.5 16909.4 11455.3V11824.3C16909.4 11830.7 16903.9 11835.6 16897.5 11834.8C16764 11818.3 16269.3 11815.1 16139.1 11834.4C16132.7 11835.3 16126.9 11830.4 16126.9 11823.9V11455.1C16126.9 11448.4 16132.9 11443.3 16139.4 11444.6C16296.4 11475.4 16764.4 11471.4 16896.6 11444.8Z" fill="black"/>
</svg>
